<svg width="507" height="229" viewBox="0 0 507 229" fill="none" xmlns="http://www.w3.org/2000/svg">
<rect y="0.0322266" width="507" height="228.968" fill="#FFDE00"/>
<path d="M217.519 212.645L0 0.0322266V212.645H217.519Z" fill="url(#paint0_linear_78_138)" fill-opacity="0.5"/>
<g clip-path="url(#clip0_78_138)">
<path d="M101.926 139.866C87.1841 139.866 75.2324 150.593 75.2324 163.826C75.2324 173.597 79.4525 178.263 85.2422 182.518H85.2702V193.983C85.2698 194.105 85.3045 194.224 85.3702 194.328C85.436 194.432 85.5303 194.516 85.6425 194.571C85.7547 194.626 85.8805 194.649 86.0057 194.639C86.1308 194.628 86.2505 194.584 86.3513 194.511L96.4731 187.215L96.6934 187.308C98.4237 187.616 100.179 187.771 101.938 187.77C116.681 187.77 128.633 177.047 128.633 163.814C128.633 150.582 116.669 139.866 101.926 139.866ZM92.9777 169.899C95.5963 169.899 97.8345 168.376 98.5071 166.013H102.379C101.43 170.532 97.8065 173.492 92.9777 173.492C87.3723 173.492 82.9199 169.432 82.9199 163.779C82.9199 158.127 87.3683 154.067 92.9777 154.067C97.8545 154.067 101.506 157.085 102.407 161.681H98.5352C97.9466 159.183 95.6323 157.625 92.9657 157.625C89.1941 157.625 86.6876 160.236 86.6876 163.776C86.6758 164.579 86.83 165.377 87.1412 166.122C87.4524 166.866 87.9143 167.543 88.4995 168.112C89.0848 168.68 89.7815 169.129 90.5486 169.432C91.3157 169.735 92.1376 169.886 92.9657 169.875L92.9777 169.899ZM118.467 173.116H114.951V165.345C114.951 163.558 113.878 162.598 112.229 162.598C110.387 162.598 109.206 163.69 109.206 165.905V173.112H105.658V154.148H109.206V161.293C110.054 160.038 111.432 159.424 113.302 159.424C113.992 159.4 114.68 159.519 115.32 159.772C115.96 160.025 116.537 160.407 117.013 160.893C118.002 161.88 118.495 163.224 118.495 164.945L118.467 173.116Z" fill="#221F20"/>
<path d="M411.108 139.866H151.207C143.412 139.866 137.093 145.998 137.093 153.561V174.126C137.093 181.689 143.412 187.821 151.207 187.821H411.108C418.903 187.821 425.222 181.689 425.222 174.126V153.561C425.222 145.998 418.903 139.866 411.108 139.866Z" fill="white"/>
<path d="M169.404 163.228V165H151.387V163.228H159.246V160.963H153.753V154.424H156.019V159.191H167.338V160.963H161.525V163.228H169.404ZM167.202 169.809C167.202 172.051 164.628 173.357 160.355 173.357C156.083 173.357 153.509 172.051 153.509 169.809C153.509 167.568 156.103 166.262 160.355 166.262C164.608 166.262 167.182 167.544 167.182 169.809H167.202ZM164.912 169.809C164.912 168.589 163.262 167.972 160.355 167.972C157.449 167.972 155.791 168.589 155.791 169.809C155.791 171.029 157.421 171.647 160.327 171.647C163.234 171.647 164.892 171.006 164.892 169.809H164.912Z" fill="#221F20"/>
<path d="M182.397 157.61H171.366V155.858H175.839V153.853H178.105V155.842H182.397V157.61ZM176.96 165.38C174.273 165.38 172.403 163.989 172.403 161.883C172.403 159.778 174.273 158.387 176.96 158.387C179.646 158.387 181.54 159.778 181.54 161.883C181.54 163.989 179.67 165.365 176.96 165.365V165.38ZM176.96 163.733C178.437 163.733 179.426 163.03 179.426 161.895C179.426 160.761 178.437 160.061 176.96 160.061C175.482 160.061 174.517 160.765 174.517 161.895C174.517 163.026 175.506 163.717 176.96 163.717V163.733ZM185.548 166.297H187.794V173.135H174.737V166.285H176.984V168.038H185.548V166.297ZM185.548 169.716H176.984V171.406H185.548V169.716ZM187.794 154.055V165.508H185.524V163.954H182.485V162.159H185.524V160.174H182.529V158.379H185.524V154.039L187.794 154.055Z" fill="#221F20"/>
<path d="M209.219 164.059V165.854H191.229V164.059H209.219ZM193.147 158.569C193.147 156.133 195.95 154.661 200.234 154.661C204.518 154.661 207.325 156.133 207.325 158.569C207.325 161.005 204.522 162.501 200.234 162.501C195.946 162.501 193.147 161.029 193.147 158.569ZM195.786 171.196H207.217V172.991H193.5V167.373H195.786V171.196ZM195.478 158.569C195.478 159.937 197.307 160.73 200.234 160.73C203.161 160.73 204.971 159.953 204.971 158.569C204.971 157.186 203.141 156.433 200.234 156.433C197.327 156.433 195.478 157.225 195.478 158.569Z" fill="#221F20"/>
<path d="M220.979 157.952H211.069V156.219H214.925V154.241H217.147V156.227H220.979V157.952ZM216.046 165.45C213.559 165.45 211.798 164.125 211.798 162.117C211.798 160.108 213.559 158.783 216.046 158.783C218.532 158.783 220.318 160.131 220.318 162.117C220.318 164.102 218.556 165.45 216.046 165.45ZM216.046 163.845C217.391 163.845 218.292 163.162 218.292 162.117C218.292 161.071 217.391 160.388 216.046 160.388C214.7 160.388 213.824 161.071 213.824 162.117C213.824 163.162 214.704 163.845 216.046 163.845ZM228.113 169.914C228.113 172.094 225.579 173.356 221.395 173.356C217.211 173.356 214.648 172.113 214.648 169.914C214.648 167.715 217.179 166.495 221.383 166.495C225.587 166.495 228.113 167.735 228.113 169.914ZM225.843 169.914C225.843 168.749 224.242 168.162 221.395 168.162C218.548 168.162 216.927 168.76 216.927 169.914C216.927 171.068 218.556 171.69 221.395 171.69C224.234 171.69 225.859 171.068 225.859 169.914H225.843ZM223.773 165.555H221.659V154.424H223.773V159.086H225.859V154.035H228.017V166.215H225.859V160.901H223.789L223.773 165.555Z" fill="#221F20"/>
<path d="M253.182 165.384H248.682V173.376H246.399V165.384H241.819V173.376H239.577V165.384H235.172V163.566H247.921C248.359 161.406 248.565 159.208 248.537 157.008H237.395V155.213H250.784V156.572C250.825 158.916 250.633 161.258 250.211 163.566H253.182V165.384Z" fill="#221F20"/>
<path d="M261.154 159.362C261.154 162.649 262.431 165.967 265.206 167.544L263.884 169.145C262.015 168.076 260.781 166.177 260.077 163.931C259.372 166.367 258.075 168.442 256.177 169.615L254.812 167.991C257.614 166.281 258.952 162.8 258.952 159.362V157.971H255.452V156.157H264.437V157.971H261.154V159.362ZM265.898 154.424H268.036V172.416H265.898V162.629H262.972V160.846H265.898V154.424ZM272.064 154.035V173.329H269.902V154.039L272.064 154.035Z" fill="#221F20"/>
<path d="M277.934 166.946C279.995 166.969 282.053 166.789 284.076 166.41L284.276 168.228C281.887 168.642 279.46 168.82 277.033 168.76H275.712V156.347H283.063V158.127H277.934V166.946ZM292.004 154.039V173.333H289.846V163.461H287.491V172.397H285.353V154.447H287.491V161.666H289.846V154.039H292.004Z" fill="#221F20"/>
<path d="M312.945 163.271V165.042H294.955V163.271H312.945ZM311.051 158.251C311.051 160.559 308.276 161.965 303.964 161.965C299.652 161.965 296.873 160.559 296.873 158.251C296.873 155.943 299.624 154.51 303.964 154.51C308.304 154.51 311.051 155.92 311.051 158.251ZM310.767 169.906C310.767 172.129 308.212 173.403 303.92 173.403C299.628 173.403 297.069 172.144 297.069 169.906C297.069 167.669 299.648 166.41 303.92 166.41C308.192 166.41 310.767 167.672 310.767 169.895V169.906ZM299.207 158.251C299.207 159.51 301.013 160.236 303.964 160.236C306.915 160.236 308.697 159.51 308.697 158.251C308.697 156.992 306.915 156.242 303.964 156.242C301.013 156.242 299.207 156.961 299.207 158.251ZM299.383 169.906C299.383 171.072 301.013 171.701 303.92 171.701C306.827 171.701 308.476 171.08 308.476 169.906C308.476 168.733 306.823 168.112 303.92 168.112C301.017 168.112 299.383 168.718 299.383 169.895V169.906Z" fill="#221F20"/>
<path d="M322.238 159.638C322.238 162.843 324.288 166.177 327.391 167.459L326.137 169.188C323.823 168.205 322.041 166.111 321.116 163.612C320.236 166.305 318.45 168.589 316.12 169.681L314.818 167.929C317.901 166.538 319.947 162.948 319.947 159.638V157.8H315.543V155.986H326.686V157.8H322.258L322.238 159.638ZM331.266 154.063V173.357H328.976V154.063H331.266Z" fill="#221F20"/>
<path d="M340.275 164.51C338.381 164.595 336.595 164.615 335.01 164.615L334.726 162.82C338.381 162.8 343.27 162.758 347.474 162.245L347.65 163.826C345.958 164.095 344.253 164.28 342.541 164.382V168.1H340.275V164.51ZM336.243 158.185C336.243 156.133 338.245 154.789 341.176 154.789C344.107 154.789 346.085 156.133 346.085 158.185C346.085 160.236 344.083 161.584 341.176 161.584C338.269 161.584 336.243 160.236 336.243 158.185ZM351.766 171.196V172.991H337.412V167.288H339.678V171.196H351.766ZM338.401 158.185C338.401 159.277 339.526 159.96 341.176 159.96C342.826 159.96 343.931 159.277 343.931 158.185C343.931 157.093 342.805 156.413 341.176 156.413C339.546 156.413 338.401 157.097 338.401 158.185ZM349.036 165.384V154.039H351.306V168.717H349.036V166.923H345.14V165.368L349.036 165.384Z" fill="#221F20"/>
<path d="M364.827 165.12H355.446V155.45H357.712V158.465H362.581V155.45H364.827V165.12ZM359.99 171.196H371.089V172.991H357.7V166.88H359.99V171.196ZM362.589 160.174H357.72V163.356H362.589V160.174ZM373.111 159.747V161.561H370.308V168.247H368.038V154.082H370.308V159.747H373.111Z" fill="#221F20"/>
<path d="M397.615 175.897C404.474 175.897 410.035 170.502 410.035 163.846C410.035 157.189 404.474 151.794 397.615 151.794C390.755 151.794 385.195 157.189 385.195 163.846C385.195 170.502 390.755 175.897 397.615 175.897Z" fill="#231815"/>
<path d="M397.615 157.45V170.237" stroke="white" stroke-width="4.38" stroke-miterlimit="10"/>
<path d="M404.205 163.845H391.024" stroke="white" stroke-width="4.38" stroke-miterlimit="10"/>
</g>
<path d="M124.378 59.416C124.378 54.664 122.353 49.804 117.493 49.804C112.687 49.804 110.608 54.664 110.608 59.416C110.608 64.492 112.687 69.082 117.493 69.082C122.299 69.082 124.378 64.492 124.378 59.416ZM112.768 59.389C112.768 55.852 114.145 51.667 117.52 51.667C120.868 51.667 122.245 55.852 122.245 59.389C122.245 63.412 120.841 67.192 117.52 67.192C114.172 67.192 112.768 63.412 112.768 59.389ZM129.994 74.617C130.291 74.617 130.534 74.374 130.534 74.077V48.913H128.428V74.617H129.994ZM146.483 52.234V50.452H134.414V52.234H139.409V59.335C139.409 62.089 136.547 65.815 133.55 67.894C134.063 68.353 134.495 68.812 135.008 69.244C137.249 67.705 139.652 64.789 140.597 62.818C141.434 64.573 143.81 67.246 145.889 68.596C146.321 68.083 146.78 67.624 147.212 67.111C144.809 65.518 141.569 62.17 141.569 59.389V52.234H146.483ZM150.803 74.023C151.019 74.023 151.316 73.888 151.343 73.483V48.94H149.21V57.769H144.431V59.551H149.21V74.023H150.803ZM156.23 74.617C156.473 74.617 156.77 74.482 156.77 74.077V48.94H154.637V74.617H156.23ZM168.467 70.702C173.84 69.487 180.212 66.058 180.212 59.659V51.883C180.212 51.019 179.564 50.236 178.619 50.236H167.549V52.828H176.81C176.999 52.828 177.107 52.909 177.107 53.098V57.634H167.414V60.199H176.945C177.161 65.032 170.978 67.327 166.874 68.515L168.467 70.702ZM190.742 57.607H187.259V48.94H184.154V74.644H186.692C186.989 74.644 187.259 74.428 187.259 74.104V60.172H190.742V57.607ZM193.568 70.702C198.941 69.487 205.313 66.058 205.313 59.659V51.883C205.313 51.019 204.665 50.236 203.72 50.236H192.65V52.828H201.911C202.1 52.828 202.208 52.909 202.208 53.098V57.634H192.515V60.199H202.046C202.262 65.032 196.079 67.327 191.975 68.515L193.568 70.702ZM215.843 57.607H212.36V48.94H209.255V74.644H211.793C212.09 74.644 212.36 74.428 212.36 74.104V60.172H215.843V57.607ZM241.053 68.731H230.496V63.304C235.167 62.872 238.569 60.55 238.569 56.5C238.569 52.126 234.465 49.723 228.984 49.723C223.557 49.723 219.426 52.126 219.426 56.5C219.426 60.523 222.747 62.872 227.391 63.304V68.731H216.753V71.323H240.513C240.81 71.323 241.053 71.08 241.053 70.783V68.731ZM235.518 56.554C235.518 59.281 232.791 60.82 229.011 60.82C225.204 60.82 222.477 59.281 222.477 56.554C222.477 53.773 225.204 52.261 229.011 52.261C232.791 52.261 235.518 53.773 235.518 56.554ZM247.146 48.697V51.883H242.232V54.394H247.146V58.336C247.146 61.414 244.635 64.843 241.179 66.922L243.285 68.866C245.229 67.732 247.524 65.248 248.739 63.412C250.008 65.275 251.439 66.868 253.815 68.299L255.624 66.139C252.384 64.546 250.224 61.657 250.224 58.417V54.394H255.165V51.883H250.224V48.697H247.146ZM258.54 74.023C258.648 74.023 259.053 73.996 259.08 73.483V60.388H261.834V74.644H264.372C264.453 74.644 264.885 74.617 264.912 74.104V48.913H261.834V57.796H259.08V48.913H256.029V74.023H258.54ZM288.961 72.376H274.705C274.516 72.376 274.435 72.295 274.435 72.106V70.189H286.693C287.638 70.189 288.34 69.568 288.34 68.569V63.25H271.357V65.761H285.316V67.516C285.316 67.705 285.235 67.786 285.046 67.786H271.33V73.24C271.33 74.293 271.924 74.86 272.977 74.86H288.421C288.718 74.86 288.961 74.617 288.961 74.32V72.376ZM283.696 57.769C279.457 58.444 275.677 58.687 272.329 58.66C272.14 58.66 272.059 58.579 272.059 58.39V49.291H268.981V59.686C268.981 60.577 269.656 61.279 270.628 61.306C272.626 61.387 278.701 61.063 283.696 60.415V57.769ZM288.637 48.94H285.559V52.207H278.026V54.691H285.559V62.062H288.097C288.394 62.062 288.637 61.819 288.637 61.522V48.94ZM320.557 70.054C320.557 66.436 316.318 65.14 311.566 65.14C306.733 65.14 302.575 66.436 302.575 70.081C302.575 73.699 306.733 75.076 311.566 75.076C316.318 75.076 320.557 73.672 320.557 70.054ZM304.789 70.054C304.789 67.786 308.029 66.895 311.566 66.895C315.022 66.895 318.316 67.786 318.316 70.081C318.316 72.403 314.941 73.294 311.566 73.294C308.137 73.294 304.789 72.43 304.789 70.054ZM299.389 61.252V63.007H322.987C323.284 63.007 323.527 62.764 323.527 62.467V61.252H299.389ZM305.302 56.932C305.113 56.932 305.032 56.851 305.032 56.662V51.532C305.032 51.343 305.113 51.262 305.302 51.262H320.071V49.507H304.546C303.601 49.507 302.899 50.182 302.899 51.127V57.094C302.899 58.039 303.601 58.714 304.546 58.714H320.341V56.932H305.302ZM337.747 62.521V60.037H345.334V58.255H330.619C330.43 58.255 330.349 58.174 330.349 57.985V55.42H343.363C344.308 55.42 345.01 54.772 345.01 53.8V49.21H328.081V50.965H342.85V53.449C342.85 53.638 342.769 53.719 342.58 53.719H328.162V58.417C328.162 59.416 328.837 60.037 329.809 60.037H335.587V62.521H324.49V64.303H348.088C348.385 64.303 348.628 64.087 348.628 63.763V62.521H337.747ZM345.199 67.921C345.199 66.976 344.443 66.301 343.552 66.301H327.73V68.056H342.796C342.985 68.056 343.066 68.137 343.066 68.326V74.644H344.659C344.956 74.644 345.199 74.401 345.199 74.104V67.921ZM363.767 62.926C363.767 59.389 360.959 56.365 356.99 56.365C353.021 56.365 350.213 59.362 350.213 62.926C350.213 66.544 352.994 69.487 356.99 69.487C360.986 69.487 363.767 66.49 363.767 62.926ZM364.712 54.718V52.936H358.097V48.967H355.91V52.936H349.376V54.718H364.712ZM352.346 62.899C352.346 60.442 354.236 58.255 356.99 58.255C359.798 58.255 361.661 60.442 361.661 62.899C361.661 65.599 359.69 67.597 356.99 67.597C354.317 67.597 352.346 65.545 352.346 62.899ZM373.784 59.578H369.734V48.913H367.628V74.617H369.194C369.491 74.617 369.734 74.374 369.734 74.077V61.387H373.784V59.578ZM393.539 57.121C393.539 59.929 392.459 63.898 391.46 65.842H393.62C394.835 63.709 395.726 59.983 395.726 56.986V51.91C395.726 50.965 394.97 50.29 394.079 50.29H377.852V52.072H393.269C393.458 52.072 393.539 52.153 393.539 52.342V57.121ZM398.885 69.406H385.736V58.309H383.603V69.406H374.693V71.161H398.399C398.723 71.161 398.885 70.972 398.885 70.594V69.406ZM66.2133 110.645C66.2133 111.496 66.9033 112.025 67.6163 112.025H79.7603C80.5653 112.025 81.1633 111.45 81.1633 110.645V103.331H66.2133V110.645ZM83.5323 101.192C83.7853 101.192 83.9923 100.985 83.9923 100.732V99.053H80.2433C80.8643 97.696 81.2093 95.718 81.2093 94.269V91.854C81.2093 91.049 80.5653 90.474 79.8063 90.474H66.0293V92.59H78.3803C78.5413 92.59 78.6103 92.659 78.6103 92.82V94.384C78.6103 95.879 78.1733 97.811 77.7363 99.053H63.2693V101.192H83.5323ZM68.9733 109.886C68.8123 109.886 68.7433 109.817 68.7433 109.656V105.447H78.6103V109.656C78.6103 109.817 78.5413 109.886 78.3803 109.886H68.9733ZM84.6521 101.951H89.5511V105.102C88.2631 105.769 87.4121 106.758 87.4121 108.207C87.4121 111.266 91.3221 112.416 95.0941 112.416C99.0501 112.416 102.638 110.99 102.638 108.207C102.638 106.896 101.856 105.907 100.568 105.194V101.951H104.915C105.168 101.951 105.375 101.744 105.375 101.491V99.766H84.6521V101.951ZM87.3891 94.522C87.3891 97.604 90.8391 98.731 95.0711 98.731C99.4871 98.731 102.661 97.305 102.661 94.522C102.661 91.509 98.9351 90.175 95.0711 90.175C91.0461 90.175 87.3891 91.486 87.3891 94.522ZM90.0341 94.522C90.0341 92.981 92.2651 92.199 95.0941 92.199C97.6471 92.199 100.016 92.981 100.016 94.522C100.016 95.925 97.6701 96.73 95.0711 96.73C92.2191 96.73 90.0341 95.925 90.0341 94.522ZM90.0801 108.207C90.0801 106.85 92.4491 106.16 95.0941 106.16C97.6241 106.16 99.9701 106.827 99.9701 108.207C99.9701 109.587 97.6241 110.254 95.0941 110.254C92.4491 110.254 90.0801 109.564 90.0801 108.207ZM95.0941 103.998C94.1051 103.998 93.1391 104.09 92.1501 104.251V101.951H97.9461V104.274C97.0491 104.09 96.0831 103.998 95.0941 103.998ZM119.053 102.848V111.956H121.192C121.445 111.956 121.652 111.749 121.652 111.496V102.848H126.321C126.574 102.848 126.781 102.641 126.781 102.388L126.758 100.617H122.986C123.469 99.329 123.745 97.604 123.745 96.201V91.992C123.745 91.233 123.147 90.612 122.342 90.612H108.634V92.797H120.893C121.054 92.797 121.123 92.866 121.123 93.027V96.316C121.123 97.742 120.824 99.444 120.456 100.617H106.058V102.848H110.934V111.956H113.096C113.349 111.956 113.556 111.749 113.556 111.496V102.848H119.053ZM137.998 93.326V91.233H127.625V93.326H131.535V98.984C131.535 100.847 129.235 104.113 126.59 105.953L128.407 107.609C130.224 106.321 132.064 104.067 132.984 102.526C133.697 103.906 135.629 105.907 137.262 107.103L138.803 105.309C136.825 103.952 134.18 101.054 134.18 99.122V93.326H137.998ZM141.839 111.427C141.954 111.427 142.276 111.358 142.299 110.967V90.06H139.7V97.213H136.02V99.421H139.7V111.427H141.839ZM146.439 111.956C146.554 111.956 146.876 111.887 146.899 111.496V90.06H144.3V111.956H146.439ZM158.369 92.889C158.53 92.889 158.599 92.958 158.599 93.119C158.599 95.327 158.093 97.535 157.288 99.467H159.68C160.623 97.972 161.175 94.867 161.175 93.096V92.084C161.175 91.279 160.577 90.704 159.772 90.704H149.951V92.889H158.369ZM166.327 98.708H169.409V96.523H166.327V90.06H163.728V106.16H165.867C166.12 106.16 166.327 105.953 166.327 105.7V98.708ZM155.241 100.962V95.833H152.688V100.962H148.548V103.17H154.344C157.564 103.17 160.485 103.101 162.44 102.549C162.624 102.48 162.739 102.342 162.762 102.135V100.249C160.807 100.801 158.323 100.962 156.299 100.962H155.241ZM166.718 109.748H154.551C154.459 109.748 154.344 109.679 154.344 109.518V104.711H151.745V110.553C151.745 111.358 152.412 111.956 153.148 111.956H166.258C166.511 111.956 166.718 111.749 166.718 111.496V109.748ZM188.054 106.298C188.307 106.298 188.514 106.091 188.514 105.838V90.06H185.915V92.452H181.89V94.545H185.915V97.052H181.89V99.168H185.915V106.298H188.054ZM173.794 97.903H179.521C180.326 97.903 180.924 97.328 180.924 96.523V90.704H171.287V92.751H178.371V95.603C178.371 95.764 178.302 95.856 178.141 95.856H171.287V102.181C171.287 102.94 171.862 103.561 172.69 103.561C176.669 103.561 181.683 103.216 184.259 102.848V100.732C181.269 101.215 177.175 101.399 174.024 101.399C173.863 101.399 173.794 101.33 173.794 101.169V97.903ZM189.066 109.771H176.784C176.692 109.771 176.577 109.702 176.577 109.541V105.47H173.955V110.553C173.955 111.358 174.622 111.956 175.358 111.956H188.606C188.859 111.956 189.066 111.749 189.066 111.496V109.771ZM209.081 91.003H207.264V94.476C207.264 97.581 201.744 100.594 198.915 101.422L200.134 102.71C202.779 101.859 206.85 99.398 208.207 97.167C209.656 99.467 213.75 101.997 216.073 102.687L217.269 101.422C214.509 100.502 209.081 97.558 209.081 94.43V91.003ZM218.419 107.494H209.081V101.56H207.241V107.494H197.834V109.012H217.959C218.212 109.012 218.419 108.805 218.419 108.552V107.494ZM226.347 90.382H224.507V94.936C224.507 97.466 221.425 99.835 218.665 101.192L219.838 102.342C222.414 100.985 224.369 99.375 225.496 97.65C226.508 99.214 229.314 101.169 231.154 101.905L232.212 100.732C229.153 99.329 226.347 97.282 226.347 94.913V90.382ZM236.628 102.825C236.881 102.825 237.088 102.618 237.088 102.365V90.06H235.294V102.825H236.628ZM237.019 105.47C237.019 104.665 236.375 104.09 235.616 104.09H222.552V105.585H234.995C235.156 105.585 235.225 105.654 235.225 105.815V112.186H236.559C236.812 112.186 237.019 111.979 237.019 111.726V105.47ZM258.494 94.2C258.494 91.279 254.745 90.129 250.881 90.129C246.994 90.129 243.245 91.325 243.245 94.2C243.245 97.121 246.994 98.294 250.881 98.294C254.745 98.294 258.494 97.144 258.494 94.2ZM245.131 94.2C245.131 92.406 247.753 91.601 250.881 91.601C253.986 91.601 256.608 92.406 256.608 94.2C256.608 96.04 253.986 96.822 250.881 96.822C247.753 96.822 245.131 96.04 245.131 94.2ZM240.6 99.789V101.307H260.702C260.955 101.307 261.162 101.1 261.162 100.847V99.789H240.6ZM258.632 110.576H245.798C245.637 110.576 245.568 110.507 245.568 110.346V108.276H256.769C257.528 108.276 258.172 107.77 258.172 106.919V103.193H243.728V104.711H256.332V106.597C256.332 106.758 256.263 106.827 256.102 106.827H243.728V110.691C243.728 111.588 244.372 112.071 245.131 112.071H258.172C258.425 112.071 258.632 111.864 258.632 111.611V110.576ZM270.942 100.617C270.942 100.893 270.988 101.169 271.08 101.445H268.366V102.917H274.737C276.784 102.917 281.177 102.733 282.511 102.365V100.87C281.66 101.123 279.889 101.238 278.808 101.307C278.877 101.077 278.9 100.824 278.9 100.571V92.36H281.246V90.865H268.596V92.36H270.942V100.617ZM286.122 105.838C286.306 105.838 286.559 105.723 286.582 105.378V90.06H284.788V93.648H280.924V95.12H284.788V97.926H280.924V99.375H284.788V105.838H286.122ZM272.92 101.445C272.759 101.445 272.69 101.376 272.69 101.215V92.36H277.152V101.215C277.152 101.376 277.083 101.445 276.922 101.445H272.92ZM287.364 110.323H274.691C274.53 110.323 274.461 110.254 274.461 110.093V105.102H272.644V110.461C272.644 111.266 273.242 111.864 274.047 111.864C278.371 111.864 282.626 111.841 286.927 111.841C287.226 111.841 287.364 111.703 287.364 111.404V110.323ZM301.64 101.974C301.64 98.961 299.248 96.385 295.867 96.385C292.486 96.385 290.094 98.938 290.094 101.974C290.094 105.056 292.463 107.563 295.867 107.563C299.271 107.563 301.64 105.01 301.64 101.974ZM302.445 94.982V93.464H296.81V90.083H294.947V93.464H289.381V94.982H302.445ZM291.911 101.951C291.911 99.858 293.521 97.995 295.867 97.995C298.259 97.995 299.846 99.858 299.846 101.951C299.846 104.251 298.167 105.953 295.867 105.953C293.59 105.953 291.911 104.205 291.911 101.951ZM310.173 99.122H306.723V90.037H304.929V111.933H306.263C306.516 111.933 306.723 111.726 306.723 111.473V100.663H310.173V99.122ZM323.782 97.604H320.861V92.728C320.861 91.923 320.217 91.348 319.458 91.348H311.868V92.843H318.814C318.975 92.843 319.044 92.912 319.044 93.073L319.067 98.754C319.067 103.101 315.985 105.608 311.5 107.333L312.604 108.46C316.606 107.103 320.539 104.228 320.838 99.099H323.782V111.427H325.139C325.392 111.427 325.599 111.243 325.599 110.967V90.129H323.782V97.604ZM328.428 111.933H329.739C330.038 111.933 330.199 111.772 330.199 111.473V90.129H328.428V111.933ZM355.734 96.385H359V94.867H355.734V90.106H353.917V102.733H355.274C355.527 102.733 355.734 102.526 355.734 102.273V96.385ZM347.845 99.904C347.845 100.065 347.776 100.134 347.615 100.134H341.083C340.922 100.134 340.853 100.065 340.853 99.904V95.557H347.845V99.904ZM349.616 90.428H347.845V94.039H340.853V90.428H339.082V100.249C339.082 101.054 339.68 101.629 340.485 101.629H348.213C348.972 101.629 349.616 101.054 349.616 100.249V90.428ZM355.964 103.975H343.36C342.555 103.975 341.957 104.55 341.957 105.355V110.553C341.957 111.266 342.532 111.933 343.36 111.933H355.918C356.171 111.933 356.309 111.795 356.309 111.519V110.415H344.004C343.935 110.415 343.774 110.369 343.774 110.185V105.7C343.774 105.539 343.843 105.47 344.004 105.47H355.55C355.803 105.47 355.964 105.309 355.964 105.056V103.975ZM371.872 99.007C371.872 94.959 370.147 90.819 366.007 90.819C361.913 90.819 360.142 94.959 360.142 99.007C360.142 103.331 361.913 107.241 366.007 107.241C370.101 107.241 371.872 103.331 371.872 99.007ZM361.982 98.984C361.982 95.971 363.155 92.406 366.03 92.406C368.882 92.406 370.055 95.971 370.055 98.984C370.055 102.411 368.859 105.631 366.03 105.631C363.178 105.631 361.982 102.411 361.982 98.984ZM380.359 97.972H376.978V90.037H375.138V111.933H376.518C376.771 111.933 376.978 111.726 376.978 111.473V99.49H380.359V97.972ZM399.189 90.957H397.372V94.982H385.826V90.957H384.009V101.146C384.009 101.951 384.607 102.526 385.412 102.526H390.702V107.471H381.295V108.989H401.42C401.673 108.989 401.88 108.782 401.88 108.529V107.471H392.542V102.526H397.786C398.545 102.526 399.189 101.951 399.189 101.146V90.957ZM397.372 100.778C397.372 100.939 397.303 101.008 397.142 101.008H386.056C385.895 101.008 385.826 100.939 385.826 100.778V96.5H397.372V100.778ZM409.095 90.934H407.255V98.386C407.255 100.778 405.185 103.814 402.218 105.792L403.621 106.965C405.553 105.539 407.577 103.285 408.244 101.468C408.98 103.17 411.096 105.539 413.074 106.712L414.201 105.493C411.809 104.09 409.095 100.801 409.095 98.409V90.934ZM417.398 90.06H415.581V97.052H411.441V98.57H415.581V111.427H416.938C417.191 111.427 417.398 111.22 417.398 110.967V90.06ZM422.044 90.06H420.25V111.933H421.584C421.837 111.933 422.044 111.726 422.044 111.473V90.06ZM426.338 96.431C426.338 98.455 427.35 99.904 428.983 100.893V107.517H424.061V109.035H444.186C444.439 109.035 444.646 108.828 444.646 108.575V107.517H439.632V101.031C441.38 100.088 442.507 98.547 442.507 96.431C442.507 92.613 438.758 90.681 434.457 90.681C430.11 90.681 426.338 92.613 426.338 96.431ZM440.667 96.431C440.667 99.191 437.999 100.617 434.434 100.617C430.892 100.617 428.178 99.191 428.178 96.431C428.178 93.74 430.892 92.245 434.434 92.245C437.999 92.245 440.667 93.74 440.667 96.431ZM434.457 102.181C435.63 102.181 436.78 102.043 437.815 101.744V107.517H430.8V101.675C431.904 102.02 433.146 102.181 434.457 102.181Z" fill="#464646"/>
<defs>
<linearGradient id="paint0_linear_78_138" x1="108.76" y1="0.0322265" x2="109.191" y2="223.835" gradientUnits="userSpaceOnUse">
<stop stop-color="#FFC700"/>
<stop offset="1" stop-color="#FFC700" stop-opacity="0"/>
</linearGradient>
<clipPath id="clip0_78_138">
<rect width="349.994" height="54.7887" fill="white" transform="translate(75.2324 139.866)"/>
</clipPath>
</defs>
</svg>
