<svg width="616" height="492" viewBox="0 0 616 492" fill="none" xmlns="http://www.w3.org/2000/svg">
<path d="M26.4214 81.4801C95.5398 -34.2214 517.198 21.6408 582.281 131.605C647.364 241.57 553.219 456.053 379.072 475.793C204.925 495.533 -42.6969 197.182 26.4214 81.4801Z" fill="#FAC931" fill-opacity="0.1"/>
<path d="M73.7187 105.63C131.058 0.514315 507.326 35.4535 568.924 130.813C630.523 226.172 554.399 419.851 400.487 443.427C246.574 467.002 16.3796 210.746 73.7187 105.63Z" fill="#FAC931" fill-opacity="0.2"/>
<path d="M126.68 151.76H137.72C142.72 151.76 144.52 153.6 144.52 157.28V159.28C144.52 162.52 142.48 164.6 138.36 164.6H126.68V151.76ZM127.16 180.32C126.84 180.32 126.68 180.2 126.68 179.96V166.28H138.36C143.48 166.28 145.12 168.68 145.12 171.92V174.36C145.12 178.04 142.56 180.32 137.56 180.32H127.16ZM137.52 181.96C144.64 181.96 147.08 178.4 147.08 174.52V171.24C147.08 168.2 145.48 166.16 142.88 165.24C145.12 164.28 146.56 162.12 146.56 159.44V156.32C146.56 152.16 143.36 150.12 137.88 150.12H124.68V180.52C124.68 181.32 125.24 181.96 126.08 181.96H137.52ZM167.52 167.6C166.28 167.56 165.04 167.48 163.8 167.44C161.72 167.32 159.24 167.32 157.64 167.36C154.44 167.36 152.08 169.48 152.08 172.24V177.4C152.08 180.28 154.08 181.96 157.76 181.96L168.12 181.84C168.96 181.84 169.56 181.24 169.56 180.32V166.2C169.56 161.52 168.32 159.4 161.12 159.52C159.52 159.52 157.68 159.6 156.12 159.72C155.24 159.76 154.36 159.84 153.48 159.88V161.52C154.24 161.48 155.04 161.4 155.84 161.32C157.24 161.2 158.88 161.12 160.16 161.12H161.04C166.08 161.12 167.52 162.04 167.52 165.68V167.6ZM158.48 180.28C155.48 180.28 154.12 179.44 154.12 177.04V172.4C154.12 170.36 155.28 169.2 157.4 169.08C158.8 169.08 161.4 169.16 163.52 169.16C164.8 169.2 166.12 169.24 167.52 169.28V179.68C167.52 179.96 167.36 180.12 167.04 180.12L158.48 180.28ZM194.362 167.2C194.362 160.8 191.482 159.52 185.442 159.52L177.082 159.64C176.322 159.64 175.842 160.16 175.842 160.92V181.96H177.202C177.602 181.96 177.802 181.72 177.802 181.28V161.68C177.802 161.48 177.922 161.4 178.122 161.4L185.442 161.32C190.242 161.32 192.322 162.52 192.322 167.12V181.96H193.722C194.162 181.96 194.362 181.68 194.362 181.24V167.2ZM210.007 169L219.967 159.52H217.127L203.087 172.96V150.12H201.047V181.96H202.447C202.887 181.96 203.167 181.56 203.167 181.12V175.44L208.487 170.4L218.527 181.96H220.687C220.967 181.96 221.087 181.68 220.887 181.48L210.007 169ZM226.335 150.12V153.68H228.775V150.12H226.335ZM228.575 159.52H226.495V181.96H227.815C228.335 181.96 228.575 181.68 228.575 181.16V159.52ZM254.869 167.2C254.869 160.8 251.989 159.52 245.949 159.52L237.589 159.64C236.829 159.64 236.349 160.16 236.349 160.92V181.96H237.709C238.109 181.96 238.309 181.72 238.309 181.28V161.68C238.309 161.48 238.429 161.4 238.629 161.4L245.949 161.32C250.749 161.32 252.829 162.52 252.829 167.12V181.96H254.229C254.669 181.96 254.869 181.68 254.869 181.24V167.2ZM279.035 161.44C279.035 160.2 278.275 159.68 277.355 159.64C275.875 159.52 271.875 159.52 268.315 159.52C263.635 159.52 260.675 161.36 260.675 166.92V174.08C260.675 180.12 263.955 181.84 269.595 181.84C272.995 181.84 275.195 181.64 277.115 181.2V182.56C277.115 186.96 275.435 188.44 269.715 188.56C267.195 188.6 264.595 188.36 262.555 188V189.72C264.435 190.04 266.675 190.24 269.515 190.24C275.515 190.24 279.035 188.56 279.035 182.68V161.44ZM268.915 161.28C271.155 161.28 274.475 161.36 276.595 161.48C276.875 161.52 277.035 161.64 277.035 161.8V179.44C274.995 179.88 271.755 180.12 269.515 180.12C264.835 180.12 262.635 179.12 262.635 173.88V166.72C262.635 162.68 264.515 161.4 268.915 161.28ZM297.546 150.12V153.68H299.986V150.12H297.546ZM299.786 159.52H297.706V181.96H299.026C299.546 181.96 299.786 181.68 299.786 181.16V159.52ZM315.04 181.96C320 181.96 324.44 180.84 324.44 176.16C324.44 173.72 323.4 171.76 319.6 170.8L312.88 168.88C310.4 168.12 307.96 167.64 307.96 164.84C307.96 162.16 309.6 161.24 313.6 161.2C316.8 161.08 319.88 161.28 322.88 161.6V159.84C319.48 159.56 316.08 159.36 312.68 159.48C308.64 159.6 305.92 161.16 305.88 164.72C305.88 168.32 308.56 169.52 312 170.48L318.28 172.24C321.8 173.2 322.52 174.32 322.52 176C322.52 179.08 319.48 180.2 315.08 180.2C312.04 180.16 309.52 180 306.48 179.72V181.56C309.36 181.84 312.16 181.96 315.04 181.96ZM358.307 167.2C358.307 160.8 355.427 159.52 349.387 159.52L341.027 159.64C340.267 159.64 339.787 160.16 339.787 160.92V181.96H341.147C341.547 181.96 341.747 181.72 341.747 181.28V161.68C341.747 161.48 341.867 161.4 342.067 161.4L349.387 161.32C354.187 161.32 356.267 162.52 356.267 167.12V181.96H357.667C358.107 181.96 358.307 181.68 358.307 181.24V167.2ZM366.113 169.96V167.6C366.113 163.92 368.753 161.2 372.913 161.2H375.433C379.313 161.2 381.793 163.84 381.793 167.04V169.56C381.793 169.84 381.673 169.96 381.393 169.96H366.113ZM383.233 179.72C380.353 180.36 377.073 180.36 375.153 180.36C370.033 180.24 366.113 178.92 366.113 173.4V171.64H381.273C382.593 171.64 383.753 170.6 383.753 169.16V166.8C383.753 162.52 379.713 159.52 375.793 159.52H372.913C367.673 159.52 364.113 163.36 364.113 167.52V173.24C364.113 179.8 368.873 182.04 375.273 182.04C377.673 182.04 380.313 182 382.393 181.56C382.953 181.48 383.233 181.2 383.233 180.68V179.72ZM405.875 180.08C404.075 180.2 400.355 180.24 398.115 180.24C393.595 180.24 390.955 177.64 390.955 173.64V168.6C390.955 164.52 392.635 161.32 398.475 161.2C400.995 161.16 403.355 161.32 405.755 161.52V159.8C403.395 159.52 400.995 159.48 398.315 159.52C391.475 159.64 388.995 163.76 388.995 168.68V173.44C388.995 179.04 392.675 181.84 398.235 181.96C400.515 182 402.795 181.96 405.075 181.84C405.595 181.84 405.875 181.56 405.875 181V180.08ZM412.011 169.96V167.6C412.011 163.92 414.651 161.2 418.811 161.2H421.331C425.211 161.2 427.691 163.84 427.691 167.04V169.56C427.691 169.84 427.571 169.96 427.291 169.96H412.011ZM429.131 179.72C426.251 180.36 422.971 180.36 421.051 180.36C415.931 180.24 412.011 178.92 412.011 173.4V171.64H427.171C428.491 171.64 429.651 170.6 429.651 169.16V166.8C429.651 162.52 425.611 159.52 421.691 159.52H418.811C413.571 159.52 410.011 163.36 410.011 167.52V173.24C410.011 179.8 414.771 182.04 421.171 182.04C423.571 182.04 426.211 182 428.291 181.56C428.851 181.48 429.131 181.2 429.131 180.68V179.72ZM442.814 181.96C447.774 181.96 452.214 180.84 452.214 176.16C452.214 173.72 451.174 171.76 447.374 170.8L440.654 168.88C438.174 168.12 435.734 167.64 435.734 164.84C435.734 162.16 437.374 161.24 441.374 161.2C444.574 161.08 447.654 161.28 450.654 161.6V159.84C447.254 159.56 443.854 159.36 440.454 159.48C436.414 159.6 433.694 161.16 433.654 164.72C433.654 168.32 436.334 169.52 439.774 170.48L446.054 172.24C449.574 173.2 450.294 174.32 450.294 176C450.294 179.08 447.254 180.2 442.854 180.2C439.814 180.16 437.294 180 434.254 179.72V181.56C437.134 181.84 439.934 181.96 442.814 181.96ZM464.259 181.96C469.219 181.96 473.659 180.84 473.659 176.16C473.659 173.72 472.619 171.76 468.819 170.8L462.099 168.88C459.619 168.12 457.179 167.64 457.179 164.84C457.179 162.16 458.819 161.24 462.819 161.2C466.019 161.08 469.099 161.28 472.099 161.6V159.84C468.699 159.56 465.299 159.36 461.899 159.48C457.859 159.6 455.139 161.16 455.099 164.72C455.099 168.32 457.779 169.52 461.219 170.48L467.499 172.24C471.019 173.2 471.739 174.32 471.739 176C471.739 179.08 468.699 180.2 464.299 180.2C461.259 180.16 458.739 180 455.699 179.72V181.56C458.579 181.84 461.379 181.96 464.259 181.96ZM493.184 167.6C491.944 167.56 490.704 167.48 489.464 167.44C487.384 167.32 484.904 167.32 483.304 167.36C480.104 167.36 477.744 169.48 477.744 172.24V177.4C477.744 180.28 479.744 181.96 483.424 181.96L493.784 181.84C494.624 181.84 495.224 181.24 495.224 180.32V166.2C495.224 161.52 493.984 159.4 486.784 159.52C485.184 159.52 483.344 159.6 481.784 159.72C480.904 159.76 480.024 159.84 479.144 159.88V161.52C479.904 161.48 480.704 161.4 481.504 161.32C482.904 161.2 484.544 161.12 485.824 161.12H486.704C491.744 161.12 493.184 162.04 493.184 165.68V167.6ZM484.144 180.28C481.144 180.28 479.784 179.44 479.784 177.04V172.4C479.784 170.36 480.944 169.2 483.064 169.08C484.464 169.08 487.064 169.16 489.184 169.16C490.464 169.2 491.784 169.24 493.184 169.28V179.68C493.184 179.96 493.024 180.12 492.704 180.12L484.144 180.28ZM502.186 181.96C502.786 181.96 503.226 181.48 503.226 180.84V167.64C503.226 164.24 504.706 161.24 508.626 161.24H514.506V159.52H508.706C503.146 159.52 501.266 163.64 501.266 167.28V181.96H502.186ZM520.563 189.36C522.243 189.56 523.083 189.72 525.443 189.72C529.683 189.84 535.323 190.04 536.683 185.4C537.003 184.28 537.083 182.48 537.083 180.88V159.52H535.003V179.2C532.243 179.52 529.083 179.6 526.243 179.6C523.403 179.6 520.883 178.72 520.883 173.96V159.52H518.883V173.88C518.883 179.4 521.963 181.48 526.003 181.48C529.363 181.48 532.163 181.32 535.163 181.04V183C535.163 185.72 533.323 187.56 530.003 187.84C526.803 188.12 523.123 187.88 520.563 187.6V189.36ZM544.05 186C544.25 186 544.29 185.84 544.41 185.72L546.01 182.4C546.13 182.12 546.21 181.72 546.21 181.44V178.2H543.69V185.72C543.69 185.92 543.77 186 543.89 186H544.05ZM169.805 199.76H180.845C185.845 199.76 187.645 201.6 187.645 205.28V207.28C187.645 210.52 185.605 212.6 181.485 212.6H169.805V199.76ZM170.285 228.32C169.965 228.32 169.805 228.2 169.805 227.96V214.28H181.485C186.605 214.28 188.245 216.68 188.245 219.92V222.36C188.245 226.04 185.685 228.32 180.685 228.32H170.285ZM180.645 229.96C187.765 229.96 190.205 226.4 190.205 222.52V219.24C190.205 216.2 188.605 214.16 186.005 213.24C188.245 212.28 189.685 210.12 189.685 207.44V204.32C189.685 200.16 186.485 198.12 181.005 198.12H167.805V228.52C167.805 229.32 168.365 229.96 169.205 229.96H180.645ZM210.645 215.6C209.405 215.56 208.165 215.48 206.925 215.44C204.845 215.32 202.365 215.32 200.765 215.36C197.565 215.36 195.205 217.48 195.205 220.24V225.4C195.205 228.28 197.205 229.96 200.885 229.96L211.245 229.84C212.085 229.84 212.685 229.24 212.685 228.32V214.2C212.685 209.52 211.445 207.4 204.245 207.52C202.645 207.52 200.805 207.6 199.245 207.72C198.365 207.76 197.485 207.84 196.605 207.88V209.52C197.365 209.48 198.165 209.4 198.965 209.32C200.365 209.2 202.005 209.12 203.285 209.12H204.165C209.205 209.12 210.645 210.04 210.645 213.68V215.6ZM201.605 228.28C198.605 228.28 197.245 227.44 197.245 225.04V220.4C197.245 218.36 198.405 217.2 200.525 217.08C201.925 217.08 204.525 217.16 206.645 217.16C207.925 217.2 209.245 217.24 210.645 217.28V227.68C210.645 227.96 210.485 228.12 210.165 228.12L201.605 228.28ZM237.487 215.2C237.487 208.8 234.607 207.52 228.567 207.52L220.207 207.64C219.447 207.64 218.967 208.16 218.967 208.92V229.96H220.327C220.727 229.96 220.927 229.72 220.927 229.28V209.68C220.927 209.48 221.047 209.4 221.247 209.4L228.567 209.32C233.367 209.32 235.447 210.52 235.447 215.12V229.96H236.847C237.287 229.96 237.487 229.68 237.487 229.24V215.2ZM253.132 217L263.092 207.52H260.252L246.212 220.96V198.12H244.172V229.96H245.572C246.012 229.96 246.292 229.56 246.292 229.12V223.44L251.612 218.4L261.652 229.96H263.812C264.092 229.96 264.212 229.68 264.012 229.48L253.132 217ZM275.9 229.96C280.86 229.96 285.3 228.84 285.3 224.16C285.3 221.72 284.26 219.76 280.46 218.8L273.74 216.88C271.26 216.12 268.82 215.64 268.82 212.84C268.82 210.16 270.46 209.24 274.46 209.2C277.66 209.08 280.74 209.28 283.74 209.6V207.84C280.34 207.56 276.94 207.36 273.54 207.48C269.5 207.6 266.78 209.16 266.74 212.72C266.74 216.32 269.42 217.52 272.86 218.48L279.14 220.24C282.66 221.2 283.38 222.32 283.38 224C283.38 227.08 280.34 228.2 275.94 228.2C272.9 228.16 270.38 228 267.34 227.72V229.56C270.22 229.84 273.02 229.96 275.9 229.96ZM315.606 215.6C314.366 215.56 313.126 215.48 311.886 215.44C309.806 215.32 307.326 215.32 305.726 215.36C302.526 215.36 300.166 217.48 300.166 220.24V225.4C300.166 228.28 302.166 229.96 305.846 229.96L316.206 229.84C317.046 229.84 317.646 229.24 317.646 228.32V214.2C317.646 209.52 316.406 207.4 309.206 207.52C307.606 207.52 305.766 207.6 304.206 207.72C303.326 207.76 302.446 207.84 301.566 207.88V209.52C302.326 209.48 303.126 209.4 303.926 209.32C305.326 209.2 306.966 209.12 308.246 209.12H309.126C314.166 209.12 315.606 210.04 315.606 213.68V215.6ZM306.566 228.28C303.566 228.28 302.206 227.44 302.206 225.04V220.4C302.206 218.36 303.366 217.2 305.486 217.08C306.886 217.08 309.486 217.16 311.606 217.16C312.886 217.2 314.206 217.24 315.606 217.28V227.68C315.606 227.96 315.446 228.12 315.126 228.12L306.566 228.28ZM324.608 229.96C325.208 229.96 325.648 229.48 325.648 228.84V215.64C325.648 212.24 327.128 209.24 331.048 209.24H336.928V207.52H331.128C325.568 207.52 323.688 211.64 323.688 215.28V229.96H324.608ZM343.105 217.96V215.6C343.105 211.92 345.745 209.2 349.905 209.2H352.425C356.305 209.2 358.785 211.84 358.785 215.04V217.56C358.785 217.84 358.665 217.96 358.385 217.96H343.105ZM360.225 227.72C357.345 228.36 354.065 228.36 352.145 228.36C347.025 228.24 343.105 226.92 343.105 221.4V219.64H358.265C359.585 219.64 360.745 218.6 360.745 217.16V214.8C360.745 210.52 356.705 207.52 352.785 207.52H349.905C344.665 207.52 341.105 211.36 341.105 215.52V221.24C341.105 227.8 345.865 230.04 352.265 230.04C354.665 230.04 357.305 230 359.385 229.56C359.945 229.48 360.225 229.2 360.225 228.68V227.72ZM395.729 215.2C395.729 208.8 392.849 207.52 386.809 207.52L378.449 207.64C377.689 207.64 377.209 208.16 377.209 208.92V229.96H378.569C378.969 229.96 379.169 229.72 379.169 229.28V209.68C379.169 209.48 379.289 209.4 379.489 209.4L386.809 209.32C391.609 209.32 393.689 210.52 393.689 215.12V229.96H395.089C395.529 229.96 395.729 229.68 395.729 229.24V215.2ZM409.894 228.24C406.294 228.24 403.334 225.8 403.334 221.76V216C403.334 212 405.694 209.24 409.534 209.24H413.134C416.814 209.24 419.134 211.84 419.134 216.16V221.2C419.134 225.64 416.814 228.24 412.814 228.24H409.894ZM413.334 229.96C417.774 229.96 421.174 226.64 421.174 221.4V216.12C421.174 211.16 418.334 207.48 413.334 207.48H409.294C404.374 207.48 401.254 211.28 401.254 216.12V221.6C401.254 226.68 405.174 229.96 409.614 229.96H413.334ZM437.816 207.52H431.176V200.48H429.176V207.52H424.656V209.28H429.176V225.04C429.176 228.24 430.856 229.92 434.336 229.92H438.616C439.056 229.92 439.456 229.56 439.456 229.12V228.24H434.576C432.216 228.24 431.176 227.52 431.176 224.44V209.28H437.256C437.616 209.28 437.816 209.08 437.816 208.68V207.52Z" fill="black"/>
<path d="M310.54 310.088H298.388V311.32H309.98C310.288 311.32 310.54 311.068 310.54 310.76V310.088ZM325.417 300.932H333.145C336.645 300.932 337.905 302.22 337.905 304.796V306.196C337.905 308.464 336.477 309.92 333.593 309.92H325.417V300.932ZM325.753 320.924C325.529 320.924 325.417 320.84 325.417 320.672V311.096H333.593C337.177 311.096 338.325 312.776 338.325 315.044V316.752C338.325 319.328 336.533 320.924 333.033 320.924H325.753ZM333.005 322.072C337.989 322.072 339.697 319.58 339.697 316.864V314.568C339.697 312.44 338.577 311.012 336.757 310.368C338.325 309.696 339.333 308.184 339.333 306.308V304.124C339.333 301.212 337.093 299.784 333.257 299.784H324.017V321.064C324.017 321.624 324.409 322.072 324.997 322.072H333.005ZM344.262 299.784V302.276H345.97V299.784H344.262ZM345.83 306.364H344.374V322.072H345.298C345.662 322.072 345.83 321.876 345.83 321.512V306.364ZM353.624 299.784H352.168V322.072H353.036C353.344 322.072 353.624 321.764 353.624 321.344V299.784ZM361.444 299.784H359.988V322.072H360.856C361.164 322.072 361.444 321.764 361.444 321.344V299.784ZM382.775 310.284V311.404H389.103C389.299 311.404 389.383 311.488 389.383 311.684V317.312C389.383 319.664 387.843 320.84 385.687 320.84H382.271C378.743 320.84 375.831 319.412 375.831 314.4V307.036C375.831 303.592 377.847 301.184 381.627 300.96C384.427 300.764 387.339 300.96 390.139 301.324V300.12C387.339 299.784 384.567 299.616 381.767 299.756C377.427 299.98 374.375 302.556 374.375 306.952V314.176C374.347 319.188 377.063 322.072 382.019 322.072H385.827C388.291 322.072 390.671 320.616 390.671 317.34V311.852C390.671 310.844 389.943 310.284 388.963 310.284H382.775ZM405.385 312.02C404.517 311.992 403.649 311.936 402.781 311.908C401.325 311.824 399.589 311.824 398.469 311.852C396.229 311.852 394.577 313.336 394.577 315.268V318.88C394.577 320.896 395.977 322.072 398.553 322.072L405.805 321.988C406.393 321.988 406.813 321.568 406.813 320.924V311.04C406.813 307.764 405.945 306.28 400.905 306.364C399.785 306.364 398.497 306.42 397.405 306.504C396.789 306.532 396.173 306.588 395.557 306.616V307.764C396.089 307.736 396.649 307.68 397.209 307.624C398.189 307.54 399.337 307.484 400.233 307.484H400.849C404.377 307.484 405.385 308.128 405.385 310.676V312.02ZM399.057 320.896C396.957 320.896 396.005 320.308 396.005 318.628V315.38C396.005 313.952 396.817 313.14 398.301 313.056C399.281 313.056 401.101 313.112 402.585 313.112C403.481 313.14 404.405 313.168 405.385 313.196V320.476C405.385 320.672 405.273 320.784 405.049 320.784L399.057 320.896ZM418.853 306.364H414.205V301.436H412.805V306.364H409.641V307.596H412.805V318.628C412.805 320.868 413.981 322.044 416.417 322.044H419.413C419.721 322.044 420.001 321.792 420.001 321.484V320.868H416.585C414.933 320.868 414.205 320.364 414.205 318.208V307.596H418.461C418.713 307.596 418.853 307.456 418.853 307.176V306.364ZM423.813 313.672V312.02C423.813 309.444 425.661 307.54 428.573 307.54H430.337C433.053 307.54 434.789 309.388 434.789 311.628V313.392C434.789 313.588 434.705 313.672 434.509 313.672H423.813ZM435.797 320.504C433.781 320.952 431.485 320.952 430.141 320.952C426.557 320.868 423.813 319.944 423.813 316.08V314.848H434.425C435.349 314.848 436.161 314.12 436.161 313.112V311.46C436.161 308.464 433.333 306.364 430.589 306.364H428.573C424.905 306.364 422.413 309.052 422.413 311.964V315.968C422.413 320.56 425.745 322.128 430.225 322.128C431.905 322.128 433.753 322.1 435.209 321.792C435.601 321.736 435.797 321.54 435.797 321.176V320.504ZM445.375 322.072C448.847 322.072 451.955 321.288 451.955 318.012C451.955 316.304 451.227 314.932 448.567 314.26L443.863 312.916C442.127 312.384 440.419 312.048 440.419 310.088C440.419 308.212 441.567 307.568 444.367 307.54C446.607 307.456 448.763 307.596 450.863 307.82V306.588C448.483 306.392 446.103 306.252 443.723 306.336C440.895 306.42 438.991 307.512 438.963 310.004C438.963 312.524 440.839 313.364 443.247 314.036L447.643 315.268C450.107 315.94 450.611 316.724 450.611 317.9C450.611 320.056 448.483 320.84 445.403 320.84C443.275 320.812 441.511 320.7 439.383 320.504V321.792C441.399 321.988 443.359 322.072 445.375 322.072ZM475.97 310.088H463.818V311.32H475.41C475.718 311.32 475.97 311.068 475.97 310.76V310.088Z" fill="black"/>
</svg>
