<svg width="842" height="526" viewBox="0 0 842 526" fill="none" xmlns="http://www.w3.org/2000/svg">
<path d="M319.231 457.357C382.208 559.279 756.261 504.009 812.647 405.399C869.032 306.789 782.494 117.396 627.438 102.169C472.382 86.9425 256.253 355.435 319.231 457.357Z" fill="#FAE631" fill-opacity="0.15"/>
<path d="M376.184 431.126C425.948 519.191 743.337 484.916 794.161 403.587C844.986 322.258 778.234 159.622 647.926 141.656C517.619 123.69 326.419 343.061 376.184 431.126Z" fill="url(#paint0_linear_78_261)" fill-opacity="0.22"/>
<path d="M540.025 216.398H551.617C556.867 216.398 558.757 218.33 558.757 222.194V224.294C558.757 227.696 556.615 229.88 552.289 229.88H540.025V216.398ZM540.529 246.386C540.193 246.386 540.025 246.26 540.025 246.008V231.644H552.289C557.665 231.644 559.387 234.164 559.387 237.566V240.128C559.387 243.992 556.699 246.386 551.449 246.386H540.529ZM551.407 248.108C558.883 248.108 561.445 244.37 561.445 240.296V236.852C561.445 233.66 559.765 231.518 557.035 230.552C559.387 229.544 560.899 227.276 560.899 224.462V221.186C560.899 216.818 557.539 214.676 551.785 214.676H537.925V246.596C537.925 247.436 538.513 248.108 539.395 248.108H551.407ZM582.907 233.03C581.605 232.988 580.303 232.904 579.001 232.862C576.817 232.736 574.213 232.736 572.533 232.778C569.173 232.778 566.695 235.004 566.695 237.902V243.32C566.695 246.344 568.795 248.108 572.659 248.108L583.537 247.982C584.419 247.982 585.049 247.352 585.049 246.386V231.56C585.049 226.646 583.747 224.42 576.187 224.546C574.507 224.546 572.575 224.63 570.937 224.756C570.013 224.798 569.089 224.882 568.165 224.924V226.646C568.963 226.604 569.803 226.52 570.643 226.436C572.113 226.31 573.835 226.226 575.179 226.226H576.103C581.395 226.226 582.907 227.192 582.907 231.014V233.03ZM573.415 246.344C570.265 246.344 568.837 245.462 568.837 242.942V238.07C568.837 235.928 570.055 234.71 572.281 234.584C573.751 234.584 576.481 234.668 578.707 234.668C580.051 234.71 581.437 234.752 582.907 234.794V245.714C582.907 246.008 582.739 246.176 582.403 246.176L573.415 246.344ZM611.09 232.61C611.09 225.89 608.066 224.546 601.724 224.546L592.946 224.672C592.148 224.672 591.644 225.218 591.644 226.016V248.108H593.072C593.492 248.108 593.702 247.856 593.702 247.394V226.814C593.702 226.604 593.828 226.52 594.038 226.52L601.724 226.436C606.764 226.436 608.948 227.696 608.948 232.526V248.108H610.418C610.88 248.108 611.09 247.814 611.09 247.352V232.61ZM627.518 234.5L637.976 224.546H634.994L620.252 238.658V214.676H618.11V248.108H619.58C620.042 248.108 620.336 247.688 620.336 247.226V241.262L625.922 235.97L636.464 248.108H638.732C639.026 248.108 639.152 247.814 638.942 247.604L627.518 234.5ZM644.662 214.676V218.414H647.224V214.676H644.662ZM647.014 224.546H644.83V248.108H646.216C646.762 248.108 647.014 247.814 647.014 247.268V224.546ZM674.623 232.61C674.623 225.89 671.599 224.546 665.257 224.546L656.479 224.672C655.681 224.672 655.177 225.218 655.177 226.016V248.108H656.605C657.025 248.108 657.235 247.856 657.235 247.394V226.814C657.235 226.604 657.361 226.52 657.571 226.52L665.257 226.436C670.297 226.436 672.481 227.696 672.481 232.526V248.108H673.951C674.413 248.108 674.623 247.814 674.623 247.352V232.61ZM699.997 226.562C699.997 225.26 699.199 224.714 698.233 224.672C696.679 224.546 692.479 224.546 688.741 224.546C683.827 224.546 680.719 226.478 680.719 232.316V239.834C680.719 246.176 684.163 247.982 690.085 247.982C693.655 247.982 695.965 247.772 697.981 247.31V248.738C697.981 253.358 696.217 254.912 690.211 255.038C687.565 255.08 684.835 254.828 682.693 254.45V256.256C684.667 256.592 687.019 256.802 690.001 256.802C696.301 256.802 699.997 255.038 699.997 248.864V226.562ZM689.371 226.394C691.723 226.394 695.209 226.478 697.435 226.604C697.729 226.646 697.897 226.772 697.897 226.94V245.462C695.755 245.924 692.353 246.176 690.001 246.176C685.087 246.176 682.777 245.126 682.777 239.624V232.106C682.777 227.864 684.751 226.52 689.371 226.394ZM488.721 268.676V272.414H491.283V268.676H488.721ZM491.073 278.546H488.889V302.108H490.275C490.821 302.108 491.073 301.814 491.073 301.268V278.546ZM507.09 302.108C512.298 302.108 516.96 300.932 516.96 296.018C516.96 293.456 515.868 291.398 511.878 290.39L504.822 288.374C502.218 287.576 499.656 287.072 499.656 284.132C499.656 281.318 501.378 280.352 505.578 280.31C508.938 280.184 512.172 280.394 515.322 280.73V278.882C511.752 278.588 508.182 278.378 504.612 278.504C500.37 278.63 497.514 280.268 497.472 284.006C497.472 287.786 500.286 289.046 503.898 290.054L510.492 291.902C514.188 292.91 514.944 294.086 514.944 295.85C514.944 299.084 511.752 300.26 507.132 300.26C503.94 300.218 501.294 300.05 498.102 299.756V301.688C501.126 301.982 504.066 302.108 507.09 302.108ZM552.52 286.61C552.52 279.89 549.496 278.546 543.154 278.546L534.376 278.672C533.578 278.672 533.074 279.218 533.074 280.016V302.108H534.502C534.922 302.108 535.132 301.856 535.132 301.394V280.814C535.132 280.604 535.258 280.52 535.468 280.52L543.154 280.436C548.194 280.436 550.378 281.696 550.378 286.526V302.108H551.848C552.31 302.108 552.52 301.814 552.52 301.352V286.61ZM560.716 289.508V287.03C560.716 283.166 563.488 280.31 567.856 280.31H570.502C574.576 280.31 577.18 283.082 577.18 286.442V289.088C577.18 289.382 577.054 289.508 576.76 289.508H560.716ZM578.692 299.756C575.668 300.428 572.224 300.428 570.208 300.428C564.832 300.302 560.716 298.916 560.716 293.12V291.272H576.634C578.02 291.272 579.238 290.18 579.238 288.668V286.19C579.238 281.696 574.996 278.546 570.88 278.546H567.856C562.354 278.546 558.616 282.578 558.616 286.946V292.952C558.616 299.84 563.614 302.192 570.334 302.192C572.854 302.192 575.626 302.15 577.81 301.688C578.398 301.604 578.692 301.31 578.692 300.764V299.756ZM602.467 300.134C600.577 300.26 596.671 300.302 594.319 300.302C589.573 300.302 586.801 297.572 586.801 293.372V288.08C586.801 283.796 588.565 280.436 594.697 280.31C597.343 280.268 599.821 280.436 602.341 280.646V278.84C599.863 278.546 597.343 278.504 594.529 278.546C587.347 278.672 584.743 282.998 584.743 288.164V293.162C584.743 299.042 588.607 301.982 594.445 302.108C596.839 302.15 599.233 302.108 601.627 301.982C602.173 301.982 602.467 301.688 602.467 301.1V300.134ZM608.909 289.508V287.03C608.909 283.166 611.681 280.31 616.049 280.31H618.695C622.769 280.31 625.373 283.082 625.373 286.442V289.088C625.373 289.382 625.247 289.508 624.953 289.508H608.909ZM626.885 299.756C623.861 300.428 620.417 300.428 618.401 300.428C613.025 300.302 608.909 298.916 608.909 293.12V291.272H624.827C626.213 291.272 627.431 290.18 627.431 288.668V286.19C627.431 281.696 623.189 278.546 619.073 278.546H616.049C610.547 278.546 606.809 282.578 606.809 286.946V292.952C606.809 299.84 611.807 302.192 618.527 302.192C621.047 302.192 623.819 302.15 626.003 301.688C626.591 301.604 626.885 301.31 626.885 300.764V299.756ZM641.252 302.108C646.46 302.108 651.122 300.932 651.122 296.018C651.122 293.456 650.03 291.398 646.04 290.39L638.984 288.374C636.38 287.576 633.818 287.072 633.818 284.132C633.818 281.318 635.54 280.352 639.74 280.31C643.1 280.184 646.334 280.394 649.484 280.73V278.882C645.914 278.588 642.344 278.378 638.774 278.504C634.532 278.63 631.676 280.268 631.634 284.006C631.634 287.786 634.448 289.046 638.06 290.054L644.654 291.902C648.35 292.91 649.106 294.086 649.106 295.85C649.106 299.084 645.914 300.26 641.294 300.26C638.102 300.218 635.456 300.05 632.264 299.756V301.688C635.288 301.982 638.228 302.108 641.252 302.108ZM663.77 302.108C668.978 302.108 673.64 300.932 673.64 296.018C673.64 293.456 672.548 291.398 668.558 290.39L661.502 288.374C658.898 287.576 656.336 287.072 656.336 284.132C656.336 281.318 658.058 280.352 662.258 280.31C665.618 280.184 668.852 280.394 672.002 280.73V278.882C668.432 278.588 664.862 278.378 661.292 278.504C657.05 278.63 654.194 280.268 654.152 284.006C654.152 287.786 656.966 289.046 660.578 290.054L667.172 291.902C670.868 292.91 671.624 294.086 671.624 295.85C671.624 299.084 668.432 300.26 663.812 300.26C660.62 300.218 657.974 300.05 654.782 299.756V301.688C657.806 301.982 660.746 302.108 663.77 302.108ZM694.141 287.03C692.839 286.988 691.537 286.904 690.235 286.862C688.051 286.736 685.447 286.736 683.767 286.778C680.407 286.778 677.929 289.004 677.929 291.902V297.32C677.929 300.344 680.029 302.108 683.893 302.108L694.771 301.982C695.653 301.982 696.283 301.352 696.283 300.386V285.56C696.283 280.646 694.981 278.42 687.421 278.546C685.741 278.546 683.809 278.63 682.171 278.756C681.247 278.798 680.323 278.882 679.399 278.924V280.646C680.197 280.604 681.037 280.52 681.877 280.436C683.347 280.31 685.069 280.226 686.413 280.226H687.337C692.629 280.226 694.141 281.192 694.141 285.014V287.03ZM684.649 300.344C681.499 300.344 680.071 299.462 680.071 296.942V292.07C680.071 289.928 681.289 288.71 683.515 288.584C684.985 288.584 687.715 288.668 689.941 288.668C691.285 288.71 692.671 288.752 694.141 288.794V299.714C694.141 300.008 693.973 300.176 693.637 300.176L684.649 300.344ZM703.593 302.108C704.223 302.108 704.685 301.604 704.685 300.932V287.072C704.685 283.502 706.239 280.352 710.355 280.352H716.529V278.546H710.439C704.601 278.546 702.627 282.872 702.627 286.694V302.108H703.593ZM722.889 309.878C724.653 310.088 725.535 310.256 728.013 310.256C732.465 310.382 738.387 310.592 739.815 305.72C740.151 304.544 740.235 302.654 740.235 300.974V278.546H738.051V299.21C735.153 299.546 731.835 299.63 728.853 299.63C725.871 299.63 723.225 298.706 723.225 293.708V278.546H721.125V293.624C721.125 299.42 724.359 301.604 728.601 301.604C732.129 301.604 735.069 301.436 738.219 301.142V303.2C738.219 306.056 736.287 307.988 732.801 308.282C729.441 308.576 725.577 308.324 722.889 308.03V309.878ZM747.55 306.35C747.76 306.35 747.802 306.182 747.928 306.056L749.608 302.57C749.734 302.276 749.818 301.856 749.818 301.562V298.16H747.172V306.056C747.172 306.266 747.256 306.35 747.382 306.35H747.55ZM468.165 324.398H479.757C485.007 324.398 486.897 326.33 486.897 330.194V332.294C486.897 335.696 484.755 337.88 480.429 337.88H468.165V324.398ZM468.669 354.386C468.333 354.386 468.165 354.26 468.165 354.008V339.644H480.429C485.805 339.644 487.527 342.164 487.527 345.566V348.128C487.527 351.992 484.839 354.386 479.589 354.386H468.669ZM479.547 356.108C487.023 356.108 489.585 352.37 489.585 348.296V344.852C489.585 341.66 487.905 339.518 485.175 338.552C487.527 337.544 489.039 335.276 489.039 332.462V329.186C489.039 324.818 485.679 322.676 479.925 322.676H466.065V354.596C466.065 355.436 466.653 356.108 467.535 356.108H479.547ZM511.048 341.03C509.746 340.988 508.444 340.904 507.142 340.862C504.958 340.736 502.354 340.736 500.674 340.778C497.314 340.778 494.836 343.004 494.836 345.902V351.32C494.836 354.344 496.936 356.108 500.8 356.108L511.678 355.982C512.56 355.982 513.19 355.352 513.19 354.386V339.56C513.19 334.646 511.888 332.42 504.328 332.546C502.648 332.546 500.716 332.63 499.078 332.756C498.154 332.798 497.23 332.882 496.306 332.924V334.646C497.104 334.604 497.944 334.52 498.784 334.436C500.254 334.31 501.976 334.226 503.32 334.226H504.244C509.536 334.226 511.048 335.192 511.048 339.014V341.03ZM501.556 354.344C498.406 354.344 496.978 353.462 496.978 350.942V346.07C496.978 343.928 498.196 342.71 500.422 342.584C501.892 342.584 504.622 342.668 506.848 342.668C508.192 342.71 509.578 342.752 511.048 342.794V353.714C511.048 354.008 510.88 354.176 510.544 354.176L501.556 354.344ZM539.231 340.61C539.231 333.89 536.207 332.546 529.865 332.546L521.087 332.672C520.289 332.672 519.785 333.218 519.785 334.016V356.108H521.213C521.633 356.108 521.843 355.856 521.843 355.394V334.814C521.843 334.604 521.969 334.52 522.179 334.52L529.865 334.436C534.905 334.436 537.089 335.696 537.089 340.526V356.108H538.559C539.021 356.108 539.231 355.814 539.231 355.352V340.61ZM555.659 342.5L566.117 332.546H563.135L548.393 346.658V322.676H546.251V356.108H547.721C548.183 356.108 548.477 355.688 548.477 355.226V349.262L554.063 343.97L564.605 356.108H566.873C567.167 356.108 567.293 355.814 567.083 355.604L555.659 342.5ZM579.565 356.108C584.773 356.108 589.435 354.932 589.435 350.018C589.435 347.456 588.343 345.398 584.353 344.39L577.297 342.374C574.693 341.576 572.131 341.072 572.131 338.132C572.131 335.318 573.853 334.352 578.053 334.31C581.413 334.184 584.647 334.394 587.797 334.73V332.882C584.227 332.588 580.657 332.378 577.087 332.504C572.845 332.63 569.989 334.268 569.947 338.006C569.947 341.786 572.761 343.046 576.373 344.054L582.967 345.902C586.663 346.91 587.419 348.086 587.419 349.85C587.419 353.084 584.227 354.26 579.607 354.26C576.415 354.218 573.769 354.05 570.577 353.756V355.688C573.601 355.982 576.541 356.108 579.565 356.108ZM621.256 341.03C619.954 340.988 618.652 340.904 617.35 340.862C615.166 340.736 612.562 340.736 610.882 340.778C607.522 340.778 605.044 343.004 605.044 345.902V351.32C605.044 354.344 607.144 356.108 611.008 356.108L621.886 355.982C622.768 355.982 623.398 355.352 623.398 354.386V339.56C623.398 334.646 622.096 332.42 614.536 332.546C612.856 332.546 610.924 332.63 609.286 332.756C608.362 332.798 607.438 332.882 606.514 332.924V334.646C607.312 334.604 608.152 334.52 608.992 334.436C610.462 334.31 612.184 334.226 613.528 334.226H614.452C619.744 334.226 621.256 335.192 621.256 339.014V341.03ZM611.764 354.344C608.614 354.344 607.186 353.462 607.186 350.942V346.07C607.186 343.928 608.404 342.71 610.63 342.584C612.1 342.584 614.83 342.668 617.056 342.668C618.4 342.71 619.786 342.752 621.256 342.794V353.714C621.256 354.008 621.088 354.176 620.752 354.176L611.764 354.344ZM630.708 356.108C631.338 356.108 631.8 355.604 631.8 354.932V341.072C631.8 337.502 633.354 334.352 637.47 334.352H643.644V332.546H637.554C631.716 332.546 629.742 336.872 629.742 340.694V356.108H630.708ZM650.13 343.508V341.03C650.13 337.166 652.902 334.31 657.27 334.31H659.916C663.99 334.31 666.594 337.082 666.594 340.442V343.088C666.594 343.382 666.468 343.508 666.174 343.508H650.13ZM668.106 353.756C665.082 354.428 661.638 354.428 659.622 354.428C654.246 354.302 650.13 352.916 650.13 347.12V345.272H666.048C667.434 345.272 668.652 344.18 668.652 342.668V340.19C668.652 335.696 664.41 332.546 660.294 332.546H657.27C651.768 332.546 648.03 336.578 648.03 340.946V346.952C648.03 353.84 653.028 356.192 659.748 356.192C662.268 356.192 665.04 356.15 667.224 355.688C667.812 355.604 668.106 355.31 668.106 354.764V353.756ZM705.385 340.61C705.385 333.89 702.361 332.546 696.019 332.546L687.241 332.672C686.443 332.672 685.939 333.218 685.939 334.016V356.108H687.367C687.787 356.108 687.997 355.856 687.997 355.394V334.814C687.997 334.604 688.123 334.52 688.333 334.52L696.019 334.436C701.059 334.436 703.243 335.696 703.243 340.526V356.108H704.713C705.175 356.108 705.385 355.814 705.385 355.352V340.61ZM720.259 354.302C716.479 354.302 713.371 351.74 713.371 347.498V341.45C713.371 337.25 715.849 334.352 719.881 334.352H723.661C727.525 334.352 729.961 337.082 729.961 341.618V346.91C729.961 351.572 727.525 354.302 723.325 354.302H720.259ZM723.871 356.108C728.533 356.108 732.103 352.622 732.103 347.12V341.576C732.103 336.368 729.121 332.504 723.871 332.504H719.629C714.463 332.504 711.187 336.494 711.187 341.576V347.33C711.187 352.664 715.303 356.108 719.965 356.108H723.871ZM749.577 332.546H742.605V325.154H740.505V332.546H735.759V334.394H740.505V350.942C740.505 354.302 742.269 356.066 745.923 356.066H750.417C750.879 356.066 751.299 355.688 751.299 355.226V354.302H746.175C743.697 354.302 742.605 353.546 742.605 350.312V334.394H748.989C749.367 334.394 749.577 334.184 749.577 333.764V332.546ZM755.127 352.37V355.73H757.941V352.37H755.127Z" fill="#6C5605"/>
<path d="M530.54 419.088H518.388V420.32H529.98C530.288 420.32 530.54 420.068 530.54 419.76V419.088ZM545.417 409.932H553.145C556.645 409.932 557.905 411.22 557.905 413.796V415.196C557.905 417.464 556.477 418.92 553.593 418.92H545.417V409.932ZM545.753 429.924C545.529 429.924 545.417 429.84 545.417 429.672V420.096H553.593C557.177 420.096 558.325 421.776 558.325 424.044V425.752C558.325 428.328 556.533 429.924 553.033 429.924H545.753ZM553.005 431.072C557.989 431.072 559.697 428.58 559.697 425.864V423.568C559.697 421.44 558.577 420.012 556.757 419.368C558.325 418.696 559.333 417.184 559.333 415.308V413.124C559.333 410.212 557.093 408.784 553.257 408.784H544.017V430.064C544.017 430.624 544.409 431.072 544.997 431.072H553.005ZM564.262 408.784V411.276H565.97V408.784H564.262ZM565.83 415.364H564.374V431.072H565.298C565.662 431.072 565.83 430.876 565.83 430.512V415.364ZM573.624 408.784H572.168V431.072H573.036C573.344 431.072 573.624 430.764 573.624 430.344V408.784ZM581.444 408.784H579.988V431.072H580.856C581.164 431.072 581.444 430.764 581.444 430.344V408.784ZM602.775 419.284V420.404H609.103C609.299 420.404 609.383 420.488 609.383 420.684V426.312C609.383 428.664 607.843 429.84 605.687 429.84H602.271C598.743 429.84 595.831 428.412 595.831 423.4V416.036C595.831 412.592 597.847 410.184 601.627 409.96C604.427 409.764 607.339 409.96 610.139 410.324V409.12C607.339 408.784 604.567 408.616 601.767 408.756C597.427 408.98 594.375 411.556 594.375 415.952V423.176C594.347 428.188 597.063 431.072 602.019 431.072H605.827C608.291 431.072 610.671 429.616 610.671 426.34V420.852C610.671 419.844 609.943 419.284 608.963 419.284H602.775ZM625.385 421.02C624.517 420.992 623.649 420.936 622.781 420.908C621.325 420.824 619.589 420.824 618.469 420.852C616.229 420.852 614.577 422.336 614.577 424.268V427.88C614.577 429.896 615.977 431.072 618.553 431.072L625.805 430.988C626.393 430.988 626.813 430.568 626.813 429.924V420.04C626.813 416.764 625.945 415.28 620.905 415.364C619.785 415.364 618.497 415.42 617.405 415.504C616.789 415.532 616.173 415.588 615.557 415.616V416.764C616.089 416.736 616.649 416.68 617.209 416.624C618.189 416.54 619.337 416.484 620.233 416.484H620.849C624.377 416.484 625.385 417.128 625.385 419.676V421.02ZM619.057 429.896C616.957 429.896 616.005 429.308 616.005 427.628V424.38C616.005 422.952 616.817 422.14 618.301 422.056C619.281 422.056 621.101 422.112 622.585 422.112C623.481 422.14 624.405 422.168 625.385 422.196V429.476C625.385 429.672 625.273 429.784 625.049 429.784L619.057 429.896ZM638.853 415.364H634.205V410.436H632.805V415.364H629.641V416.596H632.805V427.628C632.805 429.868 633.981 431.044 636.417 431.044H639.413C639.721 431.044 640.001 430.792 640.001 430.484V429.868H636.585C634.933 429.868 634.205 429.364 634.205 427.208V416.596H638.461C638.713 416.596 638.853 416.456 638.853 416.176V415.364ZM643.813 422.672V421.02C643.813 418.444 645.661 416.54 648.573 416.54H650.337C653.053 416.54 654.789 418.388 654.789 420.628V422.392C654.789 422.588 654.705 422.672 654.509 422.672H643.813ZM655.797 429.504C653.781 429.952 651.485 429.952 650.141 429.952C646.557 429.868 643.813 428.944 643.813 425.08V423.848H654.425C655.349 423.848 656.161 423.12 656.161 422.112V420.46C656.161 417.464 653.333 415.364 650.589 415.364H648.573C644.905 415.364 642.413 418.052 642.413 420.964V424.968C642.413 429.56 645.745 431.128 650.225 431.128C651.905 431.128 653.753 431.1 655.209 430.792C655.601 430.736 655.797 430.54 655.797 430.176V429.504ZM665.375 431.072C668.847 431.072 671.955 430.288 671.955 427.012C671.955 425.304 671.227 423.932 668.567 423.26L663.863 421.916C662.127 421.384 660.419 421.048 660.419 419.088C660.419 417.212 661.567 416.568 664.367 416.54C666.607 416.456 668.763 416.596 670.863 416.82V415.588C668.483 415.392 666.103 415.252 663.723 415.336C660.895 415.42 658.991 416.512 658.963 419.004C658.963 421.524 660.839 422.364 663.247 423.036L667.643 424.268C670.107 424.94 670.611 425.724 670.611 426.9C670.611 429.056 668.483 429.84 665.403 429.84C663.275 429.812 661.511 429.7 659.383 429.504V430.792C661.399 430.988 663.359 431.072 665.375 431.072ZM695.97 419.088H683.818V420.32H695.41C695.718 420.32 695.97 420.068 695.97 419.76V419.088Z" fill="#6C5605"/>
<path d="M33.248 129.978C33.248 127.052 29.53 125.864 26.252 125.864C22.93 125.864 19.19 126.898 19.19 129.978C19.19 133.058 22.93 134.092 26.252 134.092C29.53 134.092 33.248 133.058 33.248 129.978ZM20.312 129.978C20.312 127.69 23.326 126.832 26.186 126.832C29.046 126.832 32.06 127.646 32.06 129.978C32.06 132.354 29.046 133.124 26.186 133.124C23.326 133.124 20.312 132.244 20.312 129.978ZM19.432 118.824C19.432 119.55 20.004 120.144 20.774 120.144H25.724V123.268H16.44V124.192H35.558C35.8 124.192 35.998 123.994 35.998 123.752V123.268H26.824V120.144H33.534V119.22H20.774C20.598 119.22 20.554 119.088 20.554 119V112.73H19.432V118.824ZM46.7711 120.98C46.7711 122.828 44.7691 123.576 42.8331 123.576C40.8971 123.576 38.9391 122.828 38.9391 120.98C38.9391 119.132 40.8971 118.362 42.8331 118.362C44.7691 118.362 46.7711 119.132 46.7711 120.98ZM47.8491 120.98C47.8491 118.582 45.4071 117.394 42.8331 117.394C40.1931 117.394 37.8391 118.582 37.8391 120.98C37.8391 123.4 40.1931 124.522 42.8331 124.522C45.4071 124.522 47.8491 123.334 47.8491 120.98ZM48.3551 115.194H43.3391V112.488H42.1951V115.194H37.1571V116.162H48.3551V115.194ZM54.1411 112.84H53.0411V117.636H48.8171V118.582H53.0411V121.794H48.8171V122.74H53.0411V124.896H53.7011C53.9431 124.896 54.1411 124.698 54.1411 124.456V112.84ZM43.0971 132.728C42.9431 132.728 42.8771 132.662 42.8771 132.508V129.362H53.1291V132.508C53.1291 132.662 53.0631 132.728 52.9091 132.728H43.0971ZM54.2071 125.886H53.1291V128.438H42.8771V125.886H41.7331V132.354C41.7331 133.146 42.3711 133.674 43.0751 133.674H52.8651C53.6351 133.674 54.2071 133.08 54.2071 132.354V125.886ZM76.4643 124.896C76.7063 124.896 76.9043 124.698 76.9043 124.456V123.95H57.3463V124.896H76.4643ZM60.2503 132.288C60.2503 133.058 60.8663 133.608 61.5923 133.608H74.2423C74.4623 133.608 74.5723 133.498 74.5723 133.256V132.684H61.6143C61.4603 132.684 61.3943 132.618 61.3943 132.464V127.47H60.2503V132.288ZM74.3743 117.372C74.3743 115.04 72.2183 112.95 67.1803 112.95C62.1203 112.95 59.9863 115.04 59.9863 117.372C59.9863 119.726 62.1203 121.816 67.1803 121.816C72.2183 121.816 74.3743 119.726 74.3743 117.372ZM61.2183 117.372C61.2183 115.612 62.9343 113.962 67.1803 113.962C71.4263 113.962 73.1423 115.612 73.1423 117.372C73.1423 119.176 71.4263 120.804 67.1803 120.804C62.9343 120.804 61.2183 119.176 61.2183 117.372ZM80.0874 121.464C80.0874 119.616 81.5834 118.538 83.5194 118.538C85.3894 118.538 86.9074 119.638 86.9074 121.464C86.9074 123.312 85.3454 124.39 83.5194 124.39C81.6494 124.39 80.0874 123.29 80.0874 121.464ZM78.9654 121.464C78.9654 123.928 81.0554 125.38 83.5194 125.38C86.0274 125.38 88.0074 123.818 88.0074 121.464C88.0074 119.088 86.0714 117.548 83.5194 117.548C80.9674 117.548 78.9654 119.088 78.9654 121.464ZM88.4914 116.184V115.216H83.9814V112.466H82.8594V115.216H78.3054V116.184H88.4914ZM90.2294 124.984H90.9114C91.1974 124.984 91.3514 124.83 91.3514 124.544V119.462H94.7174V125.732H95.3994C95.6854 125.732 95.8394 125.534 95.8394 125.292V112.84H94.7174V118.538H91.3514V112.84H90.2294V124.984ZM95.8394 130.242C95.8394 127.052 92.1434 126.37 89.0854 126.37C86.0274 126.37 82.3314 127.052 82.3314 130.242C82.3314 133.41 86.0274 134.092 89.0854 134.092C92.1434 134.092 95.8394 133.41 95.8394 130.242ZM83.5194 130.242C83.5194 127.888 86.4234 127.338 89.0634 127.338C91.7254 127.338 94.6514 127.888 94.6514 130.242C94.6514 132.596 91.7254 133.124 89.0634 133.124C86.4234 133.124 83.5194 132.596 83.5194 130.242ZM115.82 118.538C115.82 115.48 113.466 113.522 110.386 113.522C107.306 113.522 104.952 115.458 104.952 118.538C104.952 121.618 107.306 123.554 110.386 123.554C113.466 123.554 115.82 121.618 115.82 118.538ZM106.03 118.538C106.03 116.14 107.878 114.534 110.386 114.534C112.894 114.534 114.742 116.074 114.742 118.538C114.742 120.914 112.894 122.564 110.386 122.564C107.878 122.564 106.03 121.068 106.03 118.538ZM120.638 124.742C120.88 124.742 121.078 124.544 121.078 124.302V112.84H119.978V124.742H120.638ZM119.934 127.184V132.486C119.934 132.64 119.868 132.706 119.714 132.706H109.374C109.22 132.706 109.154 132.64 109.154 132.486V127.184H119.934ZM108.032 132.354C108.032 133.058 108.582 133.674 109.374 133.674H119.714C120.418 133.674 121.056 133.146 121.056 132.354V126.194H108.032V132.354ZM141.289 133.806C141.531 133.806 141.707 133.608 141.707 133.366V127.624C141.707 126.854 141.091 126.304 140.365 126.304H128.243V127.25H140.409C140.563 127.25 140.629 127.316 140.629 127.47V133.806H141.289ZM141.289 125.028C141.531 125.028 141.729 124.83 141.729 124.588V112.84H140.629V125.028H141.289ZM125.801 114.622H130.575V117.636C130.575 119.704 127.869 122.432 124.789 123.73L125.493 124.456C127.517 123.686 130.531 121.31 131.169 119.44C131.917 121.2 134.623 123.07 136.449 123.928L137.131 123.18C135.129 122.3 131.675 120.1 131.675 117.548V114.622H136.383L136.405 113.676H125.801V114.622ZM146.716 116.8C146.716 119.44 149.334 120.65 152.15 120.65C154.922 120.65 157.54 119.44 157.54 116.8C157.54 114.16 154.922 112.95 152.15 112.95C149.334 112.95 146.716 114.094 146.716 116.8ZM156.44 116.8C156.44 118.824 154.24 119.748 152.15 119.748C149.95 119.748 147.816 118.89 147.816 116.8C147.816 114.776 149.972 113.852 152.15 113.852C154.24 113.852 156.44 114.776 156.44 116.8ZM162.182 129.318C162.424 129.318 162.622 129.12 162.622 128.878V112.884H161.522V125.754H154.702V126.656H161.522V129.318H162.182ZM159.212 122.63C159.476 122.586 159.608 122.432 159.608 122.146V121.574C157.32 122.102 153.932 122.124 151.292 122.124H145.704V123.048H150.83V127.25H151.468C151.71 127.25 151.908 127.052 151.908 126.81V123.048C155.428 123.048 157.628 122.872 159.212 122.63ZM149.29 132.332C149.29 133.102 149.906 133.652 150.632 133.652H163.194C163.414 133.652 163.524 133.542 163.524 133.3V132.728H150.654C150.5 132.728 150.434 132.662 150.434 132.508V128.24H149.29V132.332ZM169.524 114.6C169.524 114.446 169.59 114.38 169.744 114.38H182.152V113.434H169.744C168.974 113.434 168.402 113.984 168.402 114.754V118.714C168.402 119.484 168.974 120.034 169.744 120.034H182.372V119.088H169.744C169.59 119.088 169.524 119.022 169.524 118.868V114.6ZM184.66 123.092C184.902 123.092 185.1 122.894 185.1 122.652V122.168H165.542V123.092H184.66ZM182.24 133.85C182.482 133.85 182.68 133.652 182.68 133.41V132.904H170.008C169.854 132.904 169.788 132.838 169.788 132.684V129.868H180.876C181.558 129.868 182.218 129.318 182.218 128.504V125.27H168.6V126.238H181.074V128.724C181.074 128.878 181.008 128.944 180.854 128.944H168.622V132.53C168.622 133.388 169.282 133.85 169.964 133.85H182.24ZM198.645 120.518H196.071C195.961 117.284 194.949 113.544 191.143 113.544C186.941 113.544 186.193 117.944 186.193 121.376C186.193 124.808 186.963 129.208 191.143 129.208C195.301 129.208 196.093 124.83 196.093 121.42H198.645V133.278H199.327C199.569 133.278 199.767 133.08 199.767 132.838V112.796H198.645V120.518ZM191.143 114.6C194.421 114.6 194.993 118.45 194.993 121.376C194.993 124.302 194.421 128.152 191.143 128.152C187.843 128.152 187.293 124.302 187.293 121.376C187.293 118.45 187.843 114.6 191.143 114.6ZM202.891 133.74H203.573C203.815 133.74 204.013 133.542 204.013 133.3V112.818H202.891V133.74ZM207.328 115.062H214.324C214.478 115.062 214.544 115.128 214.544 115.282V121.86C214.544 125.864 210.144 128.702 207.13 129.648L207.922 130.286C210.76 129.582 215.688 126.458 215.688 121.75V121.156H219.01V133.278H219.692C219.978 133.278 220.132 133.124 220.132 132.838V112.972H219.01V120.254H215.688V115.48C215.688 114.71 215.072 114.16 214.346 114.16H207.328V115.062ZM223.454 133.74H224.114C224.4 133.74 224.554 133.586 224.554 133.3V112.972H223.454V133.74ZM19.432 172.354C19.432 173.058 19.982 173.674 20.774 173.674H31.752C32.456 173.674 33.094 173.146 33.094 172.354V165.71H19.432V172.354ZM31.972 166.7V172.486C31.972 172.64 31.906 172.706 31.752 172.706H20.774C20.62 172.706 20.554 172.64 20.554 172.486V166.7H31.972ZM35.558 163.026C35.8 163.026 35.998 162.828 35.998 162.586V162.08H32.192C32.786 160.782 33.204 158.472 33.204 156.69V154.732C33.204 153.962 32.632 153.412 31.862 153.412H19.124V154.358H31.884C32.038 154.358 32.104 154.424 32.104 154.578V156.8C32.104 158.56 31.664 160.782 31.07 162.08H16.44V163.026H35.558ZM39.5991 170.242C39.5991 173.146 43.1851 174.136 46.6831 174.136C50.1811 174.136 53.7671 173.234 53.7671 170.242C53.7671 168.724 52.7771 167.69 51.3471 167.074C51.3471 167.008 51.3691 166.986 51.3691 166.92V163.378H56.0111C56.2531 163.378 56.4511 163.18 56.4511 162.938V162.454H36.8931V163.378H42.0191V167.052C40.5451 167.668 39.5991 168.68 39.5991 170.242ZM39.4451 157.086C39.4451 159.638 42.2611 161.068 46.6391 161.068C51.1931 161.068 53.8771 159.66 53.8771 157.086C53.8771 154.512 51.1931 153.06 46.6391 153.06C42.1511 153.06 39.4451 154.534 39.4451 157.086ZM40.6331 157.086C40.6331 155.436 42.3711 154.05 46.6611 154.05C50.9511 154.05 52.6891 155.436 52.6891 157.086C52.6891 158.714 50.9511 160.078 46.6611 160.078C42.3711 160.078 40.6331 158.78 40.6331 157.086ZM40.8531 170.242C40.8531 168.24 43.5151 167.272 46.6831 167.272C49.8511 167.272 52.5131 168.13 52.5131 170.242C52.5131 172.354 49.8951 173.124 46.7271 173.124C43.5591 173.124 40.8531 172.354 40.8531 170.242ZM50.3131 166.7C49.1911 166.37 47.9371 166.26 46.6831 166.26C45.4291 166.26 44.1971 166.392 43.0751 166.678V163.378H50.3131V166.7ZM72.5043 154.468C72.6583 154.468 72.7243 154.534 72.7243 154.688V157.724C72.7243 159.616 72.1963 162.102 71.7123 163.598H57.3243V164.522H62.5823V173.762H63.2643C63.5063 173.762 63.7043 173.564 63.7043 173.322V164.522H70.4583V173.762H71.1403C71.3823 173.762 71.5803 173.564 71.5803 173.322V164.522H76.5083C76.7503 164.522 76.9483 164.324 76.9483 164.082V163.598H72.9663C73.4943 162.168 73.8683 159.682 73.8683 157.746V154.842C73.8683 154.072 73.2963 153.522 72.5263 153.522H60.0083V154.468H72.5043ZM87.6994 155.128V154.16H77.9094V155.128H82.2654V161.244C82.2654 163.884 79.8234 166.788 77.4254 168.482L78.1954 169.164C80.1314 167.932 82.2654 165.336 82.9034 163.642C83.5854 165.182 85.6094 167.492 87.3914 168.614L88.1394 167.822C86.1374 166.524 83.4094 163.796 83.4094 161.2V155.128H87.6994ZM86.1814 161.222H90.4054V173.278H91.0654C91.3074 173.278 91.5054 173.08 91.5054 172.838V152.84H90.4054V160.32H86.1814V161.222ZM94.8494 173.74H95.5314C95.7734 173.74 95.9714 173.542 95.9714 173.3V152.84H94.8494V173.74ZM119.868 168.13C120.11 168.13 120.308 167.932 120.308 167.69V160.474H123.652V159.55H120.308V152.884H119.208V168.13H119.868ZM116.986 164.324C117.228 164.258 117.36 164.038 117.36 163.796V163.334C115.512 163.796 112.212 163.928 109.572 163.928V158.516H108.472V163.884H103.852V164.808H109.748C113.114 164.808 115.468 164.654 116.986 164.324ZM114.302 154.534C114.456 154.534 114.522 154.6 114.522 154.754V156.668C114.522 158.208 113.994 160.276 113.4 161.75H114.39C115.094 160.584 115.666 158.318 115.666 156.624V154.93C115.666 154.204 115.094 153.61 114.324 153.61H105.37V154.534H114.302ZM107.218 172.288C107.218 173.014 107.79 173.608 108.56 173.608H120.704C120.946 173.608 121.078 173.476 121.078 173.212V172.662H108.582C108.406 172.662 108.362 172.53 108.362 172.442V167.008H107.218V172.288ZM126.879 159.682H133.171C133.941 159.682 134.513 159.132 134.513 158.362V153.676H125.735V154.666H133.413V158.494C133.413 158.648 133.347 158.714 133.193 158.714H125.735V164.148C125.735 164.918 126.307 165.468 127.077 165.468C130.553 165.468 135.305 165.226 137.945 164.808V163.818C135.437 164.258 129.475 164.434 127.099 164.434C126.945 164.434 126.879 164.368 126.879 164.214V159.682ZM128.771 172.288C128.771 173.014 129.343 173.608 130.113 173.608H142.125C142.367 173.608 142.499 173.476 142.499 173.212V172.662H130.135C129.959 172.662 129.915 172.53 129.915 172.442V167.668H128.771V172.288ZM135.767 156.558H140.453V160.144H135.767V161.046H140.453V168.306H141.135C141.377 168.306 141.575 168.152 141.575 167.866V152.84H140.453V155.634H135.767V156.558ZM152.184 154.622H156.958V157.46C156.958 159.528 154.318 162.256 151.238 163.554L151.942 164.28C153.988 163.51 156.914 161.068 157.552 159.264C158.3 161.024 160.874 162.872 162.7 163.73L163.382 162.96C161.38 162.08 158.058 159.902 158.058 157.372V154.622H162.766L162.788 153.676H152.184V154.622ZM161.886 157.856V158.758H167.122V165.006H167.782C168.046 165.006 168.222 164.808 168.222 164.566V152.862H167.122V157.856H161.886ZM168.53 169.824C168.53 166.48 164.834 165.534 161.776 165.534C158.718 165.534 155.022 166.48 155.022 169.824C155.022 173.168 158.718 174.114 161.776 174.114C164.834 174.114 168.53 173.168 168.53 169.824ZM156.188 169.824C156.188 167.294 159.158 166.502 161.798 166.502C164.416 166.502 167.364 167.294 167.364 169.824C167.364 172.354 164.416 173.146 161.798 173.146C159.158 173.146 156.188 172.354 156.188 169.824ZM171.449 170.858H190.633C190.875 170.858 191.073 170.66 191.073 170.418V169.912H181.855V164.654H187.025C187.795 164.654 188.367 164.104 188.367 163.334V153.632H187.223V157.812H175.321V153.632H174.177V163.334C174.177 164.104 174.749 164.654 175.519 164.654H180.733V169.912H171.449V170.858ZM175.541 163.708C175.387 163.708 175.321 163.642 175.321 163.488V158.736H187.223V163.488C187.223 163.642 187.157 163.708 187.003 163.708H175.541ZM194.982 156.162V159.198C194.982 159.968 195.554 160.518 196.324 160.518H208.754V159.55H196.346C196.192 159.55 196.126 159.484 196.126 159.33V157.086H207.126C207.896 157.086 208.468 156.536 208.468 155.766V153.038H194.894V153.962H207.346V155.942C207.346 156.096 207.28 156.162 207.126 156.162H194.982ZM211.042 163.73C211.284 163.73 211.482 163.532 211.482 163.29V162.806H191.924V163.73H211.042ZM208.622 173.806C208.864 173.806 209.062 173.608 209.062 173.366V172.86H196.39C196.236 172.86 196.17 172.794 196.17 172.64V170.286H207.258C207.94 170.286 208.6 169.736 208.6 168.922V166.018H194.982V166.986H207.456V169.142C207.456 169.296 207.39 169.362 207.236 169.362H195.004V172.486C195.004 173.344 195.664 173.806 196.346 173.806H208.622ZM18.376 198.23C18.376 196.272 20.004 194.908 22.182 194.908C24.206 194.908 25.856 196.25 25.856 198.274C25.856 200.254 24.228 201.662 22.182 201.662C20.202 201.662 18.376 200.43 18.376 198.23ZM16.594 198.23C16.594 201.376 19.19 203.158 22.182 203.158C25.24 203.158 27.594 201.134 27.594 198.23C27.528 195.15 25.24 193.412 22.182 193.412C19.058 193.412 16.594 195.15 16.594 198.23ZM32.764 198.604H35.976V197.13H32.764V192.862H31.004V203.796H32.324C32.566 203.796 32.764 203.598 32.764 203.356V198.604ZM33.27 212.464H21.588C21.434 212.464 21.368 212.398 21.368 212.244V210H31.466C32.192 210 32.808 209.692 32.808 208.878V204.984H19.586V206.414H31.048V208.394C31.048 208.548 30.982 208.614 30.828 208.614H19.586V212.574C19.586 213.432 20.158 213.894 20.928 213.894H32.83C33.072 213.894 33.27 213.696 33.27 213.454V212.464ZM53.1291 213.762H54.4051C54.6471 213.762 54.8451 213.564 54.8451 213.322V192.84H53.1291V213.762ZM48.6631 195.304C48.6631 194.534 48.0911 193.984 47.3211 193.984H38.6531V195.436H46.6831C46.8371 195.436 46.9031 195.502 46.9031 195.656V201.244C46.9031 205.82 42.8551 207.976 38.2791 209.208L39.2251 210.462C43.5371 209.472 48.6631 206.766 48.6631 201.31V195.304ZM71.4159 192.84H69.6779V194.248C69.6779 196.36 67.1259 198.01 64.0679 198.956L65.1239 200.078C67.9179 199.044 69.6339 198.054 70.5799 196.492C71.6579 198.032 74.0779 199.242 75.9699 199.836L76.8499 198.714C74.8039 198.12 71.4159 196.58 71.4159 194.292V192.84ZM79.0939 192.84V205.688H80.3919C80.6339 205.688 80.8319 205.49 80.8319 205.248V192.84H79.0939ZM68.9959 202.652V205.732H70.2719C70.5139 205.732 70.7119 205.534 70.7119 205.292V202.652C73.2639 202.63 75.5079 202.52 77.2679 202.168C77.5099 202.124 77.6199 201.97 77.6199 201.728V200.694C75.5959 201.09 72.7799 201.2 70.4259 201.2H63.6499V202.652H68.9959ZM79.1599 209.978V212.09C79.1599 212.244 79.0939 212.31 78.9399 212.31H69.3039C69.1499 212.31 69.0839 212.244 69.0839 212.09V209.978H79.1599ZM67.3459 212.42C67.3459 213.19 67.9619 213.74 68.6879 213.74H79.5119C80.2819 213.74 80.8539 213.19 80.8539 212.42V206.568H79.1599V208.614H69.0839V206.568H67.3459V212.42ZM99.0191 199.506C99.0191 201.794 98.1391 205.028 97.3251 206.612H99.0851C100.075 204.874 100.801 201.838 100.801 199.396V195.26C100.801 194.49 100.185 193.94 99.4591 193.94H86.2371V195.392H98.7991C98.9531 195.392 99.0191 195.458 99.0191 195.612V199.506ZM103.375 209.516H92.6611V200.474H90.9231V209.516H83.6631V210.946H102.979C103.243 210.946 103.375 210.792 103.375 210.484V209.516ZM116.91 193.192H115.15V198.076C115.15 200.628 112.136 202.938 109.562 204.28L110.728 205.402C113.214 204.06 115.04 202.366 116.074 200.76C117.042 202.256 119.726 204.17 121.464 204.918L122.498 203.818C119.858 202.476 116.91 200.606 116.91 198.076V193.192ZM126.7 208.02C126.986 208.02 127.118 207.888 127.118 207.602V192.84H125.358V208.02H126.7ZM127.954 212.222H115.722C115.568 212.222 115.502 212.156 115.502 212.002V206.986L113.742 207.008V212.354C113.742 213.124 114.314 213.696 115.084 213.696H127.536C127.822 213.696 127.954 213.564 127.954 213.278V212.222ZM141.257 192.884H139.519V194.578C139.519 197.02 134.987 199.286 132.325 200.078L133.337 201.266C135.867 200.452 139.035 198.824 140.377 196.734C141.719 198.714 145.195 200.628 147.417 201.222L148.385 200.034C146.119 199.418 141.257 197.108 141.257 194.644V192.884ZM150.167 203.488H141.279V200.144H139.519V203.488H130.499V204.962H149.727C149.969 204.962 150.167 204.786 150.167 204.522V203.488ZM147.373 208.152C147.373 207.382 146.757 206.832 146.031 206.832H133.139V208.306H145.415C145.569 208.306 145.635 208.372 145.635 208.526V213.872H146.933C147.175 213.872 147.373 213.674 147.373 213.432V208.152ZM162.502 204.236C162.502 201.354 160.214 198.89 156.98 198.89C153.746 198.89 151.458 201.332 151.458 204.236C151.458 207.184 153.724 209.582 156.98 209.582C160.236 209.582 162.502 207.14 162.502 204.236ZM163.272 197.548V196.096H157.882V192.862H156.1V196.096H150.776V197.548H163.272ZM153.196 204.214C153.196 202.212 154.736 200.43 156.98 200.43C159.268 200.43 160.786 202.212 160.786 204.214C160.786 206.414 159.18 208.042 156.98 208.042C154.802 208.042 153.196 206.37 153.196 204.214ZM170.664 201.508H167.364V192.818H165.648V213.762H166.924C167.166 213.762 167.364 213.564 167.364 213.322V202.982H170.664V201.508ZM183.681 200.056H180.887V195.392C180.887 194.622 180.271 194.072 179.545 194.072H172.285V195.502H178.929C179.083 195.502 179.149 195.568 179.149 195.722L179.171 201.156C179.171 205.314 176.223 207.712 171.933 209.362L172.989 210.44C176.817 209.142 180.579 206.392 180.865 201.486H183.681V213.278H184.979C185.221 213.278 185.419 213.102 185.419 212.838V192.906H183.681V200.056ZM188.125 213.762H189.379C189.665 213.762 189.819 213.608 189.819 213.322V192.906H188.125V213.762ZM207.754 195.128V194.16H197.964V195.128H202.32V201.244C202.32 203.884 199.878 206.788 197.48 208.482L198.25 209.164C200.186 207.932 202.32 205.336 202.958 203.642C203.64 205.182 205.664 207.492 207.446 208.614L208.194 207.822C206.192 206.524 203.464 203.796 203.464 201.2V195.128H207.754ZM206.236 201.222H210.46V213.278H211.12C211.362 213.278 211.56 213.08 211.56 212.838V192.84H210.46V200.32H206.236V201.222ZM214.904 213.74H215.586C215.828 213.74 216.026 213.542 216.026 213.3V192.84H214.904V213.74ZM233.795 194.314C233.949 194.314 234.015 194.38 234.015 194.534V196.602C234.015 197.834 233.509 199.704 232.981 200.87H234.059C234.763 199.506 235.115 197.702 235.115 196.536V194.688C235.115 193.918 234.543 193.368 233.773 193.368H221.013V194.314H233.795ZM218.307 203.598H237.425C237.667 203.598 237.865 203.422 237.865 203.158V202.652H227.767V197.724H226.623V202.652H218.307V203.598ZM235.203 209.714C235.203 206.37 231.353 205.424 228.053 205.424C224.709 205.424 220.859 206.37 220.859 209.714C220.859 213.058 224.709 214.004 228.053 214.004C231.353 214.004 235.203 213.058 235.203 209.714ZM222.069 209.714C222.069 207.052 225.259 206.392 228.031 206.392C230.803 206.392 233.993 207.052 233.993 209.714C233.993 212.376 230.803 213.036 228.031 213.036C225.259 213.036 222.069 212.376 222.069 209.714ZM250.09 204.236C250.09 201.354 247.868 198.978 244.7 198.978C241.532 198.978 239.31 201.354 239.31 204.236C239.31 207.096 241.532 209.472 244.7 209.472C247.868 209.472 250.09 207.096 250.09 204.236ZM250.904 197.284V196.36H245.294V192.906H244.128V196.36H238.584V197.284H250.904ZM240.454 204.214C240.454 201.992 242.17 200.034 244.7 200.034C247.23 200.034 248.946 201.992 248.946 204.214C248.946 206.524 247.23 208.416 244.7 208.416C242.17 208.416 240.454 206.436 240.454 204.214ZM258.34 201.75H254.82V192.818H253.698V213.74H254.38C254.622 213.74 254.82 213.542 254.82 213.3V202.674H258.34V201.75ZM276.131 213.74C276.373 213.74 276.571 213.542 276.571 213.3V192.818H275.449V197.02H270.719C269.861 194.996 268.365 193.588 265.989 193.588C262.183 193.588 260.489 197.328 260.489 201.354C260.489 205.336 262.183 209.076 265.989 209.076C268.255 209.076 269.729 207.778 270.587 205.908H275.449V213.74H276.131ZM261.611 201.332C261.611 197.944 262.909 194.556 266.011 194.556C269.069 194.556 270.367 197.944 270.367 201.332C270.367 204.72 269.069 208.108 266.011 208.108C262.909 208.108 261.611 204.72 261.611 201.332ZM271.489 201.354C271.489 200.144 271.335 199 271.027 197.944H275.449V204.962H270.961C271.313 203.862 271.489 202.652 271.489 201.354ZM35.558 244.896C35.8 244.896 35.998 244.698 35.998 244.456V243.95H16.44V244.896H35.558ZM19.344 252.288C19.344 253.058 19.96 253.608 20.686 253.608H33.336C33.556 253.608 33.666 253.498 33.666 253.256V252.684H20.708C20.554 252.684 20.488 252.618 20.488 252.464V247.47H19.344V252.288ZM33.468 237.372C33.468 235.04 31.312 232.95 26.274 232.95C21.214 232.95 19.08 235.04 19.08 237.372C19.08 239.726 21.214 241.816 26.274 241.816C31.312 241.816 33.468 239.726 33.468 237.372ZM20.312 237.372C20.312 235.612 22.028 233.962 26.274 233.962C30.52 233.962 32.236 235.612 32.236 237.372C32.236 239.176 30.52 240.804 26.274 240.804C22.028 240.804 20.312 239.176 20.312 237.372ZM39.1811 241.464C39.1811 239.616 40.6771 238.538 42.6131 238.538C44.4831 238.538 46.0011 239.638 46.0011 241.464C46.0011 243.312 44.4391 244.39 42.6131 244.39C40.7431 244.39 39.1811 243.29 39.1811 241.464ZM38.0591 241.464C38.0591 243.928 40.1491 245.38 42.6131 245.38C45.1211 245.38 47.1011 243.818 47.1011 241.464C47.1011 239.088 45.1651 237.548 42.6131 237.548C40.0611 237.548 38.0591 239.088 38.0591 241.464ZM47.5851 236.184V235.216H43.0751V232.466H41.9531V235.216H37.3991V236.184H47.5851ZM49.3231 244.984H50.0051C50.2911 244.984 50.4451 244.83 50.4451 244.544V239.462H53.8111V245.732H54.4931C54.7791 245.732 54.9331 245.534 54.9331 245.292V232.84H53.8111V238.538H50.4451V232.84H49.3231V244.984ZM54.9331 250.242C54.9331 247.052 51.2371 246.37 48.1791 246.37C45.1211 246.37 41.4251 247.052 41.4251 250.242C41.4251 253.41 45.1211 254.092 48.1791 254.092C51.2371 254.092 54.9331 253.41 54.9331 250.242ZM42.6131 250.242C42.6131 247.888 45.5171 247.338 48.1571 247.338C50.8191 247.338 53.7451 247.888 53.7451 250.242C53.7451 252.596 50.8191 253.124 48.1571 253.124C45.5171 253.124 42.6131 252.596 42.6131 250.242ZM74.3303 236.8C74.3303 234.402 71.3603 232.95 67.1143 232.95C62.8683 232.95 59.8983 234.402 59.8983 236.8C59.8983 239.198 62.8683 240.65 67.1143 240.65C71.3603 240.65 74.3303 239.198 74.3303 236.8ZM73.1423 236.8C73.1423 238.648 70.6343 239.66 67.1143 239.66C63.5943 239.66 61.0863 238.648 61.0863 236.8C61.0863 234.952 63.5943 233.94 67.1143 233.94C70.6343 233.94 73.1423 234.952 73.1423 236.8ZM76.4643 243.29C76.7063 243.29 76.9043 243.092 76.9043 242.85V242.344H57.3463V243.29H76.4643ZM73.9783 253.85C74.2203 253.85 74.4183 253.652 74.4183 253.41V252.904H61.8343C61.6803 252.904 61.6143 252.838 61.6143 252.684V249.978H72.6143C73.2963 249.978 73.9563 249.472 73.9563 248.658V245.402H60.4263V246.37H72.8123V248.834C72.8123 248.988 72.7463 249.054 72.5923 249.054H60.4483V252.53C60.4483 253.388 61.1083 253.85 61.7903 253.85H73.9783ZM100.383 253.85C100.625 253.85 100.823 253.652 100.823 253.41V252.904H88.1071C87.9531 252.904 87.8871 252.838 87.8871 252.684V249.912H99.0191C99.7011 249.912 100.361 249.428 100.361 248.614V245.314H94.1351V242.718H102.869C103.111 242.718 103.309 242.52 103.309 242.278V241.772H83.7291V242.718H93.0131V245.314H86.6991V246.282H99.2171V248.768C99.2171 248.922 99.1511 248.988 98.9971 248.988H86.7211V252.53C86.7211 253.388 87.3811 253.85 88.0631 253.85H100.383ZM87.7111 234.358C87.7111 234.204 87.7771 234.138 87.9311 234.138H100.339V233.192H87.9311C87.1611 233.192 86.5891 233.742 86.5891 234.512V238.428C86.5891 239.198 87.1611 239.748 87.9311 239.748H100.559V238.802H87.9311C87.7771 238.802 87.7111 238.736 87.7111 238.582V234.358ZM106.778 241.464H113.356C114.126 241.464 114.698 240.914 114.698 240.144V234.072H105.656V235.018H113.62V240.298C113.62 240.452 113.554 240.518 113.4 240.518H105.656V247.382C105.656 248.152 106.228 248.702 106.998 248.702C110.474 248.702 114.918 248.482 117.536 248.064V247.162C115.028 247.514 110.21 247.8 106.998 247.734C106.844 247.734 106.778 247.668 106.778 247.514V241.464ZM120.132 253.74H120.792C121.034 253.74 121.232 253.542 121.232 253.3V232.884H120.132V240.518H115.644V241.442H120.132V253.74ZM128.155 252.288C128.155 253.014 128.727 253.608 129.497 253.608H141.223C141.465 253.608 141.597 253.476 141.597 253.212V252.662H129.519C129.343 252.662 129.299 252.53 129.299 252.442V246.986H128.155V252.288ZM140.167 247.998C140.409 247.998 140.607 247.8 140.607 247.558V240.056H144.215V239.132H140.607V232.884H139.485V247.998H140.167ZM128.815 233.236H127.715V238.516C127.715 240.54 126.439 242.476 124.481 243.972L125.163 244.632C126.527 243.62 127.781 242.058 128.265 240.87C128.903 242.3 130.003 243.73 130.971 244.544C131.917 243.664 133.149 242.102 133.677 240.848C134.667 242.652 135.701 243.62 136.823 244.566L137.549 243.884C135.921 242.784 134.205 240.628 134.205 238.692V233.236H133.105V238.758C133.105 240.452 131.939 242.102 130.949 243.268C130.003 242.256 128.815 240.496 128.815 238.604V233.236ZM166.176 234.468C166.33 234.468 166.396 234.534 166.396 234.688V237.724C166.396 239.616 165.868 242.102 165.384 243.598H150.996V244.522H156.254V253.762H156.936C157.178 253.762 157.376 253.564 157.376 253.322V244.522H164.13V253.762H164.812C165.054 253.762 165.252 253.564 165.252 253.322V244.522H170.18C170.422 244.522 170.62 244.324 170.62 244.082V243.598H166.638C167.166 242.168 167.54 239.682 167.54 237.746V234.842C167.54 234.072 166.968 233.522 166.198 233.522H153.68V234.468H166.176ZM181.371 235.128V234.16H171.581V235.128H175.937V241.244C175.937 243.884 173.495 246.788 171.097 248.482L171.867 249.164C173.803 247.932 175.937 245.336 176.575 243.642C177.257 245.182 179.281 247.492 181.063 248.614L181.811 247.822C179.809 246.524 177.081 243.796 177.081 241.2V235.128H181.371ZM179.853 241.222H184.077V253.278H184.737C184.979 253.278 185.177 253.08 185.177 252.838V232.84H184.077V240.32H179.853V241.222ZM188.521 253.74H189.203C189.445 253.74 189.643 253.542 189.643 253.3V232.84H188.521V253.74ZM205.058 246.326C205.3 246.26 205.432 246.04 205.432 245.798V245.314C203.584 245.754 201.186 245.864 198.964 245.864V243.532C201.67 243.422 203.87 242.278 203.87 240.254C203.87 238.076 201.34 236.976 198.414 236.976C195.488 236.976 192.958 238.076 192.958 240.254C192.958 242.278 195.158 243.4 197.864 243.51V245.842H192.012V246.766H197.71C201.076 246.766 203.54 246.656 205.058 246.326ZM194.124 240.254C194.124 238.56 196.368 237.944 198.414 237.944C200.46 237.944 202.704 238.56 202.704 240.254C202.704 241.948 200.46 242.564 198.414 242.564C196.368 242.564 194.124 241.948 194.124 240.254ZM207.698 248.79C207.94 248.79 208.138 248.592 208.138 248.35V241.596H211.636V240.672H208.138V232.884H207.038V248.79H207.698ZM195.356 252.288C195.356 253.014 195.928 253.608 196.698 253.608H208.886C209.128 253.608 209.26 253.476 209.26 253.212V252.662H196.72C196.544 252.662 196.5 252.53 196.5 252.442V248.35H195.356V252.288ZM192.32 235.744H204.42V234.798H198.876V232.158H197.776V234.798H192.32V235.744ZM229.692 249.802C229.692 246.458 225.82 245.512 222.938 245.512C220.034 245.512 216.184 246.458 216.184 249.802C216.184 253.146 220.122 254.092 222.938 254.092C225.908 254.092 229.692 253.146 229.692 249.802ZM217.35 249.802C217.35 247.272 220.562 246.502 222.916 246.502C225.292 246.502 228.526 247.228 228.526 249.802C228.526 252.398 225.292 253.146 222.916 253.146C220.628 253.146 217.35 252.398 217.35 249.802ZM213.742 234.622H221.288C221.464 234.622 221.508 234.754 221.508 234.842V237.966C221.508 241.618 216.888 243.334 213.61 244.038L214.314 244.83C218.032 243.884 222.674 242.124 222.674 237.878V236.426H228.306V241.2H222.102V242.102H228.306V245.006H228.988C229.23 245.006 229.428 244.852 229.428 244.566V232.84H228.306V235.502H222.674V234.996C222.674 234.358 222.19 233.676 221.332 233.676H213.742V234.622ZM240.168 243.554C240.168 244.324 240.74 244.874 241.51 244.874H248.572C249.342 244.874 249.914 244.324 249.914 243.554V242.212H254.864V247.976H255.546C255.788 247.976 255.986 247.822 255.986 247.536V232.84H254.864V236.162H249.914V233.236H248.792V237.636H241.268V233.236H240.168V243.554ZM248.792 238.582V243.708C248.792 243.862 248.726 243.928 248.572 243.928H241.488C241.334 243.928 241.268 243.862 241.268 243.708V238.582H248.792ZM249.914 241.31V237.086H254.864V241.31H249.914ZM243.05 252.288C243.05 253.014 243.622 253.608 244.392 253.608H256.558C256.8 253.608 256.932 253.476 256.932 253.212V252.662H244.414C244.238 252.662 244.194 252.53 244.194 252.442V247.294H243.05V252.288ZM272.435 249.208C272.677 249.142 272.809 248.922 272.809 248.68V248.218C270.939 248.636 267.969 248.79 266.143 248.79V245.798C268.959 245.622 271.005 243.928 271.005 241.662C271.005 239.264 268.717 237.526 265.659 237.526C262.601 237.526 260.313 239.264 260.313 241.662C260.313 243.906 262.293 245.534 265.043 245.776V248.79H258.883V249.714H264.779C268.145 249.714 270.917 249.538 272.435 249.208ZM261.413 241.662C261.413 239.726 263.305 238.516 265.659 238.516C268.013 238.516 269.905 239.726 269.905 241.662C269.905 243.598 268.013 244.808 265.659 244.808C263.305 244.808 261.413 243.598 261.413 241.662ZM275.163 253.74C275.405 253.74 275.603 253.564 275.603 253.3V242.278H279.013V241.354H275.603V232.884H274.503V253.74H275.163ZM271.885 235.436H266.099V232.642H264.977V235.436H259.301V236.36H271.885V235.436ZM292.317 240.518H289.743C289.633 237.284 288.621 233.544 284.815 233.544C280.613 233.544 279.865 237.944 279.865 241.376C279.865 244.808 280.635 249.208 284.815 249.208C288.973 249.208 289.765 244.83 289.765 241.42H292.317V253.278H292.999C293.241 253.278 293.439 253.08 293.439 252.838V232.796H292.317V240.518ZM284.815 234.6C288.093 234.6 288.665 238.45 288.665 241.376C288.665 244.302 288.093 248.152 284.815 248.152C281.515 248.152 280.965 244.302 280.965 241.376C280.965 238.45 281.515 234.6 284.815 234.6ZM296.563 253.74H297.245C297.487 253.74 297.685 253.542 297.685 253.3V232.818H296.563V253.74ZM308.117 247.492C307.963 247.492 307.897 247.426 307.897 247.272V235.348C307.897 235.194 307.963 235.128 308.117 235.128H314.783V234.16H308.117C307.347 234.16 306.775 234.71 306.775 235.48V247.14C306.775 247.91 307.347 248.438 308.117 248.46C310.427 248.526 314.431 248.218 316.257 247.932V247.03C313.507 247.382 310.163 247.602 308.117 247.492ZM323.649 253.74C323.891 253.74 324.089 253.542 324.089 253.3V232.884H322.989V240.43H319.029V232.884H317.929V253.278H318.589C318.831 253.278 319.029 253.08 319.029 252.838V241.332H322.989V253.74H323.649ZM336.997 241.794C336.997 239.418 334.863 237.614 332.157 237.614C329.429 237.614 327.295 239.418 327.295 241.794C327.295 244.192 329.429 245.996 332.157 245.996C334.797 245.996 336.997 244.104 336.997 241.794ZM337.678 236.25V235.282H332.663V232.444H331.519V235.282H326.481V236.25H337.678ZM328.439 241.794C328.439 239.748 330.133 238.582 332.135 238.582C334.137 238.582 335.853 239.748 335.853 241.794C335.853 243.818 334.137 245.05 332.135 245.05C330.133 245.05 328.439 243.774 328.439 241.794ZM329.583 252.288C329.583 253.014 330.155 253.608 330.925 253.608H342.761C343.003 253.608 343.135 253.476 343.135 253.212V252.662H330.947C330.771 252.662 330.727 252.53 330.727 252.442V247.602H329.583V252.288ZM341.617 248.218C341.859 248.218 342.057 248.02 342.057 247.778V240.672H345.577V239.748H342.057V232.884H340.935V248.218H341.617ZM19.322 279.044C19.322 279.77 19.894 280.364 20.664 280.364H33.446V279.44H20.664C20.488 279.44 20.444 279.308 20.444 279.22V272.796H19.322V279.044ZM35.558 283.73C35.8 283.73 35.998 283.532 35.998 283.29V282.784H16.44V283.73H35.558ZM33.622 289.978C33.622 286.854 29.684 285.798 26.362 285.798C22.996 285.798 19.036 286.854 19.036 289.978C19.036 293.102 22.996 294.158 26.362 294.158C29.684 294.158 33.622 293.102 33.622 289.978ZM20.224 289.978C20.224 287.558 23.392 286.788 26.296 286.788C29.2 286.788 32.346 287.558 32.346 289.978C32.346 292.398 29.2 293.168 26.296 293.168C23.392 293.168 20.224 292.398 20.224 289.978ZM39.6211 290.022C39.6211 293.102 43.3831 293.982 46.7271 293.982C50.0491 293.982 53.8551 293.102 53.8551 290.022C53.8551 286.942 50.0491 286.062 46.7271 286.062C43.3831 286.062 39.6211 286.942 39.6211 290.022ZM40.8311 290.022C40.8311 287.844 43.7131 287.008 46.7271 287.008C49.7191 287.008 52.6451 287.844 52.6451 290.022C52.6451 292.2 49.7191 293.036 46.7271 293.036C43.7131 293.036 40.8311 292.2 40.8311 290.022ZM39.7971 279.22C39.7971 279.99 40.3691 280.54 41.1391 280.54H46.1771V283.532H36.8931V284.478H56.0991C56.3411 284.478 56.4511 284.324 56.4511 283.994V283.532H47.2771V280.54H53.7231V279.594H41.1391C40.9851 279.594 40.9191 279.528 40.9191 279.374V274.6C40.9191 274.446 40.9851 274.38 41.1391 274.38H53.5031V273.434H41.1391C40.3691 273.434 39.7971 273.984 39.7971 274.754V279.22ZM74.1103 294.004C74.3523 294.004 74.5503 293.806 74.5503 293.564V287.624C74.5503 286.854 73.9343 286.304 73.2083 286.304H61.0203V287.25H73.2083C73.3623 287.25 73.4283 287.316 73.4283 287.47V294.004H74.1103ZM68.2142 277.702V278.604H73.4503V285.028H74.1103C74.3743 285.028 74.5503 284.83 74.5503 284.588V272.906H73.4503V277.702H68.2142ZM58.4243 274.622H63.1983V277.636C63.1983 279.704 60.5583 282.432 57.4783 283.73L58.1823 284.456C60.2063 283.686 63.1543 281.31 63.7923 279.44C64.5403 281.2 67.2463 283.07 69.0723 283.928L69.7543 283.158C67.7523 282.278 64.2983 280.078 64.2983 277.548V274.622H69.0063L69.0282 273.676H58.4243V274.622ZM85.7971 287.492C85.6431 287.492 85.5771 287.426 85.5771 287.272V275.348C85.5771 275.194 85.6431 275.128 85.7971 275.128H92.4631V274.16H85.7971C85.0271 274.16 84.4551 274.71 84.4551 275.48V287.14C84.4551 287.91 85.0271 288.438 85.7971 288.46C88.1071 288.526 92.1111 288.218 93.9371 287.932V287.03C91.1871 287.382 87.8431 287.602 85.7971 287.492ZM101.329 293.74C101.571 293.74 101.769 293.542 101.769 293.3V272.884H100.669V280.43H96.7091V272.884H95.6091V293.278H96.2691C96.5111 293.278 96.7091 293.08 96.7091 292.838V281.332H100.669V293.74H101.329ZM121.166 277.064C121.166 274.49 118.482 273.06 113.928 273.06C109.44 273.06 106.734 274.512 106.734 277.064C106.734 279.616 109.44 281.068 113.928 281.068C118.482 281.068 121.166 279.638 121.166 277.064ZM107.922 277.064C107.922 275.436 109.66 274.05 113.95 274.05C118.24 274.05 119.978 275.436 119.978 277.064C119.978 278.714 118.24 280.078 113.95 280.078C109.66 280.078 107.922 278.714 107.922 277.064ZM123.3 284.016C123.542 284.016 123.74 283.818 123.74 283.576V283.07H104.182V284.016H123.3ZM121.056 290.132C121.056 287.206 117.47 286.106 113.972 286.106C110.474 286.106 106.888 287.162 106.888 290.132C106.888 293.036 110.474 294.07 113.972 294.07C117.47 294.07 121.056 293.102 121.056 290.132ZM108.142 290.132C108.142 288.13 110.804 287.118 113.972 287.118C117.14 287.118 119.802 288.02 119.802 290.132C119.802 292.266 117.184 293.058 114.016 293.058C110.848 293.058 108.142 292.266 108.142 290.132ZM141.619 276.8C141.619 274.402 138.649 272.95 134.403 272.95C130.157 272.95 127.187 274.402 127.187 276.8C127.187 279.198 130.157 280.65 134.403 280.65C138.649 280.65 141.619 279.198 141.619 276.8ZM140.431 276.8C140.431 278.648 137.923 279.66 134.403 279.66C130.883 279.66 128.375 278.648 128.375 276.8C128.375 274.952 130.883 273.94 134.403 273.94C137.923 273.94 140.431 274.952 140.431 276.8ZM143.753 283.29C143.995 283.29 144.193 283.092 144.193 282.85V282.344H124.635V283.29H143.753ZM141.267 293.85C141.509 293.85 141.707 293.652 141.707 293.41V292.904H129.123C128.969 292.904 128.903 292.838 128.903 292.684V289.978H139.903C140.585 289.978 141.245 289.472 141.245 288.658V285.402H127.715V286.37H140.101V288.834C140.101 288.988 140.035 289.054 139.881 289.054H127.737V292.53C127.737 293.388 128.397 293.85 129.079 293.85H141.267ZM152.206 275.106H157.244V280.672C157.244 283.092 154.032 286.414 151.436 288.064L152.25 288.79C154.252 287.668 157.156 284.478 157.86 282.74C158.564 284.478 161.38 287.382 163.272 288.438L164.042 287.69C161.754 286.392 158.366 283.048 158.366 280.672V275.106H163.536V274.16H152.206V275.106ZM167.65 293.74C167.892 293.74 168.09 293.542 168.09 293.3V272.84H166.99V293.74H167.65ZM173.099 276.8C173.099 279.44 175.717 280.65 178.533 280.65C181.305 280.65 183.923 279.44 183.923 276.8C183.923 274.16 181.305 272.95 178.533 272.95C175.717 272.95 173.099 274.094 173.099 276.8ZM182.823 276.8C182.823 278.824 180.623 279.748 178.533 279.748C176.333 279.748 174.199 278.89 174.199 276.8C174.199 274.776 176.355 273.852 178.533 273.852C180.623 273.852 182.823 274.776 182.823 276.8ZM188.565 289.318C188.807 289.318 189.005 289.12 189.005 288.878V272.884H187.905V285.754H181.085V286.656H187.905V289.318H188.565ZM185.595 282.63C185.859 282.586 185.991 282.432 185.991 282.146V281.574C183.703 282.102 180.315 282.124 177.675 282.124H172.087V283.048H177.213V287.25H177.851C178.093 287.25 178.291 287.052 178.291 286.81V283.048C181.811 283.048 184.011 282.872 185.595 282.63ZM175.673 292.332C175.673 293.102 176.289 293.652 177.015 293.652H189.577C189.797 293.652 189.907 293.542 189.907 293.3V292.728H177.037C176.883 292.728 176.817 292.662 176.817 292.508V288.24H175.673V292.332ZM203.254 284.236C203.254 281.354 201.032 278.978 197.864 278.978C194.696 278.978 192.474 281.354 192.474 284.236C192.474 287.096 194.696 289.472 197.864 289.472C201.032 289.472 203.254 287.096 203.254 284.236ZM204.068 277.284V276.36H198.458V272.906H197.292V276.36H191.748V277.284H204.068ZM193.618 284.214C193.618 281.992 195.334 280.034 197.864 280.034C200.394 280.034 202.11 281.992 202.11 284.214C202.11 286.524 200.394 288.416 197.864 288.416C195.334 288.416 193.618 286.436 193.618 284.214ZM211.504 281.75H207.984V272.818H206.862V293.74H207.544C207.786 293.74 207.984 293.542 207.984 293.3V282.674H211.504V281.75ZM229.67 293.74C229.912 293.74 230.11 293.542 230.11 293.3V272.84H229.01V293.74H229.67ZM214.754 290.308C219.066 289.142 223.686 286.678 223.972 281.97V275.436C223.972 274.666 223.356 274.116 222.63 274.116H214.292V275.04H222.608C222.762 275.04 222.828 275.106 222.828 275.26V281.992C222.828 286.282 217.46 288.68 214.094 289.472L214.754 290.308ZM251.74 277.878C251.74 275.106 249.254 273.17 245.976 273.17C242.698 273.17 240.212 275.106 240.212 277.878C240.212 280.628 242.698 282.542 245.976 282.542C249.254 282.542 251.74 280.628 251.74 277.878ZM241.356 277.878C241.356 275.766 243.182 274.16 245.976 274.16C248.77 274.16 250.596 275.678 250.596 277.878C250.596 280.078 248.77 281.552 245.976 281.552C243.182 281.552 241.356 280.078 241.356 277.878ZM253.038 285.314C253.302 285.27 253.434 285.116 253.434 284.83V284.324C251.146 284.786 247.626 284.786 245.008 284.786H239.42V285.71H245.074V292.288H245.712C245.954 292.288 246.152 292.09 246.152 291.848V285.71C249.21 285.71 251.454 285.556 253.038 285.314ZM255.788 293.74C256.03 293.74 256.228 293.542 256.228 293.3V272.84H255.128V293.74H255.788ZM269.707 281.794C269.707 279.418 267.573 277.614 264.867 277.614C262.139 277.614 260.005 279.418 260.005 281.794C260.005 284.192 262.139 285.996 264.867 285.996C267.507 285.996 269.707 284.104 269.707 281.794ZM270.389 276.25V275.282H265.373V272.444H264.229V275.282H259.191V276.25H270.389ZM261.149 281.794C261.149 279.748 262.843 278.582 264.845 278.582C266.847 278.582 268.563 279.748 268.563 281.794C268.563 283.818 266.847 285.05 264.845 285.05C262.843 285.05 261.149 283.774 261.149 281.794ZM262.293 292.288C262.293 293.014 262.865 293.608 263.635 293.608H275.471C275.713 293.608 275.845 293.476 275.845 293.212V292.662H263.657C263.481 292.662 263.437 292.53 263.437 292.442V287.602H262.293V292.288ZM274.327 288.218C274.569 288.218 274.767 288.02 274.767 287.778V280.672H278.287V279.748H274.767V272.884H273.645V288.218H274.327ZM16.418 330.858H35.602C35.844 330.858 36.042 330.66 36.042 330.418V329.912H26.824V324.61H34.634V323.686H31.004C31.07 323.466 31.092 323.224 31.092 322.96V314.886H34.172V313.94H18.244V314.886H21.302V322.96C21.302 323.224 21.324 323.466 21.39 323.686H17.826V324.61H25.702V329.912H16.418V330.858ZM22.688 323.686C22.534 323.686 22.468 323.62 22.468 323.466V314.886H29.948V323.466C29.948 323.62 29.882 323.686 29.728 323.686H22.688ZM39.2031 318.494H46.9691V317.548H39.2031V314.666C39.2031 314.512 39.2691 314.446 39.4231 314.446H47.2331V313.478H39.4451C38.6531 313.478 38.1031 314.072 38.1031 314.798V321.816C38.1031 322.542 38.6531 323.136 39.4451 323.136C41.7771 323.136 47.2991 322.938 49.9831 322.3V321.398C47.4531 321.926 42.8111 322.212 39.4231 322.212C39.2691 322.212 39.2031 322.146 39.2031 321.992V318.494ZM48.1571 317.152V318.054H52.6891V323.774H53.3491C53.6131 323.774 53.7891 323.576 53.7891 323.334V312.906H52.6891V317.152H48.1571ZM53.7671 333.85C54.0091 333.85 54.2071 333.652 54.2071 333.41V332.904H42.1511C41.9971 332.904 41.9311 332.838 41.9311 332.684V329.802H52.4031C53.0851 329.802 53.7451 329.604 53.7451 328.79V325.094H40.7431V326.062H52.6011V328.658C52.6011 328.812 52.5351 328.878 52.3811 328.878H40.7651V332.53C40.7651 333.388 41.4251 333.85 42.1071 333.85H53.7671ZM58.1163 318.142C58.1163 321.266 60.6683 323.158 63.6163 323.158C66.6743 323.158 69.0503 321.046 68.9843 318.142C68.9183 315.04 66.6963 313.17 63.6163 313.17C60.5143 313.17 58.1163 315.106 58.1163 318.142ZM59.2163 318.142C59.2163 315.744 61.1523 314.16 63.6163 314.16C66.0583 314.16 67.9062 315.656 67.9062 318.142C67.9723 320.43 66.0143 322.168 63.6163 322.168C61.2403 322.168 59.2163 320.672 59.2163 318.142ZM73.8023 324.104C74.0443 324.104 74.2423 323.906 74.2423 323.664V312.84H73.1423V324.104H73.8023ZM73.0983 329.054V332.508C73.0983 332.662 73.0323 332.728 72.8783 332.728H62.8243C62.6703 332.728 62.6043 332.662 62.6043 332.508V329.054H73.0983ZM61.4603 332.354C61.4603 333.146 62.0983 333.674 62.8023 333.674H72.8343C73.6043 333.674 74.1763 333.08 74.1763 332.354V325.314H73.0983V328.13H62.6043V325.314H61.4603V332.354ZM94.4314 333.74C94.6734 333.74 94.8714 333.542 94.8714 333.3V312.84H93.7714V333.74H94.4314ZM79.6694 327.074C79.6694 327.8 80.2414 328.416 81.0114 328.394C84.4654 328.306 87.9194 328.284 91.5054 327.734V326.788C88.5574 327.25 83.9594 327.47 80.9894 327.47C80.8134 327.47 80.7694 327.338 80.7694 327.25V313.588H79.6694V327.074ZM99.9685 315.238C99.9685 315.084 100.035 315.018 100.189 315.018H108.615V314.072H100.211C99.4405 314.072 98.8685 314.622 98.8685 315.392V327.14C98.8685 327.91 99.4405 328.46 100.211 328.46C103.643 328.46 107.801 328.35 110.969 327.998V327.052C107.911 327.404 103.181 327.558 100.189 327.492C100.035 327.492 99.9685 327.426 99.9685 327.272V315.238ZM117.503 320.342H113.983V312.818H112.861V333.74H113.543C113.785 333.74 113.983 333.542 113.983 333.3V321.266H117.503V320.342ZM119.916 329.67V331.43H121.39V329.67H119.916Z" fill="black"/>
<rect x="16" y="84.0001" width="450" height="1" fill="#2B347B" fill-opacity="0.5"/>
<path d="M38.762 44.994V60.498H41.004C41.422 60.498 41.764 60.156 41.764 59.738V44.994H49.896C50.314 44.994 50.656 44.652 50.656 44.234V42.448H44.082C45.108 39.826 45.488 35.646 45.488 32.568V27.704C45.488 26.45 44.5 25.424 43.17 25.424H21.092V27.97H42.068C42.334 27.97 42.448 28.084 42.448 28.35V32.454C42.448 35.646 41.916 39.826 41.004 42.448H16.646V44.994H25.272V60.498H27.514C27.932 60.498 28.274 60.156 28.274 59.738V44.994H38.762ZM69.2261 28.996V26.488H52.2401V28.996H59.2701V38.99C59.2701 42.866 55.2421 48.11 51.0241 51.036C51.7461 51.682 52.3541 52.328 53.0761 52.936C56.2301 50.77 59.6121 46.666 60.9421 43.892C62.1201 46.362 65.4641 50.124 68.3901 52.024C68.9981 51.302 69.6441 50.656 70.2521 49.934C66.8701 47.692 62.3101 42.98 62.3101 39.066V28.996H69.2261ZM75.3061 59.662C75.6101 59.662 76.0281 59.472 76.0661 58.902V24.36H73.0641V36.786H66.3381V39.294H73.0641V59.662H75.3061ZM82.9441 60.498C83.2861 60.498 83.7041 60.308 83.7041 59.738V24.36H80.7021V60.498H82.9441ZM91.7863 49.022C91.5203 49.022 91.4062 48.908 91.4062 48.642V29.338C91.4062 29.072 91.5203 28.958 91.7863 28.958H102.654V26.488H90.7603C89.4303 26.488 88.4423 27.438 88.4423 28.768V49.212C88.4423 51.188 90.0763 51.492 91.8623 51.492C96.8783 51.492 101.704 51.036 105.086 50.618V48.186C100.032 48.794 95.8903 49.136 91.7863 49.022ZM118.994 24.436H116.03V37.052H110.33V24.436H107.366V59.662H109.57C109.988 59.662 110.33 59.32 110.33 58.902V39.522H116.03V60.46H118.234C118.652 60.46 118.994 60.118 118.994 59.7V24.436ZM127.076 31.694C127.076 36.406 132.168 38.648 139.616 38.648C147.216 38.648 152.156 36.216 152.156 31.694C152.156 27.058 146.798 24.664 139.616 24.664C132.32 24.664 127.076 27.02 127.076 31.694ZM130.192 31.694C130.192 28.996 133.46 27.134 139.654 27.134C145.696 27.134 149.04 28.996 149.04 31.694C149.04 34.316 145.696 36.178 139.654 36.178C133.422 36.178 130.192 34.316 130.192 31.694ZM127.228 54.228C127.228 59.244 133.574 61.144 139.692 61.144C145.962 61.144 152.042 59.092 152.042 54.228C152.042 49.25 145.734 47.198 139.692 47.198C133.574 47.198 127.228 49.174 127.228 54.228ZM130.42 54.228C130.42 51.302 134.676 49.782 139.692 49.782C144.594 49.782 148.85 51.188 148.85 54.228C148.85 57.268 144.594 58.56 139.73 58.56C134.752 58.56 130.42 57.268 130.42 54.228ZM122.63 41.688V44.158H155.842C156.26 44.158 156.602 43.816 156.602 43.398V41.688H122.63ZM159.973 28.958H168.219V37.736C168.219 41.65 162.937 47.54 158.339 50.39C159.061 51.036 159.745 51.682 160.467 52.328C163.507 50.504 168.067 45.526 169.777 42.524C171.297 45.336 175.819 49.934 178.897 51.682C179.619 51.036 180.265 50.428 180.911 49.706C176.807 47.312 171.259 41.764 171.259 37.812V28.958H179.771V26.45H159.973V28.958ZM187.979 24.36H185.015V60.498H187.219C187.637 60.498 187.979 60.156 187.979 59.738V24.36ZM196.061 31.2C196.061 35.874 200.811 37.964 205.561 37.964C210.349 37.964 215.023 35.874 215.023 31.2C215.023 26.602 210.349 24.474 205.561 24.474C200.811 24.474 196.061 26.526 196.061 31.2ZM198.987 31.2C198.987 28.198 202.331 26.83 205.561 26.83C208.791 26.83 212.097 28.16 212.097 31.2C212.097 34.278 208.791 35.608 205.561 35.608C202.255 35.608 198.987 34.354 198.987 31.2ZM221.103 46.286H209.893V48.756H221.103V52.86H223.345C223.763 52.86 224.105 52.518 224.105 52.1V24.436H221.103V46.286ZM225.207 57.876H203.661C203.395 57.876 203.281 57.762 203.281 57.496V50.96H200.241V58.104C200.241 59.434 201.343 60.422 202.559 60.422H224.523C224.941 60.422 225.207 60.156 225.207 59.738V57.876ZM194.427 42.6H202.521V49.288H204.725C205.143 49.288 205.485 48.946 205.485 48.528V42.6C210.235 42.6 215.213 42.41 217.987 41.688C218.405 41.574 218.595 41.308 218.595 40.928V38.99C215.517 39.56 211.261 40.054 207.005 40.054H194.427V42.6ZM260.269 44.88V42.41H254.303C254.455 41.916 254.493 41.498 254.493 41.004V28.768H259.471V26.26H231.731V28.768H236.633V41.004C236.633 41.498 236.671 41.954 236.823 42.41H231.009V44.88H244.157V53.126H228.615V55.634H261.865C262.207 55.634 262.625 55.444 262.625 54.874V53.126H247.197V44.88H260.269ZM240.015 42.41C239.749 42.41 239.635 42.296 239.635 42.03V28.768H251.491V42.03C251.491 42.296 251.377 42.41 251.111 42.41H240.015ZM292.823 43.284C293.127 43.284 293.545 43.094 293.583 42.524V24.436H290.581V31.39H283.323V33.86H290.581V43.284H292.823ZM269.263 39.864C268.997 39.864 268.883 39.75 268.883 39.484V34.62H281.613V32.264H268.883V28.16C268.883 27.894 268.997 27.78 269.263 27.78H282.031V25.386H268.275C266.945 25.386 265.957 26.336 265.957 27.666V40.054C265.957 41.308 266.945 42.334 268.275 42.334C272.987 42.334 281.955 41.878 286.781 40.89V38.572C282.183 39.484 274.963 39.902 270.593 39.902C270.137 39.902 269.681 39.864 269.263 39.864ZM294.305 58.256H273.823C273.557 58.256 273.443 58.142 273.443 57.876V54.038H291.189C292.405 54.038 293.507 53.582 293.507 52.176V45.412H270.365V47.882H290.429V51.378C290.429 51.644 290.315 51.758 290.049 51.758H270.365V58.446C270.365 59.928 271.353 60.726 272.683 60.726H293.545C293.963 60.726 294.305 60.384 294.305 59.966V58.256ZM323.517 47.504C323.825 47.504 324.077 47.252 324.077 46.944V46.3H299.185V47.504H323.517ZM302.881 56.912C302.881 57.892 303.665 58.592 304.589 58.592H320.689C320.969 58.592 321.109 58.452 321.109 58.144V57.416H304.617C304.421 57.416 304.337 57.332 304.337 57.136V50.78H302.881V56.912ZM320.857 37.928C320.857 34.96 318.113 32.3 311.701 32.3C305.261 32.3 302.545 34.96 302.545 37.928C302.545 40.924 305.261 43.584 311.701 43.584C318.113 43.584 320.857 40.924 320.857 37.928ZM304.113 37.928C304.113 35.688 306.297 33.588 311.701 33.588C317.105 33.588 319.289 35.688 319.289 37.928C319.289 40.224 317.105 42.296 311.701 42.296C306.297 42.296 304.113 40.224 304.113 37.928Z" fill="black"/>
<defs>
<linearGradient id="paint0_linear_78_261" x1="735.733" y1="443.262" x2="624.955" y2="290.199" gradientUnits="userSpaceOnUse">
<stop offset="0.389373" stop-color="#FFB800"/>
<stop offset="1" stop-color="#FAC931"/>
</linearGradient>
</defs>
</svg>
