<svg width="507" height="107" viewBox="0 0 507 107" fill="none" xmlns="http://www.w3.org/2000/svg">
<path d="M381.976 94.1413L387.898 88.0033H386.62L378.556 96.2833V88.0033H377.656V102.331H378.268C378.466 102.331 378.556 102.223 378.556 102.007V97.4533L381.328 94.7353L387.358 102.331H388.258C388.42 102.331 388.456 102.205 388.366 102.079L381.976 94.1413ZM396.934 95.8693C396.376 95.8513 395.818 95.8153 395.26 95.7973C394.324 95.7433 393.208 95.7433 392.488 95.7613C391.048 95.7613 389.986 96.7153 389.986 97.9573V100.279C389.986 101.575 390.886 102.331 392.542 102.331L397.204 102.277C397.582 102.277 397.852 102.007 397.852 101.593V95.2393C397.852 93.1333 397.294 92.1793 394.054 92.2333C393.334 92.2333 392.506 92.2693 391.804 92.3233C391.408 92.3413 391.012 92.3773 390.616 92.3953V93.1333C390.958 93.1153 391.318 93.0793 391.678 93.0433C392.308 92.9893 393.046 92.9533 393.622 92.9533H394.018C396.286 92.9533 396.934 93.3673 396.934 95.0053V95.8693ZM392.866 101.575C391.516 101.575 390.904 101.197 390.904 100.117V98.0293C390.904 97.1113 391.426 96.5893 392.38 96.5353C393.01 96.5353 394.18 96.5713 395.134 96.5713C395.71 96.5893 396.304 96.6073 396.934 96.6253V101.305C396.934 101.431 396.862 101.503 396.718 101.503L392.866 101.575ZM404.909 96.4993L409.391 92.2333H408.113L401.795 98.2813V88.0033H400.877V102.331H401.507C401.705 102.331 401.831 102.151 401.831 101.953V99.3973L404.225 97.1293L408.743 102.331H409.715C409.841 102.331 409.895 102.205 409.805 102.115L404.909 96.4993ZM418.52 95.8693C417.962 95.8513 417.404 95.8153 416.846 95.7973C415.91 95.7433 414.794 95.7433 414.074 95.7613C412.634 95.7613 411.572 96.7153 411.572 97.9573V100.279C411.572 101.575 412.472 102.331 414.128 102.331L418.79 102.277C419.168 102.277 419.438 102.007 419.438 101.593V95.2393C419.438 93.1333 418.88 92.1793 415.64 92.2333C414.92 92.2333 414.092 92.2693 413.39 92.3233C412.994 92.3413 412.598 92.3773 412.202 92.3953V93.1333C412.544 93.1153 412.904 93.0793 413.264 93.0433C413.894 92.9893 414.632 92.9533 415.208 92.9533H415.604C417.872 92.9533 418.52 93.3673 418.52 95.0053V95.8693ZM414.452 101.575C413.102 101.575 412.49 101.197 412.49 100.117V98.0293C412.49 97.1113 413.012 96.5893 413.966 96.5353C414.596 96.5353 415.766 96.5713 416.72 96.5713C417.296 96.5893 417.89 96.6073 418.52 96.6253V101.305C418.52 101.431 418.448 101.503 418.304 101.503L414.452 101.575ZM425.829 101.557C424.209 101.557 422.877 100.459 422.877 98.6413V96.0493C422.877 94.2493 423.939 93.0073 425.667 93.0073H427.287C428.943 93.0073 429.987 94.1773 429.987 96.1213V98.3893C429.987 100.387 428.943 101.557 427.143 101.557H425.829ZM427.377 102.331C429.375 102.331 430.905 100.837 430.905 98.4793V96.1033C430.905 93.8713 429.627 92.2153 427.377 92.2153H425.559C423.345 92.2153 421.941 93.9253 421.941 96.1033V98.5693C421.941 100.855 423.705 102.331 425.703 102.331H427.377ZM447.943 101.215C446.287 101.485 444.793 101.557 443.281 101.503C440.473 101.449 439.105 99.4333 439.105 97.3453V93.0613C439.105 90.5773 440.005 88.9933 443.119 88.7593C444.703 88.6333 446.377 88.7593 447.889 88.9573V88.1293C446.305 87.9313 444.757 87.8953 443.245 87.9493C440.329 88.0393 438.205 89.6053 438.205 93.0073V97.3453C438.205 100.081 439.969 102.223 443.209 102.313C444.649 102.367 446.089 102.331 447.745 102.061C447.871 102.043 447.943 102.007 447.943 101.845V101.215ZM454.86 93.0253C457.254 93.0793 457.722 93.6013 457.722 95.4193V102.331H458.316C458.514 102.331 458.622 102.223 458.622 102.007V95.4193C458.622 93.2053 457.794 92.2333 455.364 92.2333C453.906 92.2333 452.538 92.2693 451.242 92.3413V88.0033H450.324V102.331H450.882C451.116 102.331 451.242 102.205 451.242 101.935V93.1333C452.304 93.0613 453.762 93.0073 454.86 93.0253ZM468.161 95.8693C467.603 95.8513 467.045 95.8153 466.487 95.7973C465.551 95.7433 464.435 95.7433 463.715 95.7613C462.275 95.7613 461.213 96.7153 461.213 97.9573V100.279C461.213 101.575 462.113 102.331 463.769 102.331L468.431 102.277C468.809 102.277 469.079 102.007 469.079 101.593V95.2393C469.079 93.1333 468.521 92.1793 465.281 92.2333C464.561 92.2333 463.733 92.2693 463.031 92.3233C462.635 92.3413 462.239 92.3773 461.843 92.3953V93.1333C462.185 93.1153 462.545 93.0793 462.905 93.0433C463.535 92.9893 464.273 92.9533 464.849 92.9533H465.245C467.513 92.9533 468.161 93.3673 468.161 95.0053V95.8693ZM464.093 101.575C462.743 101.575 462.131 101.197 462.131 100.117V98.0293C462.131 97.1113 462.653 96.5893 463.607 96.5353C464.237 96.5353 465.407 96.5713 466.361 96.5713C466.937 96.5893 467.531 96.6073 468.161 96.6253V101.305C468.161 101.431 468.089 101.503 467.945 101.503L464.093 101.575ZM480.239 95.6893C480.239 92.8093 478.943 92.2333 476.225 92.2333L472.463 92.2873C472.121 92.2873 471.905 92.5213 471.905 92.8633V102.331H472.517C472.697 102.331 472.787 102.223 472.787 102.025V93.2053C472.787 93.1153 472.841 93.0793 472.931 93.0793L476.225 93.0433C478.385 93.0433 479.321 93.5833 479.321 95.6533V102.331H479.951C480.149 102.331 480.239 102.205 480.239 102.007V95.6893ZM491.384 95.6893C491.384 92.8093 490.088 92.2333 487.37 92.2333L483.608 92.2873C483.266 92.2873 483.05 92.5213 483.05 92.8633V102.331H483.662C483.842 102.331 483.932 102.223 483.932 102.025V93.2053C483.932 93.1153 483.986 93.0793 484.076 93.0793L487.37 93.0433C489.53 93.0433 490.466 93.5833 490.466 95.6533V102.331H491.096C491.294 102.331 491.384 102.205 491.384 102.007V95.6893ZM494.896 96.9313V95.8693C494.896 94.2133 496.084 92.9893 497.956 92.9893H499.09C500.836 92.9893 501.952 94.1773 501.952 95.6173V96.7513C501.952 96.8773 501.898 96.9313 501.772 96.9313H494.896ZM502.6 101.323C501.304 101.611 499.828 101.611 498.964 101.611C496.66 101.557 494.896 100.963 494.896 98.4793V97.6873H501.718C502.312 97.6873 502.834 97.2193 502.834 96.5713V95.5093C502.834 93.5833 501.016 92.2333 499.252 92.2333H497.956C495.598 92.2333 493.996 93.9613 493.996 95.8333V98.4073C493.996 101.359 496.138 102.367 499.018 102.367C500.098 102.367 501.286 102.349 502.222 102.151C502.474 102.115 502.6 101.989 502.6 101.755V101.323ZM506.904 88.0033H505.968V102.331H506.526C506.724 102.331 506.904 102.133 506.904 101.863V88.0033Z" fill="black"/>
<line x1="-2.18557e-08" y1="76.75" x2="509" y2="76.75" stroke="#7B7B7B" stroke-width="0.5"/>
<path d="M41.052 38.4773H35.046V24.4073H31.77V64.1813H34.206C34.668 64.1813 35.046 63.8033 35.046 63.3413V41.2073H41.052V38.4773ZM6.486 57.9233C15.894 55.6973 24.672 50.1533 24.672 40.6193V28.9433C24.672 27.6413 23.664 26.4233 22.11 26.4233H5.352V29.1953H20.892C21.186 29.1953 21.312 29.3213 21.312 29.6153V38.3513H5.142V41.1233H21.144C21.27 48.8093 14.634 52.9253 4.428 55.6133L6.486 57.9233ZM80.0989 38.4773H74.0929V24.4073H70.8169V64.1813H73.2529C73.7149 64.1813 74.0929 63.8033 74.0929 63.3413V41.2073H80.0989V38.4773ZM45.5329 57.9233C54.9409 55.6973 63.7189 50.1533 63.7189 40.6193V28.9433C63.7189 27.6413 62.7109 26.4233 61.1569 26.4233H44.3989V29.1953H59.9389C60.2329 29.1953 60.3589 29.3213 60.3589 29.6153V38.3513H44.1889V41.1233H60.1909C60.3169 48.8093 53.6809 52.9253 43.4749 55.6133L45.5329 57.9233ZM119.398 56.0333H102.346V46.3313C109.57 45.8693 115.492 42.4253 115.492 35.8733C115.492 28.9013 108.646 25.3733 100.792 25.3733C92.8538 25.3733 85.9658 28.9013 85.9658 35.8733C85.9658 42.3413 91.8038 45.8693 98.9858 46.3313V56.0333H81.8078V58.8053H118.558C119.02 58.8053 119.398 58.4273 119.398 57.9653V56.0333ZM112.132 35.8733C112.132 40.9133 107.26 43.5173 100.75 43.5173C94.2818 43.5173 89.3258 40.9133 89.3258 35.8733C89.3258 30.9593 94.2818 28.2293 100.75 28.2293C107.26 28.2293 112.132 30.9593 112.132 35.8733ZM129.675 23.9873V29.1533H121.443V31.8833H129.675V39.0233C129.675 44.2733 125.181 49.4813 120.267 52.6313L122.535 54.7733C125.643 53.0093 130.011 48.3053 131.439 45.1973C132.909 48.2633 136.185 51.7073 139.755 53.7233C140.385 52.9253 141.057 52.2113 141.729 51.4133C137.025 49.0613 133.035 44.3153 133.035 39.0653V31.8833H141.351V29.1533H133.035V23.9873H129.675ZM145.887 63.2573C146.223 63.2573 146.685 63.0473 146.727 62.4173V41.3753H152.565V64.2233H155.001C155.337 64.2233 155.841 64.0133 155.841 63.3833V24.2393H152.565V38.6033H146.727V24.2393H143.409V63.2573H145.887ZM185.858 39.0233C180.188 39.9053 173.93 40.4093 168.512 40.4093H167C166.706 40.4093 166.58 40.2833 166.58 39.9893V24.9113H163.262V40.7453C163.262 42.5513 164.606 43.2653 166.412 43.2653C170.444 43.2653 179.222 42.8453 185.858 41.8373V39.0233ZM192.788 24.2813H189.512V29.9513H177.122V32.6393H189.512V44.6933H191.948C192.452 44.6933 192.788 44.3153 192.788 43.8533V24.2813ZM193.544 61.7033H171.242C170.948 61.7033 170.822 61.5773 170.822 61.2833V56.6213H190.058C191.444 56.6213 192.62 55.6553 192.62 54.1013V46.7933H167.462V49.5653H189.302V53.5133C189.302 53.8073 189.176 53.9333 188.882 53.9333H167.42V61.9133C167.42 63.5513 168.512 64.4333 169.981 64.4333H192.704C193.166 64.4333 193.544 64.0553 193.544 63.5933V61.7033ZM198.766 58.0913H223.182C223.49 58.0913 223.742 57.8393 223.742 57.5313V56.8873H212.01V50.4473H220.466V49.2433H204.03C203.834 49.2433 203.75 49.1593 203.75 48.9633V43.7833H218.31C219.29 43.7833 220.018 43.0833 220.018 42.1033V36.5033H202.266V37.7073H218.506V42.3553C218.506 42.5513 218.422 42.6353 218.226 42.6353H202.266V48.7673C202.266 49.7473 202.994 50.4473 203.974 50.4473H210.582V56.8873H198.766V58.0913ZM279.479 25.9613H276.161V32.3033C276.161 37.9733 266.081 43.4753 260.915 44.9873L263.141 47.3393C267.971 45.7853 275.405 41.2913 277.883 37.2173C280.529 41.4173 288.005 46.0373 292.247 47.2973L294.431 44.9873C289.391 43.3073 279.479 37.9313 279.479 32.2193V25.9613ZM296.531 56.0753H279.479V45.2393H276.119V56.0753H258.941V58.8473H295.691C296.153 58.8473 296.531 58.4693 296.531 58.0073V56.0753ZM311.007 24.8273H307.647V33.1433C307.647 37.7633 302.019 42.0893 296.979 44.5673L299.121 46.6673C303.825 44.1893 307.395 41.2493 309.453 38.0993C311.301 40.9553 316.425 44.5253 319.785 45.8693L321.717 43.7273C316.131 41.1653 311.007 37.4273 311.007 33.1013V24.8273ZM329.781 47.5493C330.243 47.5493 330.621 47.1713 330.621 46.7093V24.2393H327.345V47.5493H329.781ZM330.495 52.3793C330.495 50.9093 329.319 49.8593 327.933 49.8593H304.077V52.5893H326.799C327.093 52.5893 327.219 52.7153 327.219 53.0093V64.6433H329.655C330.117 64.6433 330.495 64.2653 330.495 63.8033V52.3793ZM368.45 35.7893H374.414V33.0173H368.45V24.3233H365.132V47.3813H367.61C368.072 47.3813 368.45 47.0033 368.45 46.5413V35.7893ZM354.044 42.2153C354.044 42.5093 353.918 42.6353 353.624 42.6353H341.696C341.402 42.6353 341.276 42.5093 341.276 42.2153V34.2773H354.044V42.2153ZM357.278 24.9113H354.044V31.5053H341.276V24.9113H338.042V42.8453C338.042 44.3153 339.134 45.3653 340.604 45.3653H354.716C356.102 45.3653 357.278 44.3153 357.278 42.8453V24.9113ZM368.87 49.6493H345.854C344.384 49.6493 343.292 50.6993 343.292 52.1693V61.6613C343.292 62.9633 344.342 64.1813 345.854 64.1813H368.786C369.248 64.1813 369.5 63.9293 369.5 63.4253V61.4093H347.03C346.904 61.4093 346.61 61.3253 346.61 60.9893V52.7993C346.61 52.5053 346.736 52.3793 347.03 52.3793H368.114C368.576 52.3793 368.87 52.0853 368.87 51.6233V49.6493ZM407.203 64.1813H409.639C410.101 64.1813 410.479 63.8033 410.479 63.3413V24.2393H407.203V64.1813ZM398.677 28.9433C398.677 27.4733 397.585 26.4233 396.115 26.4233H379.567V29.1953H394.897C395.191 29.1953 395.317 29.3213 395.317 29.6153V40.2833C395.317 49.0193 387.589 53.1353 378.853 55.4873L380.659 57.8813C388.891 55.9913 398.677 50.8253 398.677 40.4093V28.9433Z" fill="black"/>
</svg>
