<svg width="498" height="294" viewBox="0 0 498 294" fill="none" xmlns="http://www.w3.org/2000/svg">
<path d="M534.421 12.4801C603.54 -103.221 1025.2 -47.3592 1090.28 62.6052C1155.36 172.57 1061.22 387.053 887.072 406.793C712.925 426.533 465.303 128.182 534.421 12.4801Z" fill="#FAC931" fill-opacity="0.1"/>
<path d="M581.719 36.6301C639.058 -68.4857 1015.33 -33.5465 1076.92 61.8128C1138.52 157.172 1062.4 350.851 908.487 374.427C754.574 398.002 524.38 141.746 581.719 36.6301Z" fill="#FAC931" fill-opacity="0.2"/>
<path d="M42.032 140.977C42.032 137.918 38.145 136.676 34.718 136.676C31.245 136.676 27.335 137.757 27.335 140.977C27.335 144.197 31.245 145.278 34.718 145.278C38.145 145.278 42.032 144.197 42.032 140.977ZM28.508 140.977C28.508 138.585 31.659 137.688 34.649 137.688C37.639 137.688 40.79 138.539 40.79 140.977C40.79 143.461 37.639 144.266 34.649 144.266C31.659 144.266 28.508 143.346 28.508 140.977ZM27.588 129.316C27.588 130.075 28.186 130.696 28.991 130.696H34.166V133.962H24.46V134.928H44.447C44.7 134.928 44.907 134.721 44.907 134.468V133.962H35.316V130.696H42.331V129.73H28.991C28.807 129.73 28.761 129.592 28.761 129.5V122.945H27.588V129.316ZM56.1698 131.57C56.1698 133.502 54.0768 134.284 52.0528 134.284C50.0288 134.284 47.9818 133.502 47.9818 131.57C47.9818 129.638 50.0288 128.833 52.0528 128.833C54.0768 128.833 56.1698 129.638 56.1698 131.57ZM57.2968 131.57C57.2968 129.063 54.7438 127.821 52.0528 127.821C49.2928 127.821 46.8318 129.063 46.8318 131.57C46.8318 134.1 49.2928 135.273 52.0528 135.273C54.7438 135.273 57.2968 134.031 57.2968 131.57ZM57.8258 125.521H52.5818V122.692H51.3858V125.521H46.1188V126.533H57.8258V125.521ZM63.8748 123.06H62.7248V128.074H58.3088V129.063H62.7248V132.421H58.3088V133.41H62.7248V135.664H63.4148C63.6678 135.664 63.8748 135.457 63.8748 135.204V123.06ZM52.3288 143.852C52.1678 143.852 52.0988 143.783 52.0988 143.622V140.333H62.8168V143.622C62.8168 143.783 62.7478 143.852 62.5868 143.852H52.3288ZM63.9438 136.699H62.8168V139.367H52.0988V136.699H50.9028V143.461C50.9028 144.289 51.5698 144.841 52.3058 144.841H62.5408C63.3458 144.841 63.9438 144.22 63.9438 143.461V136.699ZM87.2126 135.664C87.4656 135.664 87.6726 135.457 87.6726 135.204V134.675H67.2256V135.664H87.2126ZM70.2616 143.392C70.2616 144.197 70.9056 144.772 71.6646 144.772H84.8896C85.1196 144.772 85.2346 144.657 85.2346 144.404V143.806H71.6876C71.5266 143.806 71.4576 143.737 71.4576 143.576V138.355H70.2616V143.392ZM85.0276 127.798C85.0276 125.36 82.7736 123.175 77.5066 123.175C72.2166 123.175 69.9856 125.36 69.9856 127.798C69.9856 130.259 72.2166 132.444 77.5066 132.444C82.7736 132.444 85.0276 130.259 85.0276 127.798ZM71.2736 127.798C71.2736 125.958 73.0676 124.233 77.5066 124.233C81.9456 124.233 83.7396 125.958 83.7396 127.798C83.7396 129.684 81.9456 131.386 77.5066 131.386C73.0676 131.386 71.2736 129.684 71.2736 127.798ZM91.0004 132.076C91.0004 130.144 92.5644 129.017 94.5884 129.017C96.5434 129.017 98.1304 130.167 98.1304 132.076C98.1304 134.008 96.4974 135.135 94.5884 135.135C92.6334 135.135 91.0004 133.985 91.0004 132.076ZM89.8274 132.076C89.8274 134.652 92.0124 136.17 94.5884 136.17C97.2104 136.17 99.2804 134.537 99.2804 132.076C99.2804 129.592 97.2564 127.982 94.5884 127.982C91.9204 127.982 89.8274 129.592 89.8274 132.076ZM99.7864 126.556V125.544H95.0714V122.669H93.8984V125.544H89.1374V126.556H99.7864ZM101.603 135.756H102.316C102.615 135.756 102.776 135.595 102.776 135.296V129.983H106.295V136.538H107.008C107.307 136.538 107.468 136.331 107.468 136.078V123.06H106.295V129.017H102.776V123.06H101.603V135.756ZM107.468 141.253C107.468 137.918 103.604 137.205 100.407 137.205C97.2104 137.205 93.3464 137.918 93.3464 141.253C93.3464 144.565 97.2104 145.278 100.407 145.278C103.604 145.278 107.468 144.565 107.468 141.253ZM94.5884 141.253C94.5884 138.792 97.6244 138.217 100.384 138.217C103.167 138.217 106.226 138.792 106.226 141.253C106.226 143.714 103.167 144.266 100.384 144.266C97.6244 144.266 94.5884 143.714 94.5884 141.253ZM128.357 129.017C128.357 125.82 125.896 123.773 122.676 123.773C119.456 123.773 116.995 125.797 116.995 129.017C116.995 132.237 119.456 134.261 122.676 134.261C125.896 134.261 128.357 132.237 128.357 129.017ZM118.122 129.017C118.122 126.51 120.054 124.831 122.676 124.831C125.298 124.831 127.23 126.441 127.23 129.017C127.23 131.501 125.298 133.226 122.676 133.226C120.054 133.226 118.122 131.662 118.122 129.017ZM133.394 135.503C133.647 135.503 133.854 135.296 133.854 135.043V123.06H132.704V135.503H133.394ZM132.658 138.056V143.599C132.658 143.76 132.589 143.829 132.428 143.829H121.618C121.457 143.829 121.388 143.76 121.388 143.599V138.056H132.658ZM120.215 143.461C120.215 144.197 120.79 144.841 121.618 144.841H132.428C133.164 144.841 133.831 144.289 133.831 143.461V137.021H120.215V143.461ZM154.984 144.979C155.237 144.979 155.421 144.772 155.421 144.519V138.516C155.421 137.711 154.777 137.136 154.018 137.136H141.345V138.125H154.064C154.225 138.125 154.294 138.194 154.294 138.355V144.979H154.984ZM154.984 135.802C155.237 135.802 155.444 135.595 155.444 135.342V123.06H154.294V135.802H154.984ZM138.792 124.923H143.783V128.074C143.783 130.236 140.954 133.088 137.734 134.445L138.47 135.204C140.586 134.399 143.737 131.915 144.404 129.96C145.186 131.8 148.015 133.755 149.924 134.652L150.637 133.87C148.544 132.95 144.933 130.65 144.933 127.982V124.923H149.855L149.878 123.934H138.792V124.923ZM160.658 127.2C160.658 129.96 163.395 131.225 166.339 131.225C169.237 131.225 171.974 129.96 171.974 127.2C171.974 124.44 169.237 123.175 166.339 123.175C163.395 123.175 160.658 124.371 160.658 127.2ZM170.824 127.2C170.824 129.316 168.524 130.282 166.339 130.282C164.039 130.282 161.808 129.385 161.808 127.2C161.808 125.084 164.062 124.118 166.339 124.118C168.524 124.118 170.824 125.084 170.824 127.2ZM176.827 140.287C177.08 140.287 177.287 140.08 177.287 139.827V123.106H176.137V136.561H169.007V137.504H176.137V140.287H176.827ZM173.722 133.295C173.998 133.249 174.136 133.088 174.136 132.789V132.191C171.744 132.743 168.202 132.766 165.442 132.766H159.6V133.732H164.959V138.125H165.626C165.879 138.125 166.086 137.918 166.086 137.665V133.732C169.766 133.732 172.066 133.548 173.722 133.295ZM163.349 143.438C163.349 144.243 163.993 144.818 164.752 144.818H177.885C178.115 144.818 178.23 144.703 178.23 144.45V143.852H164.775C164.614 143.852 164.545 143.783 164.545 143.622V139.16H163.349V143.438ZM184.502 124.9C184.502 124.739 184.571 124.67 184.732 124.67H197.704V123.681H184.732C183.927 123.681 183.329 124.256 183.329 125.061V129.201C183.329 130.006 183.927 130.581 184.732 130.581H197.934V129.592H184.732C184.571 129.592 184.502 129.523 184.502 129.362V124.9ZM200.326 133.778C200.579 133.778 200.786 133.571 200.786 133.318V132.812H180.339V133.778H200.326ZM197.796 145.025C198.049 145.025 198.256 144.818 198.256 144.565V144.036H185.008C184.847 144.036 184.778 143.967 184.778 143.806V140.862H196.37C197.083 140.862 197.773 140.287 197.773 139.436V136.055H183.536V137.067H196.577V139.666C196.577 139.827 196.508 139.896 196.347 139.896H183.559V143.645C183.559 144.542 184.249 145.025 184.962 145.025H197.796ZM214.947 131.087H212.256C212.141 127.706 211.083 123.796 207.104 123.796C202.711 123.796 201.929 128.396 201.929 131.984C201.929 135.572 202.734 140.172 207.104 140.172C211.451 140.172 212.279 135.595 212.279 132.03H214.947V144.427H215.66C215.913 144.427 216.12 144.22 216.12 143.967V123.014H214.947V131.087ZM207.104 124.9C210.531 124.9 211.129 128.925 211.129 131.984C211.129 135.043 210.531 139.068 207.104 139.068C203.654 139.068 203.079 135.043 203.079 131.984C203.079 128.925 203.654 124.9 207.104 124.9ZM219.386 144.91H220.099C220.352 144.91 220.559 144.703 220.559 144.45V123.037H219.386V144.91ZM224.025 125.383H231.339C231.5 125.383 231.569 125.452 231.569 125.613V132.49C231.569 136.676 226.969 139.643 223.818 140.632L224.646 141.299C227.613 140.563 232.765 137.297 232.765 132.375V131.754H236.238V144.427H236.951C237.25 144.427 237.411 144.266 237.411 143.967V123.198H236.238V130.811H232.765V125.82C232.765 125.015 232.121 124.44 231.362 124.44H224.025V125.383ZM240.884 144.91H241.574C241.873 144.91 242.034 144.749 242.034 144.45V123.198H240.884V144.91ZM27.588 183.461C27.588 184.197 28.163 184.841 28.991 184.841H40.468C41.204 184.841 41.871 184.289 41.871 183.461V176.515H27.588V183.461ZM40.698 177.55V183.599C40.698 183.76 40.629 183.829 40.468 183.829H28.991C28.83 183.829 28.761 183.76 28.761 183.599V177.55H40.698ZM44.447 173.709C44.7 173.709 44.907 173.502 44.907 173.249V172.72H40.928C41.549 171.363 41.986 168.948 41.986 167.085V165.038C41.986 164.233 41.388 163.658 40.583 163.658H27.266V164.647H40.606C40.767 164.647 40.836 164.716 40.836 164.877V167.2C40.836 169.04 40.376 171.363 39.755 172.72H24.46V173.709H44.447ZM48.6718 181.253C48.6718 184.289 52.4208 185.324 56.0778 185.324C59.7348 185.324 63.4838 184.381 63.4838 181.253C63.4838 179.666 62.4488 178.585 60.9538 177.941C60.9538 177.872 60.9768 177.849 60.9768 177.78V174.077H65.8298C66.0828 174.077 66.2898 173.87 66.2898 173.617V173.111H45.8428V174.077H51.2018V177.918C49.6608 178.562 48.6718 179.62 48.6718 181.253ZM48.5108 167.499C48.5108 170.167 51.4548 171.662 56.0318 171.662C60.7928 171.662 63.5988 170.19 63.5988 167.499C63.5988 164.808 60.7928 163.29 56.0318 163.29C51.3398 163.29 48.5108 164.831 48.5108 167.499ZM49.7528 167.499C49.7528 165.774 51.5698 164.325 56.0548 164.325C60.5398 164.325 62.3568 165.774 62.3568 167.499C62.3568 169.201 60.5398 170.627 56.0548 170.627C51.5698 170.627 49.7528 169.27 49.7528 167.499ZM49.9828 181.253C49.9828 179.16 52.7658 178.148 56.0778 178.148C59.3898 178.148 62.1728 179.045 62.1728 181.253C62.1728 183.461 59.4358 184.266 56.1238 184.266C52.8118 184.266 49.9828 183.461 49.9828 181.253ZM59.8728 177.55C58.6998 177.205 57.3888 177.09 56.0778 177.09C54.7668 177.09 53.4788 177.228 52.3058 177.527V174.077H59.8728V177.55ZM83.0726 164.762C83.2336 164.762 83.3026 164.831 83.3026 164.992V168.166C83.3026 170.144 82.7506 172.743 82.2446 174.307H67.2026V175.273H72.6996V184.933H73.4126C73.6656 184.933 73.8726 184.726 73.8726 184.473V175.273H80.9336V184.933H81.6466C81.8996 184.933 82.1066 184.726 82.1066 184.473V175.273H87.2586C87.5116 175.273 87.7186 175.066 87.7186 174.813V174.307H83.5556C84.1076 172.812 84.4986 170.213 84.4986 168.189V165.153C84.4986 164.348 83.9006 163.773 83.0956 163.773H70.0086V164.762H83.0726ZM98.9584 165.452V164.44H88.7234V165.452H93.2774V171.846C93.2774 174.606 90.7244 177.642 88.2174 179.413L89.0224 180.126C91.0464 178.838 93.2774 176.124 93.9444 174.353C94.6574 175.963 96.7734 178.378 98.6364 179.551L99.4184 178.723C97.3254 177.366 94.4734 174.514 94.4734 171.8V165.452H98.9584ZM97.3714 171.823H101.787V184.427H102.477C102.73 184.427 102.937 184.22 102.937 183.967V163.06H101.787V170.88H97.3714V171.823ZM106.433 184.91H107.146C107.399 184.91 107.606 184.703 107.606 184.45V163.06H106.433V184.91ZM132.589 179.045C132.842 179.045 133.049 178.838 133.049 178.585V171.041H136.545V170.075H133.049V163.106H131.899V179.045H132.589ZM129.576 175.066C129.829 174.997 129.967 174.767 129.967 174.514V174.031C128.035 174.514 124.585 174.652 121.825 174.652V168.994H120.675V174.606H115.845V175.572H122.009C125.528 175.572 127.989 175.411 129.576 175.066ZM126.77 164.831C126.931 164.831 127 164.9 127 165.061V167.062C127 168.672 126.448 170.834 125.827 172.375H126.862C127.598 171.156 128.196 168.787 128.196 167.016V165.245C128.196 164.486 127.598 163.865 126.793 163.865H117.432V164.831H126.77ZM119.364 183.392C119.364 184.151 119.962 184.772 120.767 184.772H133.463C133.716 184.772 133.854 184.634 133.854 184.358V183.783H120.79C120.606 183.783 120.56 183.645 120.56 183.553V177.872H119.364V183.392ZM139.919 170.213H146.497C147.302 170.213 147.9 169.638 147.9 168.833V163.934H138.723V164.969H146.75V168.971C146.75 169.132 146.681 169.201 146.52 169.201H138.723V174.882C138.723 175.687 139.321 176.262 140.126 176.262C143.76 176.262 148.728 176.009 151.488 175.572V174.537C148.866 174.997 142.633 175.181 140.149 175.181C139.988 175.181 139.919 175.112 139.919 174.951V170.213ZM141.897 183.392C141.897 184.151 142.495 184.772 143.3 184.772H155.858C156.111 184.772 156.249 184.634 156.249 184.358V183.783H143.323C143.139 183.783 143.093 183.645 143.093 183.553V178.562H141.897V183.392ZM149.211 166.947H154.11V170.696H149.211V171.639H154.11V179.229H154.823C155.076 179.229 155.283 179.068 155.283 178.769V163.06H154.11V165.981H149.211V166.947ZM166.374 164.923H171.365V167.89C171.365 170.052 168.605 172.904 165.385 174.261L166.121 175.02C168.26 174.215 171.319 171.662 171.986 169.776C172.768 171.616 175.459 173.548 177.368 174.445L178.081 173.64C175.988 172.72 172.515 170.443 172.515 167.798V164.923H177.437L177.46 163.934H166.374V164.923ZM176.517 168.304V169.247H181.991V175.779H182.681C182.957 175.779 183.141 175.572 183.141 175.319V163.083H181.991V168.304H176.517ZM183.463 180.816C183.463 177.32 179.599 176.331 176.402 176.331C173.205 176.331 169.341 177.32 169.341 180.816C169.341 184.312 173.205 185.301 176.402 185.301C179.599 185.301 183.463 184.312 183.463 180.816ZM170.56 180.816C170.56 178.171 173.665 177.343 176.425 177.343C179.162 177.343 182.244 178.171 182.244 180.816C182.244 183.461 179.162 184.289 176.425 184.289C173.665 184.289 170.56 183.461 170.56 180.816ZM186.515 181.897H206.571C206.824 181.897 207.031 181.69 207.031 181.437V180.908H197.394V175.411H202.799C203.604 175.411 204.202 174.836 204.202 174.031V163.888H203.006V168.258H190.563V163.888H189.367V174.031C189.367 174.836 189.965 175.411 190.77 175.411H196.221V180.908H186.515V181.897ZM190.793 174.422C190.632 174.422 190.563 174.353 190.563 174.192V169.224H203.006V174.192C203.006 174.353 202.937 174.422 202.776 174.422H190.793ZM211.118 166.533V169.707C211.118 170.512 211.716 171.087 212.521 171.087H225.516V170.075H212.544C212.383 170.075 212.314 170.006 212.314 169.845V167.499H223.814C224.619 167.499 225.217 166.924 225.217 166.119V163.267H211.026V164.233H224.044V166.303C224.044 166.464 223.975 166.533 223.814 166.533H211.118ZM227.908 174.445C228.161 174.445 228.368 174.238 228.368 173.985V173.479H207.921V174.445H227.908ZM225.378 184.979C225.631 184.979 225.838 184.772 225.838 184.519V183.99H212.59C212.429 183.99 212.36 183.921 212.36 183.76V181.299H223.952C224.665 181.299 225.355 180.724 225.355 179.873V176.837H211.118V177.849H224.159V180.103C224.159 180.264 224.09 180.333 223.929 180.333H211.141V183.599C211.141 184.496 211.831 184.979 212.544 184.979H225.378ZM244.013 163.06H242.196V164.532C242.196 166.74 239.528 168.465 236.331 169.454L237.435 170.627C240.356 169.546 242.15 168.511 243.139 166.878C244.266 168.488 246.796 169.753 248.774 170.374L249.694 169.201C247.555 168.58 244.013 166.97 244.013 164.578V163.06ZM252.04 163.06V176.492H253.397C253.65 176.492 253.857 176.285 253.857 176.032V163.06H252.04ZM241.483 173.318V176.538H242.817C243.07 176.538 243.277 176.331 243.277 176.078V173.318C245.945 173.295 248.291 173.18 250.131 172.812C250.384 172.766 250.499 172.605 250.499 172.352V171.271C248.383 171.685 245.439 171.8 242.978 171.8H235.894V173.318H241.483ZM252.109 180.977V183.185C252.109 183.346 252.04 183.415 251.879 183.415H241.805C241.644 183.415 241.575 183.346 241.575 183.185V180.977H252.109ZM239.758 183.53C239.758 184.335 240.402 184.91 241.161 184.91H252.477C253.282 184.91 253.88 184.335 253.88 183.53V177.412H252.109V179.551H241.575V177.412H239.758V183.53ZM272.871 170.029C272.871 172.421 271.951 175.802 271.1 177.458H272.94C273.975 175.641 274.734 172.467 274.734 169.914V165.59C274.734 164.785 274.09 164.21 273.331 164.21H259.508V165.728H272.641C272.802 165.728 272.871 165.797 272.871 165.958V170.029ZM277.425 180.494H266.224V171.041H264.407V180.494H256.817V181.989H277.011C277.287 181.989 277.425 181.828 277.425 181.506V180.494ZM291.575 163.428H289.735V168.534C289.735 171.202 286.584 173.617 283.893 175.02L285.112 176.193C287.711 174.79 289.62 173.019 290.701 171.34C291.713 172.904 294.519 174.905 296.336 175.687L297.417 174.537C294.657 173.134 291.575 171.179 291.575 168.534V163.428ZM301.81 178.93C302.109 178.93 302.247 178.792 302.247 178.493V163.06H300.407V178.93H301.81ZM303.121 183.323H290.333C290.172 183.323 290.103 183.254 290.103 183.093V177.849L288.263 177.872V183.461C288.263 184.266 288.861 184.864 289.666 184.864H302.684C302.983 184.864 303.121 184.726 303.121 184.427V183.323ZM317.029 163.106H315.212V164.877C315.212 167.43 310.474 169.799 307.691 170.627L308.749 171.869C311.394 171.018 314.706 169.316 316.109 167.131C317.512 169.201 321.146 171.202 323.469 171.823L324.481 170.581C322.112 169.937 317.029 167.522 317.029 164.946V163.106ZM326.344 174.192H317.052V170.696H315.212V174.192H305.782V175.733H325.884C326.137 175.733 326.344 175.549 326.344 175.273V174.192ZM323.423 179.068C323.423 178.263 322.779 177.688 322.02 177.688H308.542V179.229H321.376C321.537 179.229 321.606 179.298 321.606 179.459V185.048H322.963C323.216 185.048 323.423 184.841 323.423 184.588V179.068ZM339.239 174.974C339.239 171.961 336.847 169.385 333.466 169.385C330.085 169.385 327.693 171.938 327.693 174.974C327.693 178.056 330.062 180.563 333.466 180.563C336.87 180.563 339.239 178.01 339.239 174.974ZM340.044 167.982V166.464H334.409V163.083H332.546V166.464H326.98V167.982H340.044ZM329.51 174.951C329.51 172.858 331.12 170.995 333.466 170.995C335.858 170.995 337.445 172.858 337.445 174.951C337.445 177.251 335.766 178.953 333.466 178.953C331.189 178.953 329.51 177.205 329.51 174.951ZM347.772 172.122H344.322V163.037H342.528V184.933H343.862C344.115 184.933 344.322 184.726 344.322 184.473V173.663H347.772V172.122ZM361.381 170.604H358.46V165.728C358.46 164.923 357.816 164.348 357.057 164.348H349.467V165.843H356.413C356.574 165.843 356.643 165.912 356.643 166.073L356.666 171.754C356.666 176.101 353.584 178.608 349.099 180.333L350.203 181.46C354.205 180.103 358.138 177.228 358.437 172.099H361.381V184.427H362.738C362.991 184.427 363.198 184.243 363.198 183.967V163.129H361.381V170.604ZM366.027 184.933H367.338C367.637 184.933 367.798 184.772 367.798 184.473V163.129H366.027V184.933ZM386.548 165.452V164.44H376.313V165.452H380.867V171.846C380.867 174.606 378.314 177.642 375.807 179.413L376.612 180.126C378.636 178.838 380.867 176.124 381.534 174.353C382.247 175.963 384.363 178.378 386.226 179.551L387.008 178.723C384.915 177.366 382.063 174.514 382.063 171.8V165.452H386.548ZM384.961 171.823H389.377V184.427H390.067C390.32 184.427 390.527 184.22 390.527 183.967V163.06H389.377V170.88H384.961V171.823ZM394.023 184.91H394.736C394.989 184.91 395.196 184.703 395.196 184.45V163.06H394.023V184.91ZM413.773 164.601C413.934 164.601 414.003 164.67 414.003 164.831V166.993C414.003 168.281 413.474 170.236 412.922 171.455H414.049C414.785 170.029 415.153 168.143 415.153 166.924V164.992C415.153 164.187 414.555 163.612 413.75 163.612H400.41V164.601H413.773ZM397.581 174.307H417.568C417.821 174.307 418.028 174.123 418.028 173.847V173.318H407.471V168.166H406.275V173.318H397.581V174.307ZM415.245 180.701C415.245 177.205 411.22 176.216 407.77 176.216C404.274 176.216 400.249 177.205 400.249 180.701C400.249 184.197 404.274 185.186 407.77 185.186C411.22 185.186 415.245 184.197 415.245 180.701ZM401.514 180.701C401.514 177.918 404.849 177.228 407.747 177.228C410.645 177.228 413.98 177.918 413.98 180.701C413.98 183.484 410.645 184.174 407.747 184.174C404.849 184.174 401.514 183.484 401.514 180.701ZM430.809 174.974C430.809 171.961 428.486 169.477 425.174 169.477C421.862 169.477 419.539 171.961 419.539 174.974C419.539 177.964 421.862 180.448 425.174 180.448C428.486 180.448 430.809 177.964 430.809 174.974ZM431.66 167.706V166.74H425.795V163.129H424.576V166.74H418.78V167.706H431.66ZM420.735 174.951C420.735 172.628 422.529 170.581 425.174 170.581C427.819 170.581 429.613 172.628 429.613 174.951C429.613 177.366 427.819 179.344 425.174 179.344C422.529 179.344 420.735 177.274 420.735 174.951ZM439.434 172.375H435.754V163.037H434.581V184.91H435.294C435.547 184.91 435.754 184.703 435.754 184.45V173.341H439.434V172.375ZM458.034 184.91C458.287 184.91 458.494 184.703 458.494 184.45V163.037H457.321V167.43H452.376C451.479 165.314 449.915 163.842 447.431 163.842C443.452 163.842 441.681 167.752 441.681 171.961C441.681 176.124 443.452 180.034 447.431 180.034C449.8 180.034 451.341 178.677 452.238 176.722H457.321V184.91H458.034ZM442.854 171.938C442.854 168.396 444.211 164.854 447.454 164.854C450.651 164.854 452.008 168.396 452.008 171.938C452.008 175.48 450.651 179.022 447.454 179.022C444.211 179.022 442.854 175.48 442.854 171.938ZM453.181 171.961C453.181 170.696 453.02 169.5 452.698 168.396H457.321V175.733H452.629C452.997 174.583 453.181 173.318 453.181 171.961ZM44.447 215.664C44.7 215.664 44.907 215.457 44.907 215.204V214.675H24.46V215.664H44.447ZM27.496 223.392C27.496 224.197 28.14 224.772 28.899 224.772H42.124C42.354 224.772 42.469 224.657 42.469 224.404V223.806H28.922C28.761 223.806 28.692 223.737 28.692 223.576V218.355H27.496V223.392ZM42.262 207.798C42.262 205.36 40.008 203.175 34.741 203.175C29.451 203.175 27.22 205.36 27.22 207.798C27.22 210.259 29.451 212.444 34.741 212.444C40.008 212.444 42.262 210.259 42.262 207.798ZM28.508 207.798C28.508 205.958 30.302 204.233 34.741 204.233C39.18 204.233 40.974 205.958 40.974 207.798C40.974 209.684 39.18 211.386 34.741 211.386C30.302 211.386 28.508 209.684 28.508 207.798ZM48.2348 212.076C48.2348 210.144 49.7988 209.017 51.8228 209.017C53.7778 209.017 55.3648 210.167 55.3648 212.076C55.3648 214.008 53.7318 215.135 51.8228 215.135C49.8678 215.135 48.2348 213.985 48.2348 212.076ZM47.0618 212.076C47.0618 214.652 49.2468 216.17 51.8228 216.17C54.4448 216.17 56.5148 214.537 56.5148 212.076C56.5148 209.592 54.4908 207.982 51.8228 207.982C49.1548 207.982 47.0618 209.592 47.0618 212.076ZM57.0208 206.556V205.544H52.3058V202.669H51.1328V205.544H46.3718V206.556H57.0208ZM58.8378 215.756H59.5508C59.8498 215.756 60.0108 215.595 60.0108 215.296V209.983H63.5298V216.538H64.2428C64.5418 216.538 64.7028 216.331 64.7028 216.078V203.06H63.5298V209.017H60.0108V203.06H58.8378V215.756ZM64.7028 221.253C64.7028 217.918 60.8388 217.205 57.6418 217.205C54.4448 217.205 50.5808 217.918 50.5808 221.253C50.5808 224.565 54.4448 225.278 57.6418 225.278C60.8388 225.278 64.7028 224.565 64.7028 221.253ZM51.8228 221.253C51.8228 218.792 54.8588 218.217 57.6188 218.217C60.4018 218.217 63.4608 218.792 63.4608 221.253C63.4608 223.714 60.4018 224.266 57.6188 224.266C54.8588 224.266 51.8228 223.714 51.8228 221.253ZM84.9816 207.2C84.9816 204.693 81.8766 203.175 77.4376 203.175C72.9986 203.175 69.8936 204.693 69.8936 207.2C69.8936 209.707 72.9986 211.225 77.4376 211.225C81.8766 211.225 84.9816 209.707 84.9816 207.2ZM83.7396 207.2C83.7396 209.132 81.1176 210.19 77.4376 210.19C73.7576 210.19 71.1356 209.132 71.1356 207.2C71.1356 205.268 73.7576 204.21 77.4376 204.21C81.1176 204.21 83.7396 205.268 83.7396 207.2ZM87.2126 213.985C87.4656 213.985 87.6726 213.778 87.6726 213.525V212.996H67.2256V213.985H87.2126ZM84.6136 225.025C84.8666 225.025 85.0736 224.818 85.0736 224.565V224.036H71.9176C71.7566 224.036 71.6876 223.967 71.6876 223.806V220.977H83.1876C83.9006 220.977 84.5906 220.448 84.5906 219.597V216.193H70.4456V217.205H83.3946V219.781C83.3946 219.942 83.3256 220.011 83.1646 220.011H70.4686V223.645C70.4686 224.542 71.1586 225.025 71.8716 225.025H84.6136ZM112.219 225.025C112.472 225.025 112.679 224.818 112.679 224.565V224.036H99.3847C99.2237 224.036 99.1547 223.967 99.1547 223.806V220.908H110.793C111.506 220.908 112.196 220.402 112.196 219.551V216.101H105.687V213.387H114.818C115.071 213.387 115.278 213.18 115.278 212.927V212.398H94.8077V213.387H104.514V216.101H97.9127V217.113H111V219.712C111 219.873 110.931 219.942 110.77 219.942H97.9357V223.645C97.9357 224.542 98.6257 225.025 99.3387 225.025H112.219ZM98.9707 204.647C98.9707 204.486 99.0397 204.417 99.2007 204.417H112.173V203.428H99.2007C98.3957 203.428 97.7977 204.003 97.7977 204.808V208.902C97.7977 209.707 98.3957 210.282 99.2007 210.282H112.403V209.293H99.2007C99.0397 209.293 98.9707 209.224 98.9707 209.063V204.647ZM118.904 212.076H125.781C126.586 212.076 127.184 211.501 127.184 210.696V204.348H117.731V205.337H126.057V210.857C126.057 211.018 125.988 211.087 125.827 211.087H117.731V218.263C117.731 219.068 118.329 219.643 119.134 219.643C122.768 219.643 127.414 219.413 130.151 218.976V218.033C127.529 218.401 122.492 218.7 119.134 218.631C118.973 218.631 118.904 218.562 118.904 218.401V212.076ZM132.865 224.91H133.555C133.808 224.91 134.015 224.703 134.015 224.45V203.106H132.865V211.087H128.173V212.053H132.865V224.91ZM141.253 223.392C141.253 224.151 141.851 224.772 142.656 224.772H154.915C155.168 224.772 155.306 224.634 155.306 224.358V223.783H142.679C142.495 223.783 142.449 223.645 142.449 223.553V217.849H141.253V223.392ZM153.811 218.907C154.064 218.907 154.271 218.7 154.271 218.447V210.604H158.043V209.638H154.271V203.106H153.098V218.907H153.811ZM141.943 203.474H140.793V208.994C140.793 211.11 139.459 213.134 137.412 214.698L138.125 215.388C139.551 214.33 140.862 212.697 141.368 211.455C142.035 212.95 143.185 214.445 144.197 215.296C145.186 214.376 146.474 212.743 147.026 211.432C148.061 213.318 149.142 214.33 150.315 215.319L151.074 214.606C149.372 213.456 147.578 211.202 147.578 209.178V203.474H146.428V209.247C146.428 211.018 145.209 212.743 144.174 213.962C143.185 212.904 141.943 211.064 141.943 209.086V203.474ZM181.002 204.762C181.163 204.762 181.232 204.831 181.232 204.992V208.166C181.232 210.144 180.68 212.743 180.174 214.307H165.132V215.273H170.629V224.933H171.342C171.595 224.933 171.802 224.726 171.802 224.473V215.273H178.863V224.933H179.576C179.829 224.933 180.036 224.726 180.036 224.473V215.273H185.188C185.441 215.273 185.648 215.066 185.648 214.813V214.307H181.485C182.037 212.812 182.428 210.213 182.428 208.189V205.153C182.428 204.348 181.83 203.773 181.025 203.773H167.938V204.762H181.002ZM196.888 205.452V204.44H186.653V205.452H191.207V211.846C191.207 214.606 188.654 217.642 186.147 219.413L186.952 220.126C188.976 218.838 191.207 216.124 191.874 214.353C192.587 215.963 194.703 218.378 196.566 219.551L197.348 218.723C195.255 217.366 192.403 214.514 192.403 211.8V205.452H196.888ZM195.301 211.823H199.717V224.427H200.407C200.66 224.427 200.867 224.22 200.867 223.967V203.06H199.717V210.88H195.301V211.823ZM204.363 224.91H205.076C205.329 224.91 205.536 224.703 205.536 224.45V203.06H204.363V224.91ZM221.652 217.159C221.905 217.09 222.043 216.86 222.043 216.607V216.101C220.111 216.561 217.604 216.676 215.281 216.676V214.238C218.11 214.123 220.41 212.927 220.41 210.811C220.41 208.534 217.765 207.384 214.706 207.384C211.647 207.384 209.002 208.534 209.002 210.811C209.002 212.927 211.302 214.1 214.131 214.215V216.653H208.013V217.619H213.97C217.489 217.619 220.065 217.504 221.652 217.159ZM210.221 210.811C210.221 209.04 212.567 208.396 214.706 208.396C216.845 208.396 219.191 209.04 219.191 210.811C219.191 212.582 216.845 213.226 214.706 213.226C212.567 213.226 210.221 212.582 210.221 210.811ZM224.412 219.735C224.665 219.735 224.872 219.528 224.872 219.275V212.214H228.529V211.248H224.872V203.106H223.722V219.735H224.412ZM211.509 223.392C211.509 224.151 212.107 224.772 212.912 224.772H225.654C225.907 224.772 226.045 224.634 226.045 224.358V223.783H212.935C212.751 223.783 212.705 223.645 212.705 223.553V219.275H211.509V223.392ZM208.335 206.096H220.985V205.107H215.189V202.347H214.039V205.107H208.335V206.096ZM247.405 220.793C247.405 217.297 243.357 216.308 240.344 216.308C237.308 216.308 233.283 217.297 233.283 220.793C233.283 224.289 237.4 225.278 240.344 225.278C243.449 225.278 247.405 224.289 247.405 220.793ZM234.502 220.793C234.502 218.148 237.86 217.343 240.321 217.343C242.805 217.343 246.186 218.102 246.186 220.793C246.186 223.507 242.805 224.289 240.321 224.289C237.929 224.289 234.502 223.507 234.502 220.793ZM230.73 204.923H238.619C238.803 204.923 238.849 205.061 238.849 205.153V208.419C238.849 212.237 234.019 214.031 230.592 214.767L231.328 215.595C235.215 214.606 240.068 212.766 240.068 208.327V206.809H245.956V211.8H239.47V212.743H245.956V215.779H246.669C246.922 215.779 247.129 215.618 247.129 215.319V203.06H245.956V205.843H240.068V205.314C240.068 204.647 239.562 203.934 238.665 203.934H230.73V204.923ZM258.358 214.261C258.358 215.066 258.956 215.641 259.761 215.641H267.144C267.949 215.641 268.547 215.066 268.547 214.261V212.858H273.722V218.884H274.435C274.688 218.884 274.895 218.723 274.895 218.424V203.06H273.722V206.533H268.547V203.474H267.374V208.074H259.508V203.474H258.358V214.261ZM267.374 209.063V214.422C267.374 214.583 267.305 214.652 267.144 214.652H259.738C259.577 214.652 259.508 214.583 259.508 214.422V209.063H267.374ZM268.547 211.915V207.499H273.722V211.915H268.547ZM261.371 223.392C261.371 224.151 261.969 224.772 262.774 224.772H275.493C275.746 224.772 275.884 224.634 275.884 224.358V223.783H262.797C262.613 223.783 262.567 223.645 262.567 223.553V218.171H261.371V223.392ZM292.092 220.172C292.345 220.103 292.483 219.873 292.483 219.62V219.137C290.528 219.574 287.423 219.735 285.514 219.735V216.607C288.458 216.423 290.597 214.652 290.597 212.283C290.597 209.776 288.205 207.959 285.008 207.959C281.811 207.959 279.419 209.776 279.419 212.283C279.419 214.629 281.489 216.331 284.364 216.584V219.735H277.924V220.701H284.088C287.607 220.701 290.505 220.517 292.092 220.172ZM280.569 212.283C280.569 210.259 282.547 208.994 285.008 208.994C287.469 208.994 289.447 210.259 289.447 212.283C289.447 214.307 287.469 215.572 285.008 215.572C282.547 215.572 280.569 214.307 280.569 212.283ZM294.944 224.91C295.197 224.91 295.404 224.726 295.404 224.45V212.927H298.969V211.961H295.404V203.106H294.254V224.91H294.944ZM291.517 205.774H285.468V202.853H284.295V205.774H278.361V206.74H291.517V205.774ZM312.876 211.087H310.185C310.07 207.706 309.012 203.796 305.033 203.796C300.64 203.796 299.858 208.396 299.858 211.984C299.858 215.572 300.663 220.172 305.033 220.172C309.38 220.172 310.208 215.595 310.208 212.03H312.876V224.427H313.589C313.842 224.427 314.049 224.22 314.049 223.967V203.014H312.876V211.087ZM305.033 204.9C308.46 204.9 309.058 208.925 309.058 211.984C309.058 215.043 308.46 219.068 305.033 219.068C301.583 219.068 301.008 215.043 301.008 211.984C301.008 208.925 301.583 204.9 305.033 204.9ZM317.315 224.91H318.028C318.281 224.91 318.488 224.703 318.488 224.45V203.037H317.315V224.91ZM329.395 218.378C329.234 218.378 329.165 218.309 329.165 218.148V205.682C329.165 205.521 329.234 205.452 329.395 205.452H336.364V204.44H329.395C328.59 204.44 327.992 205.015 327.992 205.82V218.01C327.992 218.815 328.59 219.367 329.395 219.39C331.81 219.459 335.996 219.137 337.905 218.838V217.895C335.03 218.263 331.534 218.493 329.395 218.378ZM345.633 224.91C345.886 224.91 346.093 224.703 346.093 224.45V203.106H344.943V210.995H340.803V203.106H339.653V224.427H340.343C340.596 224.427 340.803 224.22 340.803 223.967V211.938H344.943V224.91H345.633ZM359.587 212.421C359.587 209.937 357.356 208.051 354.527 208.051C351.675 208.051 349.444 209.937 349.444 212.421C349.444 214.928 351.675 216.814 354.527 216.814C357.287 216.814 359.587 214.836 359.587 212.421ZM360.3 206.625V205.613H355.056V202.646H353.86V205.613H348.593V206.625H360.3ZM350.64 212.421C350.64 210.282 352.411 209.063 354.504 209.063C356.597 209.063 358.391 210.282 358.391 212.421C358.391 214.537 356.597 215.825 354.504 215.825C352.411 215.825 350.64 214.491 350.64 212.421ZM351.836 223.392C351.836 224.151 352.434 224.772 353.239 224.772H365.613C365.866 224.772 366.004 224.634 366.004 224.358V223.783H353.262C353.078 223.783 353.032 223.645 353.032 223.553V218.493H351.836V223.392ZM364.417 219.137C364.67 219.137 364.877 218.93 364.877 218.677V211.248H368.557V210.282H364.877V203.106H363.704V219.137H364.417ZM27.473 249.546C27.473 250.305 28.071 250.926 28.876 250.926H42.239V249.96H28.876C28.692 249.96 28.646 249.822 28.646 249.73V243.014H27.473V249.546ZM44.447 254.445C44.7 254.445 44.907 254.238 44.907 253.985V253.456H24.46V254.445H44.447ZM42.423 260.977C42.423 257.711 38.306 256.607 34.833 256.607C31.314 256.607 27.174 257.711 27.174 260.977C27.174 264.243 31.314 265.347 34.833 265.347C38.306 265.347 42.423 264.243 42.423 260.977ZM28.416 260.977C28.416 258.447 31.728 257.642 34.764 257.642C37.8 257.642 41.089 258.447 41.089 260.977C41.089 263.507 37.8 264.312 34.764 264.312C31.728 264.312 28.416 263.507 28.416 260.977ZM48.6948 261.023C48.6948 264.243 52.6278 265.163 56.1238 265.163C59.5968 265.163 63.5758 264.243 63.5758 261.023C63.5758 257.803 59.5968 256.883 56.1238 256.883C52.6278 256.883 48.6948 257.803 48.6948 261.023ZM49.9598 261.023C49.9598 258.746 52.9728 257.872 56.1238 257.872C59.2518 257.872 62.3108 258.746 62.3108 261.023C62.3108 263.3 59.2518 264.174 56.1238 264.174C52.9728 264.174 49.9598 263.3 49.9598 261.023ZM48.8788 249.73C48.8788 250.535 49.4768 251.11 50.2818 251.11H55.5488V254.238H45.8428V255.227H65.9218C66.1748 255.227 66.2898 255.066 66.2898 254.721V254.238H56.6988V251.11H63.4378V250.121H50.2818C50.1208 250.121 50.0518 250.052 50.0518 249.891V244.9C50.0518 244.739 50.1208 244.67 50.2818 244.67H63.2078V243.681H50.2818C49.4768 243.681 48.8788 244.256 48.8788 245.061V249.73ZM84.7516 265.186C85.0046 265.186 85.2116 264.979 85.2116 264.726V258.516C85.2116 257.711 84.5676 257.136 83.8086 257.136H71.0666V258.125H83.8086C83.9696 258.125 84.0386 258.194 84.0386 258.355V265.186H84.7516ZM78.5876 248.143V249.086H84.0616V255.802H84.7516C85.0276 255.802 85.2116 255.595 85.2116 255.342V243.129H84.0616V248.143H78.5876ZM68.3526 244.923H73.3436V248.074C73.3436 250.236 70.5836 253.088 67.3636 254.445L68.0996 255.204C70.2156 254.399 73.2976 251.915 73.9646 249.96C74.7466 251.8 77.5756 253.755 79.4846 254.652L80.1976 253.847C78.1046 252.927 74.4936 250.627 74.4936 247.982V244.923H79.4156L79.4386 243.934H68.3526V244.923ZM96.9697 258.378C96.8087 258.378 96.7397 258.309 96.7397 258.148V245.682C96.7397 245.521 96.8087 245.452 96.9697 245.452H103.939V244.44H96.9697C96.1647 244.44 95.5667 245.015 95.5667 245.82V258.01C95.5667 258.815 96.1647 259.367 96.9697 259.39C99.3847 259.459 103.571 259.137 105.48 258.838V257.895C102.605 258.263 99.1087 258.493 96.9697 258.378ZM113.208 264.91C113.461 264.91 113.668 264.703 113.668 264.45V243.106H112.518V250.995H108.378V243.106H107.228V264.427H107.918C108.171 264.427 108.378 264.22 108.378 263.967V251.938H112.518V264.91H113.208ZM133.946 247.476C133.946 244.785 131.14 243.29 126.379 243.29C121.687 243.29 118.858 244.808 118.858 247.476C118.858 250.144 121.687 251.662 126.379 251.662C131.14 251.662 133.946 250.167 133.946 247.476ZM120.1 247.476C120.1 245.774 121.917 244.325 126.402 244.325C130.887 244.325 132.704 245.774 132.704 247.476C132.704 249.201 130.887 250.627 126.402 250.627C121.917 250.627 120.1 249.201 120.1 247.476ZM136.177 254.744C136.43 254.744 136.637 254.537 136.637 254.284V253.755H116.19V254.744H136.177ZM133.831 261.138C133.831 258.079 130.082 256.929 126.425 256.929C122.768 256.929 119.019 258.033 119.019 261.138C119.019 264.174 122.768 265.255 126.425 265.255C130.082 265.255 133.831 264.243 133.831 261.138ZM120.33 261.138C120.33 259.045 123.113 257.987 126.425 257.987C129.737 257.987 132.52 258.93 132.52 261.138C132.52 263.369 129.783 264.197 126.471 264.197C123.159 264.197 120.33 263.369 120.33 261.138ZM155.329 247.2C155.329 244.693 152.224 243.175 147.785 243.175C143.346 243.175 140.241 244.693 140.241 247.2C140.241 249.707 143.346 251.225 147.785 251.225C152.224 251.225 155.329 249.707 155.329 247.2ZM154.087 247.2C154.087 249.132 151.465 250.19 147.785 250.19C144.105 250.19 141.483 249.132 141.483 247.2C141.483 245.268 144.105 244.21 147.785 244.21C151.465 244.21 154.087 245.268 154.087 247.2ZM157.56 253.985C157.813 253.985 158.02 253.778 158.02 253.525V252.996H137.573V253.985H157.56ZM154.961 265.025C155.214 265.025 155.421 264.818 155.421 264.565V264.036H142.265C142.104 264.036 142.035 263.967 142.035 263.806V260.977H153.535C154.248 260.977 154.938 260.448 154.938 259.597V256.193H140.793V257.205H153.742V259.781C153.742 259.942 153.673 260.011 153.512 260.011H140.816V263.645C140.816 264.542 141.506 265.025 142.219 265.025H154.961ZM166.397 245.429H171.664V251.248C171.664 253.778 168.306 257.251 165.592 258.976L166.443 259.735C168.536 258.562 171.572 255.227 172.308 253.41C173.044 255.227 175.988 258.263 177.966 259.367L178.771 258.585C176.379 257.228 172.837 253.732 172.837 251.248V245.429H178.242V244.44H166.397V245.429ZM182.543 264.91C182.796 264.91 183.003 264.703 183.003 264.45V243.06H181.853V264.91H182.543ZM188.24 247.2C188.24 249.96 190.977 251.225 193.921 251.225C196.819 251.225 199.556 249.96 199.556 247.2C199.556 244.44 196.819 243.175 193.921 243.175C190.977 243.175 188.24 244.371 188.24 247.2ZM198.406 247.2C198.406 249.316 196.106 250.282 193.921 250.282C191.621 250.282 189.39 249.385 189.39 247.2C189.39 245.084 191.644 244.118 193.921 244.118C196.106 244.118 198.406 245.084 198.406 247.2ZM204.409 260.287C204.662 260.287 204.869 260.08 204.869 259.827V243.106H203.719V256.561H196.589V257.504H203.719V260.287H204.409ZM201.304 253.295C201.58 253.249 201.718 253.088 201.718 252.789V252.191C199.326 252.743 195.784 252.766 193.024 252.766H187.182V253.732H192.541V258.125H193.208C193.461 258.125 193.668 257.918 193.668 257.665V253.732C197.348 253.732 199.648 253.548 201.304 253.295ZM190.931 263.438C190.931 264.243 191.575 264.818 192.334 264.818H205.467C205.697 264.818 205.812 264.703 205.812 264.45V263.852H192.357C192.196 263.852 192.127 263.783 192.127 263.622V259.16H190.931V263.438ZM219.766 254.974C219.766 251.961 217.443 249.477 214.131 249.477C210.819 249.477 208.496 251.961 208.496 254.974C208.496 257.964 210.819 260.448 214.131 260.448C217.443 260.448 219.766 257.964 219.766 254.974ZM220.617 247.706V246.74H214.752V243.129H213.533V246.74H207.737V247.706H220.617ZM209.692 254.951C209.692 252.628 211.486 250.581 214.131 250.581C216.776 250.581 218.57 252.628 218.57 254.951C218.57 257.366 216.776 259.344 214.131 259.344C211.486 259.344 209.692 257.274 209.692 254.951ZM228.391 252.375H224.711V243.037H223.538V264.91H224.251C224.504 264.91 224.711 264.703 224.711 264.45V253.341H228.391V252.375ZM247.382 264.91C247.635 264.91 247.842 264.703 247.842 264.45V243.06H246.692V264.91H247.382ZM231.788 261.322C236.296 260.103 241.126 257.527 241.425 252.605V245.774C241.425 244.969 240.781 244.394 240.022 244.394H231.305V245.36H239.999C240.16 245.36 240.229 245.429 240.229 245.59V252.628C240.229 257.113 234.617 259.62 231.098 260.448L231.788 261.322ZM270.456 248.327C270.456 245.429 267.857 243.405 264.43 243.405C261.003 243.405 258.404 245.429 258.404 248.327C258.404 251.202 261.003 253.203 264.43 253.203C267.857 253.203 270.456 251.202 270.456 248.327ZM259.6 248.327C259.6 246.119 261.509 244.44 264.43 244.44C267.351 244.44 269.26 246.027 269.26 248.327C269.26 250.627 267.351 252.168 264.43 252.168C261.509 252.168 259.6 250.627 259.6 248.327ZM271.813 256.101C272.089 256.055 272.227 255.894 272.227 255.595V255.066C269.835 255.549 266.155 255.549 263.418 255.549H257.576V256.515H263.487V263.392H264.154C264.407 263.392 264.614 263.185 264.614 262.932V256.515C267.811 256.515 270.157 256.354 271.813 256.101ZM274.688 264.91C274.941 264.91 275.148 264.703 275.148 264.45V243.06H273.998V264.91H274.688ZM289.24 252.421C289.24 249.937 287.009 248.051 284.18 248.051C281.328 248.051 279.097 249.937 279.097 252.421C279.097 254.928 281.328 256.814 284.18 256.814C286.94 256.814 289.24 254.836 289.24 252.421ZM289.953 246.625V245.613H284.709V242.646H283.513V245.613H278.246V246.625H289.953ZM280.293 252.421C280.293 250.282 282.064 249.063 284.157 249.063C286.25 249.063 288.044 250.282 288.044 252.421C288.044 254.537 286.25 255.825 284.157 255.825C282.064 255.825 280.293 254.491 280.293 252.421ZM281.489 263.392C281.489 264.151 282.087 264.772 282.892 264.772H295.266C295.519 264.772 295.657 264.634 295.657 264.358V263.783H282.915C282.731 263.783 282.685 263.645 282.685 263.553V258.493H281.489V263.392ZM294.07 259.137C294.323 259.137 294.53 258.93 294.53 258.677V251.248H298.21V250.282H294.53V243.106H293.357V259.137H294.07ZM305.828 261.897H325.884C326.137 261.897 326.344 261.69 326.344 261.437V260.908H316.707V255.365H324.872V254.399H321.077C321.146 254.169 321.169 253.916 321.169 253.64V245.199H324.389V244.21H307.737V245.199H310.934V253.64C310.934 253.916 310.957 254.169 311.026 254.399H307.3V255.365H315.534V260.908H305.828V261.897ZM312.383 254.399C312.222 254.399 312.153 254.33 312.153 254.169V245.199H319.973V254.169C319.973 254.33 319.904 254.399 319.743 254.399H312.383ZM329.648 248.971H337.767V247.982H329.648V244.969C329.648 244.808 329.717 244.739 329.878 244.739H338.043V243.727H329.901C329.073 243.727 328.498 244.348 328.498 245.107V252.444C328.498 253.203 329.073 253.824 329.901 253.824C332.339 253.824 338.112 253.617 340.918 252.95V252.007C338.273 252.559 333.42 252.858 329.878 252.858C329.717 252.858 329.648 252.789 329.648 252.628V248.971ZM339.009 247.568V248.511H343.747V254.491H344.437C344.713 254.491 344.897 254.284 344.897 254.031V243.129H343.747V247.568H339.009ZM344.874 265.025C345.127 265.025 345.334 264.818 345.334 264.565V264.036H332.73C332.569 264.036 332.5 263.967 332.5 263.806V260.793H343.448C344.161 260.793 344.851 260.586 344.851 259.735V255.871H331.258V256.883H343.655V259.597C343.655 259.758 343.586 259.827 343.425 259.827H331.281V263.645C331.281 264.542 331.971 265.025 332.684 265.025H344.874ZM349.421 248.603C349.421 251.869 352.089 253.847 355.171 253.847C358.368 253.847 360.852 251.639 360.783 248.603C360.714 245.36 358.391 243.405 355.171 243.405C351.928 243.405 349.421 245.429 349.421 248.603ZM350.571 248.603C350.571 246.096 352.595 244.44 355.171 244.44C357.724 244.44 359.656 246.004 359.656 248.603C359.725 250.995 357.678 252.812 355.171 252.812C352.687 252.812 350.571 251.248 350.571 248.603ZM365.82 254.836C366.073 254.836 366.28 254.629 366.28 254.376V243.06H365.13V254.836H365.82ZM365.084 260.011V263.622C365.084 263.783 365.015 263.852 364.854 263.852H354.343C354.182 263.852 354.113 263.783 354.113 263.622V260.011H365.084ZM352.917 263.461C352.917 264.289 353.584 264.841 354.32 264.841H364.808C365.613 264.841 366.211 264.22 366.211 263.461V256.101H365.084V259.045H354.113V256.101H352.917V263.461ZM387.387 264.91C387.64 264.91 387.847 264.703 387.847 264.45V243.06H386.697V264.91H387.387ZM371.954 257.941C371.954 258.7 372.552 259.344 373.357 259.321C376.968 259.229 380.579 259.206 384.328 258.631V257.642C381.246 258.125 376.439 258.355 373.334 258.355C373.15 258.355 373.104 258.217 373.104 258.125V243.842H371.954V257.941ZM393.176 245.567C393.176 245.406 393.245 245.337 393.406 245.337H402.215V244.348H393.429C392.624 244.348 392.026 244.923 392.026 245.728V258.01C392.026 258.815 392.624 259.39 393.429 259.39C397.017 259.39 401.364 259.275 404.676 258.907V257.918C401.479 258.286 396.534 258.447 393.406 258.378C393.245 258.378 393.176 258.309 393.176 258.148V245.567ZM411.507 250.903H407.827V243.037H406.654V264.91H407.367C407.62 264.91 407.827 264.703 407.827 264.45V251.869H411.507V250.903ZM414.03 260.655V262.495H415.571V260.655H414.03Z" fill="black"/>
<rect x="24" y="93.0001" width="450" height="1" fill="#2B347B" fill-opacity="0.5"/>
<path d="M49.158 48.046V65.182H51.636C52.098 65.182 52.476 64.804 52.476 64.342V48.046H61.464C61.926 48.046 62.304 47.668 62.304 47.206V45.232H55.038C56.172 42.334 56.592 37.714 56.592 34.312V28.936C56.592 27.55 55.5 26.416 54.03 26.416H29.628V29.23H52.812C53.106 29.23 53.232 29.356 53.232 29.65V34.186C53.232 37.714 52.644 42.334 51.636 45.232H24.714V48.046H34.248V65.182H36.726C37.188 65.182 37.566 64.804 37.566 64.342V48.046H49.158ZM82.8289 30.364V27.592H64.0549V30.364H71.8249V41.41C71.8249 45.694 67.3729 51.49 62.7109 54.724C63.5089 55.438 64.1809 56.152 64.9789 56.824C68.4649 54.43 72.2029 49.894 73.6729 46.828C74.9749 49.558 78.6709 53.716 81.9049 55.816C82.5769 55.018 83.2909 54.304 83.9629 53.506C80.2249 51.028 75.1849 45.82 75.1849 41.494V30.364H82.8289ZM89.5489 64.258C89.8849 64.258 90.3469 64.048 90.3889 63.418V25.24H87.0709V38.974H79.6369V41.746H87.0709V64.258H89.5489ZM97.9909 65.182C98.3689 65.182 98.8309 64.972 98.8309 64.342V25.24H95.5129V65.182H97.9909ZM107.764 52.498C107.47 52.498 107.344 52.372 107.344 52.078V30.742C107.344 30.448 107.47 30.322 107.764 30.322H119.776V27.592H106.63C105.16 27.592 104.068 28.642 104.068 30.112V52.708C104.068 54.892 105.874 55.228 107.848 55.228C113.392 55.228 118.726 54.724 122.464 54.262V51.574C116.878 52.246 112.3 52.624 107.764 52.498ZM137.836 25.324H134.56V39.268H128.26V25.324H124.984V64.258H127.42C127.882 64.258 128.26 63.88 128.26 63.418V41.998H134.56V65.14H136.996C137.458 65.14 137.836 64.762 137.836 64.3V25.324ZM146.769 33.346C146.769 38.554 152.397 41.032 160.629 41.032C169.029 41.032 174.489 38.344 174.489 33.346C174.489 28.222 168.567 25.576 160.629 25.576C152.565 25.576 146.769 28.18 146.769 33.346ZM150.213 33.346C150.213 30.364 153.825 28.306 160.671 28.306C167.349 28.306 171.045 30.364 171.045 33.346C171.045 36.244 167.349 38.302 160.671 38.302C153.783 38.302 150.213 36.244 150.213 33.346ZM146.937 58.252C146.937 63.796 153.951 65.896 160.713 65.896C167.643 65.896 174.363 63.628 174.363 58.252C174.363 52.75 167.391 50.482 160.713 50.482C153.951 50.482 146.937 52.666 146.937 58.252ZM150.465 58.252C150.465 55.018 155.169 53.338 160.713 53.338C166.131 53.338 170.835 54.892 170.835 58.252C170.835 61.612 166.131 63.04 160.755 63.04C155.253 63.04 150.465 61.612 150.465 58.252ZM141.855 44.392V47.122H178.563C179.025 47.122 179.403 46.744 179.403 46.282V44.392H141.855ZM183.128 30.322H192.242V40.024C192.242 44.35 186.404 50.86 181.322 54.01C182.12 54.724 182.876 55.438 183.674 56.152C187.034 54.136 192.074 48.634 193.964 45.316C195.644 48.424 200.642 53.506 204.044 55.438C204.842 54.724 205.556 54.052 206.27 53.254C201.734 50.608 195.602 44.476 195.602 40.108V30.322H205.01V27.55H183.128V30.322ZM214.082 25.24H210.806V65.182H213.242C213.704 65.182 214.082 64.804 214.082 64.342V25.24ZM223.014 32.8C223.014 37.966 228.264 40.276 233.514 40.276C238.806 40.276 243.972 37.966 243.972 32.8C243.972 27.718 238.806 25.366 233.514 25.366C228.264 25.366 223.014 27.634 223.014 32.8ZM226.248 32.8C226.248 29.482 229.944 27.97 233.514 27.97C237.084 27.97 240.738 29.44 240.738 32.8C240.738 36.202 237.084 37.672 233.514 37.672C229.86 37.672 226.248 36.286 226.248 32.8ZM250.692 49.474H238.302V52.204H250.692V56.74H253.17C253.632 56.74 254.01 56.362 254.01 55.9V25.324H250.692V49.474ZM255.228 62.284H231.414C231.12 62.284 230.994 62.158 230.994 61.864V54.64H227.634V62.536C227.634 64.006 228.852 65.098 230.196 65.098H254.472C254.934 65.098 255.228 64.804 255.228 64.342V62.284ZM221.208 45.4H230.154V52.792H232.59C233.052 52.792 233.43 52.414 233.43 51.952V45.4C238.68 45.4 244.182 45.19 247.248 44.392C247.71 44.266 247.92 43.972 247.92 43.552V41.41C244.518 42.04 239.814 42.586 235.11 42.586H221.208V45.4ZM293.981 47.92V45.19H287.387C287.555 44.644 287.597 44.182 287.597 43.636V30.112H293.099V27.34H262.439V30.112H267.857V43.636C267.857 44.182 267.899 44.686 268.067 45.19H261.641V47.92H276.173V57.034H258.995V59.806H295.745C296.123 59.806 296.585 59.596 296.585 58.966V57.034H279.533V47.92H293.981ZM271.595 45.19C271.301 45.19 271.175 45.064 271.175 44.77V30.112H284.279V44.77C284.279 45.064 284.153 45.19 283.859 45.19H271.595ZM329.962 46.156C330.298 46.156 330.76 45.946 330.802 45.316V25.324H327.484V33.01H319.462V35.74H327.484V46.156H329.962ZM303.922 42.376C303.628 42.376 303.502 42.25 303.502 41.956V36.58H317.572V33.976H303.502V29.44C303.502 29.146 303.628 29.02 303.922 29.02H318.034V26.374H302.83C301.36 26.374 300.268 27.424 300.268 28.894V42.586C300.268 43.972 301.36 45.106 302.83 45.106C308.038 45.106 317.95 44.602 323.284 43.51V40.948C318.202 41.956 310.222 42.418 305.392 42.418C304.888 42.418 304.384 42.376 303.922 42.376ZM331.6 62.704H308.962C308.668 62.704 308.542 62.578 308.542 62.284V58.042H328.156C329.5 58.042 330.718 57.538 330.718 55.984V48.508H305.14V51.238H327.316V55.102C327.316 55.396 327.19 55.522 326.896 55.522H305.14V62.914C305.14 64.552 306.232 65.434 307.702 65.434H330.76C331.222 65.434 331.6 65.056 331.6 64.594V62.704ZM361.267 51.504C361.575 51.504 361.827 51.252 361.827 50.944V50.3H336.935V51.504H361.267ZM340.631 60.912C340.631 61.892 341.415 62.592 342.339 62.592H358.439C358.719 62.592 358.859 62.452 358.859 62.144V61.416H342.367C342.171 61.416 342.087 61.332 342.087 61.136V54.78H340.631V60.912ZM358.607 41.928C358.607 38.96 355.863 36.3 349.451 36.3C343.011 36.3 340.295 38.96 340.295 41.928C340.295 44.924 343.011 47.584 349.451 47.584C355.863 47.584 358.607 44.924 358.607 41.928ZM341.863 41.928C341.863 39.688 344.047 37.588 349.451 37.588C354.855 37.588 357.039 39.688 357.039 41.928C357.039 44.224 354.855 46.296 349.451 46.296C344.047 46.296 341.863 44.224 341.863 41.928Z" fill="black"/>
</svg>
