<svg width="71" height="37" viewBox="0 0 71 37" fill="none" xmlns="http://www.w3.org/2000/svg">
<path d="M47.8 10.46V28.58H49.88V10.46H47.8ZM40.26 11.8C37.58 11.8 35.62 14.28 35.62 18.16C35.62 22.08 37.58 24.54 40.26 24.54C42.96 24.54 44.92 22.08 44.92 18.16C44.92 14.28 42.96 11.8 40.26 11.8ZM40.26 13.66C41.84 13.66 42.94 15.36 42.94 18.16C42.94 21 41.84 22.7 40.26 22.7C38.7 22.7 37.6 21 37.6 18.16C37.6 15.36 38.7 13.66 40.26 13.66ZM62.4384 15.32V17.02H65.7184V23.7H67.7784V10.5H65.7184V15.32H62.4384ZM63.5584 19.54C60.8584 18.6 59.3184 16.34 59.3184 14.12V13.5H63.0784V11.84H53.4184V13.5H57.2384V14.12C57.2384 16.56 55.5984 18.94 52.7984 19.92L53.8584 21.54C55.9984 20.8 57.5184 19.22 58.3184 17.26C59.0784 19.04 60.5384 20.46 62.5384 21.14L63.5584 19.54ZM58.1384 26.52V22.56H56.0784V28.2H68.2384V26.52H58.1384Z" fill="#C4C4C4"/>
<path d="M24 1L2 18.5L24 36" stroke="#C4C4C4" stroke-width="1.5"/>
</svg>
