<svg width="70" height="37" viewBox="0 0 70 37" fill="none" xmlns="http://www.w3.org/2000/svg">
<path d="M3.8 13.86H10.14V12.18H1.74V24.12H3.22C6.48 24.12 8.92 24.02 11.66 23.52L11.44 21.82C8.92 22.26 6.72 22.38 3.8 22.4V13.86ZM17.82 17.42H15V10.46H12.94V28.56H15V19.12H17.82V17.42ZM26.9784 10.86C23.0384 10.86 20.5384 12.16 20.5384 14.32C20.5384 16.46 23.0384 17.78 26.9784 17.78C30.9184 17.78 33.4184 16.46 33.4184 14.32C33.4184 12.16 30.9184 10.86 26.9784 10.86ZM26.9784 12.46C29.6584 12.46 31.2784 13.12 31.2784 14.32C31.2784 15.5 29.6584 16.16 26.9784 16.16C24.2984 16.16 22.6584 15.5 22.6584 14.32C22.6584 13.12 24.2984 12.46 26.9784 12.46ZM20.7584 22.28V28.32H33.1584V22.28H20.7584ZM31.1384 23.92V26.68H22.7984V23.92H31.1384ZM18.7984 19.1V20.74H35.1384V19.1H18.7984Z" fill="black"/>
<path d="M46 1L68 18.5L46 36" stroke="black" stroke-width="1.5"/>
</svg>
