<svg width="203" height="59" viewBox="0 0 203 59" fill="none" xmlns="http://www.w3.org/2000/svg">
<path d="M20.384 29.034C20.384 30.7153 20.2973 32.284 20.124 33.74C19.9507 35.196 19.708 36.5913 19.396 37.926H23.504C23.5907 37.926 23.6773 37.9693 23.764 38.056C23.8507 38.1427 23.894 38.2293 23.894 38.316V40.032C23.894 40.1187 23.8507 40.2053 23.764 40.292C23.6773 40.3787 23.5907 40.422 23.504 40.422H17.888V50.562C17.888 50.8047 17.7667 50.926 17.524 50.926H15.262C15.0193 50.926 14.898 50.8047 14.898 50.562V40.422H9.464V50.562C9.464 50.8047 9.34267 50.926 9.1 50.926H6.838C6.59533 50.926 6.474 50.8047 6.474 50.562V40.422H0.858C0.754 40.422 0.667333 40.3787 0.598 40.292C0.528667 40.2053 0.494 40.1187 0.494 40.032V38.316C0.494 38.212 0.528667 38.1253 0.598 38.056C0.667333 37.9693 0.754 37.926 0.858 37.926H16.536C16.7787 36.8687 16.9867 35.664 17.16 34.312C17.3333 32.9427 17.42 31.582 17.42 30.23C17.42 29.9873 17.3593 29.84 17.238 29.788C17.1167 29.7187 16.9347 29.684 16.692 29.684H4.16C4.07333 29.684 3.98667 29.658 3.9 29.606C3.81333 29.5367 3.77 29.4587 3.77 29.372V27.5C3.77 27.396 3.81333 27.318 3.9 27.266C3.98667 27.214 4.07333 27.188 4.16 27.188H18.668C19.2227 27.188 19.6473 27.3353 19.942 27.63C20.2367 27.9247 20.384 28.3927 20.384 29.034ZM26.6872 44.894C26.5832 44.9807 26.4532 45.024 26.2972 45.024C26.1412 45.024 26.0112 44.9633 25.9072 44.842L24.8412 43.594C24.7545 43.4727 24.7198 43.3427 24.7372 43.204C24.7545 43.048 24.8325 42.9267 24.9712 42.84C26.0112 42.112 26.9558 41.2887 27.8052 40.37C28.6718 39.4513 29.4172 38.498 30.0412 37.51C30.6825 36.5047 31.2112 35.4993 31.6272 34.494C32.0432 33.4887 32.3292 32.5353 32.4852 31.634C32.5372 31.3913 32.5458 31.2267 32.5112 31.14C32.4765 31.036 32.3465 30.984 32.1212 30.984H26.6612C26.5745 30.984 26.5052 30.9493 26.4532 30.88C26.4012 30.7933 26.3752 30.698 26.3752 30.594V28.93C26.3752 28.67 26.4792 28.54 26.6872 28.54H33.6032C34.3485 28.54 34.8858 28.6613 35.2152 28.904C35.5445 29.1467 35.7092 29.4933 35.7092 29.944C35.7092 30.1 35.7005 30.282 35.6832 30.49C35.6832 30.6807 35.6658 30.854 35.6312 31.01C35.2672 32.9687 34.6085 34.8753 33.6552 36.73C33.9152 37.198 34.2185 37.692 34.5652 38.212C34.9292 38.7147 35.3018 39.2 35.6832 39.668C36.0818 40.136 36.4632 40.5607 36.8272 40.942C37.2085 41.3233 37.5465 41.618 37.8412 41.826C38.0318 41.9647 38.1185 42.1033 38.1012 42.242C38.1012 42.3633 38.0405 42.4933 37.9192 42.632L36.9312 43.854C36.6885 44.166 36.3938 44.1747 36.0472 43.88C35.7872 43.6893 35.4925 43.4293 35.1632 43.1C34.8338 42.7533 34.4872 42.3807 34.1232 41.982C33.7765 41.566 33.4298 41.124 33.0832 40.656C32.7538 40.188 32.4505 39.7287 32.1732 39.278C31.4452 40.3353 30.6218 41.332 29.7032 42.268C28.8018 43.204 27.7965 44.0793 26.6872 44.894ZM42.0532 49.912C42.0532 50.1547 41.9318 50.276 41.6892 50.276H39.5832C39.3405 50.276 39.2192 50.1547 39.2192 49.912V37.406H36.1252C36.0385 37.406 35.9518 37.3713 35.8652 37.302C35.7958 37.2327 35.7612 37.1547 35.7612 37.068V35.274C35.7612 35.1873 35.7958 35.118 35.8652 35.066C35.9518 34.9967 36.0385 34.962 36.1252 34.962H39.2192V27.188C39.2192 26.9627 39.3405 26.85 39.5832 26.85H41.6892C41.9318 26.85 42.0532 26.9627 42.0532 27.188V49.912ZM46.9932 50.822C46.9932 51.0473 46.8805 51.16 46.6552 51.16H44.3932C44.1678 51.16 44.0552 51.0473 44.0552 50.822V26.772C44.0552 26.5467 44.1765 26.434 44.4192 26.434H46.6552C46.8805 26.434 46.9932 26.5467 46.9932 26.772V50.822ZM68.5063 26.772C68.5063 26.5467 68.6277 26.434 68.8703 26.434H71.1063C71.3317 26.434 71.4443 26.5467 71.4443 26.772V50.77C71.4443 50.9953 71.3317 51.108 71.1063 51.108H68.8443C68.619 51.108 68.5063 50.9953 68.5063 50.77V38.472H66.0883V49.782C66.0883 50.0247 65.9757 50.146 65.7503 50.146H63.6183C63.3757 50.146 63.2543 50.0247 63.2543 49.782V27.24C63.2543 27.0147 63.3757 26.902 63.6183 26.902H65.7503C65.9757 26.902 66.0883 27.0147 66.0883 27.24V35.976H68.5063V26.772ZM62.2143 42.892C62.249 43.048 62.2143 43.1607 62.1103 43.23C62.0063 43.2993 61.911 43.3513 61.8243 43.386C61.2523 43.542 60.5677 43.6807 59.7703 43.802C58.9903 43.906 58.167 43.9927 57.3003 44.062C56.451 44.1313 55.6017 44.1833 54.7523 44.218C53.903 44.2353 53.149 44.218 52.4903 44.166C51.8663 44.1313 51.3897 43.984 51.0603 43.724C50.7483 43.464 50.5923 43.0307 50.5923 42.424V30.126C50.5923 29.5193 50.7137 29.0947 50.9563 28.852C51.2163 28.6093 51.6757 28.488 52.3343 28.488H59.8743C60.117 28.488 60.2383 28.6093 60.2383 28.852V30.646C60.2383 30.8713 60.117 30.984 59.8743 30.984H54.0763C53.747 30.984 53.5823 31.1313 53.5823 31.426V40.916C53.5823 41.1933 53.6257 41.3753 53.7123 41.462C53.8163 41.5313 54.033 41.5833 54.3623 41.618C54.7263 41.67 55.203 41.6873 55.7923 41.67C56.3817 41.6527 57.0057 41.618 57.6643 41.566C58.3403 41.4967 58.999 41.4187 59.6403 41.332C60.299 41.2453 60.871 41.15 61.3563 41.046C61.4777 41.0113 61.5903 41.0113 61.6943 41.046C61.7983 41.0807 61.8677 41.1673 61.9023 41.306L62.2143 42.892ZM97.2215 40.058C97.2215 40.1447 97.1782 40.2313 97.0915 40.318C97.0049 40.4047 96.9182 40.448 96.8315 40.448H74.2115C74.1075 40.448 74.0208 40.4133 73.9515 40.344C73.8822 40.2573 73.8475 40.162 73.8475 40.058V38.342C73.8475 38.082 73.9688 37.952 74.2115 37.952H96.8315C96.9182 37.952 97.0049 37.9953 97.0915 38.082C97.1782 38.1513 97.2215 38.238 97.2215 38.342V40.058ZM85.5215 44.374C83.7882 44.374 82.4795 44.5993 81.5955 45.05C80.7288 45.4833 80.2955 46.012 80.2955 46.636C80.2955 47.2427 80.7288 47.7713 81.5955 48.222C82.4795 48.6727 83.7882 48.898 85.5215 48.898C87.2548 48.898 88.5548 48.6727 89.4215 48.222C90.3055 47.7713 90.7475 47.2427 90.7475 46.636C90.7475 46.012 90.3055 45.4833 89.4215 45.05C88.5548 44.5993 87.2548 44.374 85.5215 44.374ZM93.7115 46.61C93.7115 48.0313 93.0009 49.1407 91.5795 49.938C90.1755 50.7353 88.1562 51.134 85.5215 51.134C82.8868 51.134 80.8588 50.7353 79.4375 49.938C78.0335 49.1407 77.3315 48.0313 77.3315 46.61C77.3315 45.206 78.0335 44.1053 79.4375 43.308C80.8588 42.4933 82.8868 42.086 85.5215 42.086C88.1562 42.086 90.1755 42.4933 91.5795 43.308C93.0009 44.1053 93.7115 45.206 93.7115 46.61ZM85.5215 35.976C84.2735 35.976 83.1382 35.8633 82.1155 35.638C81.1102 35.4127 80.2435 35.1007 79.5155 34.702C78.7875 34.286 78.2242 33.792 77.8255 33.22C77.4442 32.648 77.2535 32.0067 77.2535 31.296C77.2535 30.6027 77.4528 29.97 77.8515 29.398C78.2502 28.8087 78.8135 28.3147 79.5415 27.916C80.2695 27.5173 81.1362 27.2053 82.1415 26.98C83.1642 26.7547 84.2908 26.642 85.5215 26.642C86.7695 26.642 87.8962 26.7547 88.9015 26.98C89.9068 27.2053 90.7648 27.5173 91.4755 27.916C92.2035 28.3147 92.7582 28.8087 93.1395 29.398C93.5382 29.97 93.7375 30.6027 93.7375 31.296C93.7375 32.0067 93.5382 32.648 93.1395 33.22C92.7582 33.792 92.2035 34.286 91.4755 34.702C90.7648 35.1007 89.9068 35.4127 88.9015 35.638C87.8962 35.8633 86.7695 35.976 85.5215 35.976ZM85.5215 29.008C84.7588 29.008 84.0568 29.0687 83.4155 29.19C82.7915 29.3113 82.2542 29.476 81.8035 29.684C81.3528 29.892 80.9975 30.1347 80.7375 30.412C80.4948 30.6893 80.3735 30.984 80.3735 31.296C80.3735 31.608 80.4948 31.9113 80.7375 32.206C80.9975 32.4833 81.3528 32.726 81.8035 32.934C82.2542 33.142 82.7915 33.3067 83.4155 33.428C84.0568 33.5493 84.7588 33.61 85.5215 33.61C86.2668 33.61 86.9515 33.5493 87.5755 33.428C88.2169 33.3067 88.7542 33.142 89.1875 32.934C89.6382 32.726 89.9849 32.4833 90.2275 32.206C90.4875 31.9113 90.6175 31.608 90.6175 31.296C90.6175 30.984 90.4875 30.6893 90.2275 30.412C89.9849 30.1347 89.6382 29.892 89.1875 29.684C88.7542 29.476 88.2169 29.3113 87.5755 29.19C86.9515 29.0687 86.2668 29.008 85.5215 29.008ZM100.717 44.842C100.578 44.9287 100.431 44.9633 100.275 44.946C100.119 44.9287 99.9974 44.8507 99.9107 44.712L98.8967 43.36C98.7754 43.204 98.7494 43.0567 98.8187 42.918C98.9054 42.7793 99.0094 42.6753 99.1307 42.606C100.223 41.93 101.263 41.15 102.251 40.266C103.239 39.382 104.123 38.4547 104.903 37.484C105.7 36.5133 106.376 35.5253 106.931 34.52C107.485 33.4973 107.884 32.518 108.127 31.582C108.196 31.2873 108.205 31.0967 108.153 31.01C108.101 30.9233 107.927 30.88 107.633 30.88H100.925C100.821 30.88 100.734 30.8453 100.665 30.776C100.613 30.6893 100.587 30.594 100.587 30.49V28.748C100.587 28.5053 100.708 28.384 100.951 28.384H109.427C110.103 28.384 110.631 28.514 111.013 28.774C111.394 29.034 111.585 29.372 111.585 29.788C111.585 30.0133 111.567 30.2473 111.533 30.49C111.498 30.7153 111.455 30.9233 111.403 31.114C111.16 32.0327 110.831 32.96 110.415 33.896C110.016 34.8147 109.522 35.742 108.933 36.678C109.262 37.1287 109.643 37.6053 110.077 38.108C110.51 38.5933 110.961 39.07 111.429 39.538C111.897 40.006 112.356 40.448 112.807 40.864C113.257 41.2627 113.665 41.592 114.029 41.852C114.15 41.9387 114.228 42.0513 114.263 42.19C114.315 42.3287 114.289 42.4673 114.185 42.606L113.067 43.88C112.841 44.1227 112.555 44.14 112.209 43.932C111.897 43.724 111.524 43.438 111.091 43.074C110.675 42.6927 110.241 42.2767 109.791 41.826C109.34 41.3753 108.898 40.8987 108.465 40.396C108.031 39.8933 107.641 39.4167 107.295 38.966C106.411 40.058 105.423 41.1067 104.331 42.112C103.239 43.1 102.034 44.01 100.717 44.842ZM119.255 50.77C119.255 50.9953 119.133 51.108 118.891 51.108H116.603C116.516 51.108 116.429 51.0733 116.343 51.004C116.273 50.952 116.239 50.874 116.239 50.77V26.772C116.239 26.6853 116.273 26.6073 116.343 26.538C116.429 26.4687 116.516 26.434 116.603 26.434H118.891C119.133 26.434 119.255 26.5467 119.255 26.772V50.77ZM131.122 29.086C130.706 29.086 130.307 29.1553 129.926 29.294C129.545 29.4153 129.215 29.5887 128.938 29.814C128.661 30.022 128.435 30.282 128.262 30.594C128.106 30.8887 128.028 31.2093 128.028 31.556C128.028 31.92 128.106 32.258 128.262 32.57C128.435 32.8647 128.661 33.1247 128.938 33.35C129.215 33.558 129.545 33.7313 129.926 33.87C130.307 33.9913 130.706 34.052 131.122 34.052C131.555 34.052 131.954 33.9913 132.318 33.87C132.699 33.7313 133.029 33.558 133.306 33.35C133.601 33.1247 133.826 32.8647 133.982 32.57C134.155 32.258 134.242 31.92 134.242 31.556C134.242 31.2093 134.155 30.8887 133.982 30.594C133.826 30.282 133.601 30.022 133.306 29.814C133.029 29.5887 132.699 29.4153 132.318 29.294C131.954 29.1553 131.555 29.086 131.122 29.086ZM131.122 26.798C132.006 26.798 132.812 26.928 133.54 27.188C134.285 27.4307 134.918 27.7687 135.438 28.202C135.975 28.618 136.391 29.112 136.686 29.684C136.981 30.256 137.128 30.8627 137.128 31.504C137.128 32.18 136.981 32.8127 136.686 33.402C136.391 33.9913 135.975 34.5027 135.438 34.936C134.918 35.352 134.285 35.69 133.54 35.95C132.812 36.1927 132.006 36.314 131.122 36.314C130.238 36.314 129.432 36.1927 128.704 35.95C127.976 35.69 127.343 35.352 126.806 34.936C126.286 34.5027 125.879 33.9913 125.584 33.402C125.307 32.8127 125.168 32.18 125.168 31.504C125.168 30.8627 125.307 30.256 125.584 29.684C125.879 29.112 126.286 28.618 126.806 28.202C127.343 27.7687 127.976 27.4307 128.704 27.188C129.432 26.928 130.238 26.798 131.122 26.798ZM143.68 45.492C143.68 45.7347 143.567 45.856 143.342 45.856H141.028C140.803 45.856 140.69 45.7347 140.69 45.492V43.126H136.244C136.157 43.126 136.071 43.0913 135.984 43.022C135.915 42.9527 135.88 42.8747 135.88 42.788V41.15C135.88 41.0633 135.915 40.994 135.984 40.942C136.071 40.8727 136.157 40.838 136.244 40.838H140.69V26.772C140.69 26.5467 140.803 26.434 141.028 26.434H143.342C143.567 26.434 143.68 26.5467 143.68 26.772V45.492ZM139.806 38.732C139.823 38.8707 139.789 38.9833 139.702 39.07C139.633 39.1393 139.555 39.1913 139.468 39.226C138.983 39.3127 138.445 39.3907 137.856 39.46C137.267 39.512 136.66 39.564 136.036 39.616C135.412 39.668 134.788 39.72 134.164 39.772C133.557 39.8067 132.985 39.8327 132.448 39.85V43.594C132.448 43.698 132.405 43.7933 132.318 43.88C132.249 43.9493 132.162 43.984 132.058 43.984H129.9C129.796 43.984 129.701 43.9493 129.614 43.88C129.545 43.7933 129.51 43.698 129.51 43.594V40.058C128.99 40.0753 128.453 40.0927 127.898 40.11C127.361 40.11 126.832 40.1187 126.312 40.136C125.792 40.1533 125.298 40.162 124.83 40.162C124.362 40.162 123.955 40.1533 123.608 40.136C123.504 40.136 123.417 40.0927 123.348 40.006C123.279 39.9193 123.244 39.824 123.244 39.72V38.108C123.244 38.004 123.279 37.9173 123.348 37.848C123.417 37.7613 123.504 37.718 123.608 37.718C124.804 37.718 126.104 37.7093 127.508 37.692C128.929 37.6573 130.342 37.614 131.746 37.562C133.15 37.4927 134.502 37.4147 135.802 37.328C137.102 37.224 138.229 37.1027 139.182 36.964C139.269 36.9467 139.355 36.964 139.442 37.016C139.546 37.068 139.607 37.146 139.624 37.25L139.806 38.732ZM144.252 50.354C144.252 50.458 144.209 50.536 144.122 50.588C144.053 50.64 143.975 50.666 143.888 50.666H129.146C128.349 50.666 127.811 50.5273 127.534 50.25C127.274 49.9727 127.144 49.496 127.144 48.82V45.102C127.144 45.0153 127.179 44.9373 127.248 44.868C127.335 44.7813 127.421 44.738 127.508 44.738H129.744C129.848 44.738 129.935 44.7813 130.004 44.868C130.091 44.9373 130.134 45.0153 130.134 45.102V47.754C130.134 47.9273 130.169 48.04 130.238 48.092C130.307 48.144 130.437 48.17 130.628 48.17H143.888C143.975 48.17 144.053 48.2047 144.122 48.274C144.209 48.3433 144.252 48.4213 144.252 48.508V50.354ZM150.685 30.568C150.598 30.568 150.503 30.5247 150.399 30.438C150.295 30.3513 150.243 30.2473 150.243 30.126V28.566C150.243 28.4793 150.295 28.3927 150.399 28.306C150.503 28.2193 150.598 28.176 150.685 28.176H167.091C167.195 28.176 167.282 28.2193 167.351 28.306C167.438 28.3753 167.481 28.462 167.481 28.566V30.152C167.481 30.2733 167.438 30.3773 167.351 30.464C167.282 30.5333 167.195 30.568 167.091 30.568H164.491V37.484H167.585C167.689 37.484 167.776 37.5273 167.845 37.614C167.932 37.6833 167.975 37.77 167.975 37.874V39.46C167.975 39.5813 167.932 39.6853 167.845 39.772C167.776 39.8413 167.689 39.876 167.585 39.876H160.383V44.4H170.211C170.298 44.4 170.384 44.4433 170.471 44.53C170.558 44.6167 170.601 44.7033 170.601 44.79V46.506C170.601 46.5927 170.558 46.6793 170.471 46.766C170.384 46.8527 170.298 46.896 170.211 46.896H147.565C147.461 46.896 147.374 46.8527 147.305 46.766C147.236 46.6793 147.201 46.5927 147.201 46.506V44.79C147.201 44.686 147.236 44.5993 147.305 44.53C147.374 44.4433 147.461 44.4 147.565 44.4H157.393V39.876H150.191C150.104 39.876 150.009 39.8327 149.905 39.746C149.818 39.6593 149.775 39.5553 149.775 39.434V37.874C149.775 37.7873 149.818 37.7007 149.905 37.614C150.009 37.5273 150.104 37.484 150.191 37.484H153.285V30.568H150.685ZM156.197 30.568V37.484H161.579V30.568H156.197ZM193.258 50.692C193.258 50.7787 193.215 50.8567 193.128 50.926C193.059 51.0127 192.99 51.056 192.92 51.056H178.906C178.213 51.056 177.745 50.926 177.502 50.666C177.26 50.406 177.138 49.9987 177.138 49.444V46.48C177.138 45.9253 177.251 45.5267 177.476 45.284C177.719 45.0413 178.178 44.92 178.854 44.92H189.358C189.514 44.92 189.61 44.9027 189.644 44.868C189.679 44.816 189.696 44.7033 189.696 44.53V43.802C189.696 43.6113 189.679 43.4987 189.644 43.464C189.61 43.4293 189.506 43.412 189.332 43.412H177.45C177.364 43.412 177.277 43.3773 177.19 43.308C177.121 43.2387 177.086 43.1607 177.086 43.074V41.358C177.086 41.2713 177.121 41.1933 177.19 41.124C177.277 41.0547 177.364 41.02 177.45 41.02H190.84C191.551 41.02 192.019 41.1413 192.244 41.384C192.487 41.6093 192.608 42.0167 192.608 42.606V45.544C192.608 46.1507 192.487 46.5667 192.244 46.792C192.019 47.0173 191.551 47.13 190.84 47.13H180.414C180.258 47.13 180.163 47.1473 180.128 47.182C180.094 47.234 180.076 47.338 180.076 47.494V48.378C180.076 48.5513 180.094 48.638 180.128 48.638C180.163 48.6553 180.267 48.664 180.44 48.664H192.894C192.981 48.664 193.059 48.6987 193.128 48.768C193.215 48.8373 193.258 48.924 193.258 49.028V50.692ZM186.082 37.666C186.117 37.8393 186.082 37.9693 185.978 38.056C185.892 38.1427 185.805 38.1947 185.718 38.212C185.06 38.3507 184.288 38.4807 183.404 38.602C182.52 38.7233 181.61 38.8187 180.674 38.888C179.756 38.94 178.854 38.9747 177.97 38.992C177.086 39.0093 176.315 38.9833 175.656 38.914C175.084 38.862 174.625 38.6973 174.278 38.42C173.949 38.1253 173.784 37.7093 173.784 37.172V28.956C173.784 28.3493 173.906 27.9247 174.148 27.682C174.408 27.422 174.868 27.292 175.526 27.292H183.69C183.933 27.292 184.054 27.4133 184.054 27.656V29.346C184.054 29.5713 183.933 29.684 183.69 29.684H177.242C177.086 29.684 176.965 29.7187 176.878 29.788C176.809 29.84 176.774 29.9613 176.774 30.152V31.868C177.884 31.868 178.984 31.868 180.076 31.868C181.168 31.8507 182.217 31.8073 183.222 31.738C183.292 31.738 183.37 31.7553 183.456 31.79C183.56 31.8247 183.612 31.8853 183.612 31.972V33.584C183.612 33.8787 183.517 34.026 183.326 34.026C182.252 34.1127 181.16 34.1647 180.05 34.182C178.958 34.1993 177.866 34.208 176.774 34.208V35.82C176.774 36.0973 176.818 36.2793 176.904 36.366C177.008 36.4353 177.216 36.4873 177.528 36.522C177.91 36.5567 178.404 36.574 179.01 36.574C179.634 36.5567 180.302 36.5307 181.012 36.496C181.723 36.444 182.442 36.3833 183.17 36.314C183.916 36.2273 184.609 36.1233 185.25 36.002C185.372 35.9673 185.484 35.9673 185.588 36.002C185.71 36.0367 185.788 36.1233 185.822 36.262L186.082 37.666ZM185.588 34V32.336C185.588 32.2493 185.623 32.18 185.692 32.128C185.779 32.0587 185.866 32.024 185.952 32.024H189.618V26.772C189.618 26.5467 189.731 26.434 189.956 26.434H192.27C192.496 26.434 192.608 26.5467 192.608 26.772V39.46C192.608 39.7027 192.496 39.824 192.27 39.824H189.956C189.731 39.824 189.618 39.7113 189.618 39.486V34.364H185.952C185.866 34.364 185.779 34.3293 185.692 34.26C185.623 34.1907 185.588 34.104 185.588 34Z" fill="#AEAEAE"/>
<path d="M107.6 10.9213H92.2354L91.5699 9.8873H107.6C107.768 9.8873 107.806 10.0911 107.806 10.4043C107.806 10.7175 107.768 10.9213 107.6 10.9213ZM99.8715 8.52027C95.8859 8.52027 92.8612 7.50619 92.8612 5.38357C92.8612 3.26095 95.8859 2.24438 99.8715 2.24438C103.857 2.24438 106.882 3.25847 106.882 5.38357C106.882 7.50868 103.857 8.52027 99.8715 8.52027ZM107.048 16.275H93.9663C93.6732 16.2737 93.3925 16.1564 93.1854 15.9488C92.9784 15.7411 92.8618 15.4599 92.8612 15.1665V11.8459H94.7063C94.852 11.8496 94.9906 11.9093 95.0937 12.0124C95.1967 12.1155 95.2563 12.2543 95.2601 12.4001V14.6893C95.2639 14.8349 95.3235 14.9734 95.4266 15.0761C95.5297 15.1789 95.6684 15.2379 95.8138 15.2411H107.048C107.215 15.2411 107.249 15.4449 107.249 15.7605C107.249 16.0762 107.215 16.275 107.048 16.275ZM99.8715 3.27587C97.2517 3.27587 95.3321 3.9221 95.3321 5.38109C95.3321 6.84008 97.2517 7.48631 99.8715 7.48631C102.491 7.48631 104.409 6.84008 104.409 5.38109C104.409 3.9221 102.491 3.27835 99.8715 3.27835V3.27587Z" fill="#AEAEAE"/>
<path d="M124.22 12.1118H121.399C122.05 12.4822 122.42 12.9967 122.42 13.705C122.42 15.2684 120.565 15.942 118.042 15.942C115.519 15.942 113.661 15.2659 113.661 13.705C113.661 12.1441 115.516 11.4507 118.042 11.4507H124.861V2.79865C124.858 2.65306 124.799 2.51428 124.696 2.41107C124.593 2.30787 124.455 2.24818 124.31 2.24438H122.554V5.19716H121.263V2.79865C121.259 2.65284 121.199 2.51404 121.096 2.4109C120.993 2.30776 120.855 2.24816 120.709 2.24438H118.958V9.81274H121.263V6.30569H122.554V10.531H118.042C114.069 10.531 111.089 11.6247 111.089 13.7622C111.089 15.8997 114.069 16.9809 118.042 16.9809C122.015 16.9809 124.995 15.8898 124.995 13.7622C124.998 13.4465 124.93 13.1341 124.796 12.8483C124.662 12.5626 124.465 12.3108 124.22 12.1118Z" fill="#AEAEAE"/>
<path d="M118.054 6.55181C118.056 5.94424 117.86 5.35268 117.495 4.86664H115.169C115.559 5.33243 115.756 5.93009 115.72 6.53689C115.72 7.63548 115.223 8.80864 113.877 8.80864C112.755 8.80864 112.005 7.71005 112.005 6.53689C112.005 5.29414 112.683 4.19306 113.862 4.19306H118.332C118.469 4.19306 118.499 3.9296 118.499 3.65122C118.499 3.37285 118.469 3.15412 118.332 3.15412H115.04V2.29166C115.044 2.16622 114.999 2.04413 114.914 1.9513C114.83 1.85848 114.713 1.80225 114.588 1.79456H112.579V3.16158H108.993L109.534 4.18809H110.882C110.522 4.46497 110.231 4.82256 110.034 5.23219C109.836 5.64181 109.737 6.09207 109.745 6.54683C109.745 8.36871 111.379 9.82521 113.867 9.82521C116.356 9.82521 118.054 8.37368 118.054 6.55181Z" fill="#AEAEAE"/>
<path d="M68.3884 11.1052C68.7282 11.3013 69.0099 11.584 69.2049 11.9246C69.3999 12.2651 69.5012 12.6514 69.4984 13.0439C69.4984 14.9205 67.4845 15.778 64.9887 15.778C62.493 15.778 60.4716 14.9254 60.4716 13.0439C60.4716 11.1624 62.4583 10.3099 64.9788 10.3099H64.9465H72.4486C72.501 10.3067 72.5503 10.2836 72.5863 10.2452C72.6223 10.2069 72.6424 10.1562 72.6423 10.1036C72.6748 9.89272 72.6748 9.67812 72.6423 9.46728C72.6374 9.41915 72.6149 9.37452 72.5791 9.34195C72.5434 9.30939 72.4969 9.29117 72.4486 9.29081H66.1584V7.34963H72.1431C72.1954 7.34717 72.2449 7.32509 72.2817 7.28779C72.3185 7.25049 72.34 7.2007 72.3418 7.14831C72.3712 6.93557 72.3712 6.71979 72.3418 6.50705C72.3357 6.45873 72.3121 6.41432 72.2755 6.38225C72.2389 6.35018 72.1918 6.33268 72.1431 6.33306H60.787C60.637 6.33574 60.4921 6.27899 60.3837 6.17517C60.2753 6.07136 60.2123 5.92889 60.2084 5.7788V3.00001C60.2068 2.92504 60.1904 2.85113 60.1602 2.78253C60.1299 2.71392 60.0864 2.65197 60.0322 2.60024C59.978 2.5485 59.9141 2.508 59.8442 2.48106C59.7743 2.45412 59.6997 2.44127 59.6248 2.44325H57.8418V6.30075C57.8496 6.58599 57.97 6.85652 58.1767 7.05311C58.3833 7.24969 58.6594 7.35632 58.9444 7.34963H63.7893V9.29827H56.8361L57.5091 10.3173H59.5826C58.6712 10.9387 58.1249 11.8086 58.1249 12.9296C58.1249 15.6015 61.1992 16.8169 64.9863 16.8169C68.7733 16.8169 71.8501 15.6015 71.8501 12.9296C71.8605 12.2699 71.6459 11.6264 71.2417 11.1052H68.3884Z" fill="#AEAEAE"/>
<path d="M81.4083 4.87156C81.5341 5.01027 81.6425 5.16386 81.7311 5.3289C81.9453 5.70356 82.0582 6.12758 82.0589 6.55922C82.0694 6.8891 82.0135 7.21773 81.8946 7.52557C81.7757 7.83342 81.5962 8.11421 81.3668 8.35127C81.1373 8.58832 80.8626 8.77681 80.559 8.90553C80.2553 9.03425 79.929 9.10058 79.5992 9.10058C79.2694 9.10058 78.9431 9.03425 78.6394 8.90553C78.3358 8.77681 78.0611 8.58832 77.8316 8.35127C77.6022 8.11421 77.4227 7.83342 77.3038 7.52557C77.1849 7.21773 77.129 6.8891 77.1395 6.55922C77.1329 5.90746 77.3849 5.27969 77.8402 4.8137C78.2955 4.34772 78.917 4.08158 79.5682 4.07372H84.8625C84.9179 4.06865 84.9691 4.04219 85.0052 3.99996C85.0414 3.95773 85.0597 3.90305 85.0562 3.84754C85.0874 3.63076 85.0874 3.41063 85.0562 3.19385C85.0507 3.14442 85.0271 3.09879 84.99 3.06574C84.9528 3.0327 84.9048 3.01459 84.8551 3.01489H80.8123V2.46808C80.8104 2.39148 80.7933 2.31602 80.7622 2.24603C80.731 2.17603 80.6863 2.11289 80.6307 2.06023C80.5751 2.00757 80.5097 1.96643 80.4381 1.93917C80.3666 1.91191 80.2903 1.89907 80.2138 1.90139H78.3811V3.02484H73.7796C73.874 3.16154 74.4402 4.01904 74.465 4.06378H76.2033C75.3143 4.70006 74.7655 5.5849 74.7655 6.54928C74.7655 8.48797 76.7124 10.0538 79.6004 10.0538C81.5424 10.0538 82.9653 9.34547 83.7997 8.28664H87.1472V12.0969H78.252V11.0381C78.2504 10.9612 78.2336 10.8853 78.2026 10.8149C78.1717 10.7445 78.1271 10.6809 78.0715 10.6278C78.0159 10.5747 77.9503 10.5331 77.8786 10.5054C77.8069 10.4777 77.7304 10.4644 77.6535 10.4664H75.8258V15.2013C75.8349 15.4936 75.959 15.7704 76.1711 15.9715C76.3832 16.1727 76.6661 16.2817 76.9582 16.275H89.5833V2.75143C89.5787 2.59672 89.5133 2.45008 89.4012 2.34347C89.2891 2.23685 89.1394 2.1789 88.9848 2.18225H87.1447V4.87156H81.4083ZM87.1447 15.2386H78.5773C78.4921 15.2393 78.4101 15.2062 78.3492 15.1466C78.2883 15.087 78.2533 15.0057 78.252 14.9204V13.1359H87.1447V15.2386ZM87.1447 7.25765H84.3286C84.3936 7.03056 84.4262 6.79543 84.4255 6.55922C84.4237 6.34066 84.397 6.12302 84.346 5.9105H87.1447V7.25765Z" fill="#AEAEAE"/>
<path d="M53.5184 2.53522H51.3952V8.02569H42.7037V2.53522H40.5804C40.0838 2.53522 39.6666 3.03232 39.6666 3.6189V15.2262C39.6666 15.8202 40.0739 16.3099 40.5804 16.3099H42.7037V10.4118H51.3952V16.3099H53.5184C54.0151 16.3099 54.4322 15.8128 54.4322 15.2262V3.6189C54.4298 3.01989 54.0275 2.53522 53.5184 2.53522Z" fill="#AEAEAE"/>
<path d="M36.1354 2.53522H34.0072V13.0812L27.6077 4.65784C26.5474 3.42751 25.8173 2.53522 24.1311 2.53522H21.9657V15.2262C21.9657 15.8202 22.373 16.3099 22.882 16.3099H25.0052V5.71169L31.4171 14.0804C32.5048 15.338 33.4708 16.3173 35.0452 16.3173H37.0318V3.6189C37.0343 3.01989 36.632 2.53522 36.1354 2.53522Z" fill="#AEAEAE"/>
<path d="M12.8246 0L9.2785 1.7821L5.73236 0L9.2785 6.74814L12.8246 0Z" fill="#AEAEAE"/>
<path d="M14.0664 5.21455L14.0118 5.16733L16.5398 4.09608V0.541809L12.1443 2.41836C12.1443 2.41836 9.76534 6.93203 9.70823 7.03643C10.645 7.14674 11.5042 7.61119 12.11 8.33472C12.7159 9.05825 13.0226 9.98616 12.9674 10.9286C12.9122 11.871 12.4993 12.7567 11.8131 13.4044C11.1269 14.0521 10.2193 14.4129 9.27613 14.4129C8.33293 14.4129 7.42537 14.0521 6.73918 13.4044C6.053 12.7567 5.64005 11.871 5.58485 10.9286C5.52964 9.98616 5.83635 9.05825 6.44222 8.33472C7.04808 7.61119 7.90729 7.14674 8.84404 7.03643L6.41041 2.41836L2.01995 0.541809V4.09608L4.55042 5.15987L4.49579 5.2071C3.37933 6.18212 2.58677 7.47497 2.22404 8.91288C1.8613 10.3508 1.94567 11.8652 2.46586 13.2539C2.98605 14.6425 3.91729 15.8392 5.13513 16.6839C6.35296 17.5287 7.79938 17.9813 9.2811 17.9813C10.7628 17.9813 12.2092 17.5287 13.4271 16.6839C14.6449 15.8392 15.5761 14.6425 16.0963 13.2539C16.6165 11.8652 16.7009 10.3508 16.3382 8.91288C15.9754 7.47497 15.1829 6.18212 14.0664 5.2071V5.21455Z" fill="#AEAEAE"/>
</svg>
