<svg width="31" height="34" viewBox="0 0 31 34" fill="none" xmlns="http://www.w3.org/2000/svg">
<g clip-path="url(#clip0_2_116)">
<path d="M15.5 0.807556C7.34813 0.807556 0.739471 7.14597 0.739471 14.9699C0.739471 20.7452 3.07215 23.4903 6.26575 26.0168V32.8034C6.26638 32.8754 6.28609 32.9458 6.32272 33.007C6.35935 33.0682 6.41148 33.1177 6.47343 33.1502C6.53538 33.1827 6.60475 33.1969 6.67397 33.1913C6.74318 33.1857 6.80957 33.1604 6.86588 33.1183L12.4922 28.8026L12.6136 28.8544C13.5703 29.0381 14.5413 29.1299 15.5143 29.1285C23.6698 29.1285 30.2784 22.7901 30.2784 14.9699C30.2784 7.14967 23.6698 0.807556 15.5143 0.807556" fill="#FDDB00"/>
<path d="M15.5 3.10023e-05C6.92659 3.10023e-05 0 6.66814 0 14.8662C0 20.9305 2.45056 23.8274 5.80491 26.4651V33.5814C5.80507 33.6575 5.82557 33.732 5.86413 33.7967C5.90268 33.8614 5.95778 33.9137 6.0233 33.9479C6.08882 33.982 6.16219 33.9967 6.23526 33.9902C6.30833 33.9837 6.37823 33.9563 6.43719 33.9111L12.3136 29.3842L12.4386 29.4398C13.4437 29.6323 14.4636 29.729 15.4857 29.7287C24.0591 29.7287 30.9857 23.0606 30.9857 14.8588C30.9857 6.65703 24.0484 -0.00738525 15.4857 -0.00738525L15.5 3.10023e-05ZM10.2917 18.6263C11.0091 18.6559 11.7154 18.4356 12.2981 18.0006C12.8807 17.5655 13.3062 16.9407 13.5067 16.2258H15.7536C15.5378 17.5523 14.8668 18.7531 13.8643 19.6068C12.8618 20.4606 11.5955 20.9097 10.2988 20.8712C8.75734 20.8712 7.27903 20.2362 6.18906 19.1059C5.09909 17.9756 4.48675 16.4425 4.48675 14.844C4.48675 13.2455 5.09909 11.7124 6.18906 10.5821C7.27903 9.45177 8.75734 8.81676 10.2988 8.81676C11.6103 8.77625 12.891 9.23389 13.9001 10.1037C14.9092 10.9734 15.5772 12.1954 15.7786 13.54H13.5388C13.3587 12.8005 12.9395 12.1474 12.3512 11.6897C11.7629 11.2319 11.041 10.9972 10.3059 11.0246C8.11616 11.0246 6.65868 12.6435 6.65868 14.8403C6.65146 15.3391 6.74085 15.8343 6.92159 16.2965C7.10232 16.7588 7.3707 17.1788 7.71083 17.5315C8.05096 17.8842 8.45592 18.1625 8.9017 18.35C9.34747 18.5374 9.82499 18.6301 10.3059 18.6226L10.2917 18.6263ZM25.1129 20.6341H23.0553V15.8183C23.0553 14.7069 22.4302 14.1105 21.4728 14.1105C20.4011 14.1105 19.7188 14.7884 19.7188 16.1628V20.6341H17.6576V8.86121H19.7188V13.3066C20.2118 12.5287 21.012 12.1471 22.0944 12.1471C22.4934 12.1336 22.8907 12.2078 23.2601 12.3649C23.6295 12.5219 23.9627 12.7583 24.2377 13.0584C24.5362 13.3967 24.7662 13.7935 24.914 14.2256C25.0619 14.6577 25.1247 15.1161 25.0986 15.5738L25.1129 20.6341Z" fill="#020303"/>
</g>
<defs>
<clipPath id="clip0_2_116">
<rect width="31" height="34" fill="white"/>
</clipPath>
</defs>
</svg>
