<svg width="240" height="709" viewBox="0 0 240 709" fill="none" xmlns="http://www.w3.org/2000/svg">
<rect x="0.25" y="112.25" width="239.5" height="596.5" fill="url(#paint0_linear_61_364)" stroke="#D5D5D5" stroke-width="0.5"/>
<rect width="240" height="112" fill="#2B347B"/>
<path d="M143 97L240 0V97H143Z" fill="url(#paint1_linear_61_364)"/>
<line x1="17" y1="174.75" x2="218" y2="174.75" stroke="#979797" stroke-width="0.5"/>
<path d="M26.54 145.63C26.54 146.356 27.09 146.95 27.882 146.95H35.582C36.308 146.95 36.924 146.4 36.924 145.63V142.264H40.752V147.346H42.754C42.996 147.346 43.194 147.148 43.194 146.906V135.84H40.752V140.174H36.924V136.346H34.526V139.668H28.916V136.346H26.54V145.63ZM29.268 155.53C29.268 156.3 29.84 156.85 30.61 156.85H41.786C42.556 156.85 43.128 156.3 43.128 155.53V148.424H40.62V150.492H31.754V148.424H29.268V155.53ZM40.62 152.516V154.584C40.62 154.738 40.554 154.804 40.4 154.804H31.974C31.82 154.804 31.754 154.738 31.754 154.584V152.516H40.62ZM34.526 141.692V144.684C34.526 144.838 34.46 144.904 34.306 144.904H29.136C28.982 144.904 28.916 144.838 28.916 144.684V141.692H34.526ZM61.6891 153.022C61.6891 154.716 59.2251 155.178 56.9811 155.178C54.7151 155.178 52.2511 154.716 52.2511 153.022C52.2511 151.262 54.7151 150.822 56.9811 150.822C59.2251 150.822 61.6891 151.262 61.6891 153.022ZM49.6551 153.022C49.6551 156.432 53.8131 157.268 56.9811 157.268C60.1271 157.268 64.2851 156.432 64.2851 153.022C64.2851 149.568 60.1271 148.732 56.9811 148.732C53.8131 148.732 49.6551 149.59 49.6551 153.022ZM61.7111 135.84V137.908H57.8391V139.91H61.7111V142.176H57.8391V144.178H61.7111V148.116H63.7351C63.9771 148.116 64.1751 147.918 64.1751 147.676V135.84H61.7111ZM50.0951 142.946H55.5731C56.3431 142.946 56.9151 142.396 56.9151 141.626V136.456H47.6751V138.414H54.4731V140.746C54.4731 140.9 54.4071 140.988 54.2531 140.988H47.6751V146.642C47.6751 147.368 48.2251 147.962 49.0171 147.962C52.8231 147.962 57.6191 147.632 60.0831 147.28V145.278C57.2231 145.74 53.3071 145.916 50.3151 145.916C50.1611 145.916 50.0951 145.85 50.0951 145.696V142.946ZM70.8122 147.566C70.8122 145.916 71.7582 144.266 73.4522 144.266C75.1462 144.266 76.0922 145.916 76.0922 147.566C76.0922 149.458 75.0362 150.822 73.4522 150.822C71.9342 150.822 70.8122 149.458 70.8122 147.566ZM68.4582 147.566C68.4582 150.624 70.5482 152.89 73.4522 152.89C76.4442 152.89 78.4682 150.536 78.4682 147.566C78.4682 144.464 76.5102 142.22 73.4522 142.22C70.5042 142.22 68.4582 144.464 68.4582 147.566ZM78.8862 141.032V138.986H74.6622V136.016H72.1322V138.986H67.8862V141.032H78.8862ZM81.8782 156.278C81.9662 156.278 82.2962 156.256 82.3182 155.838V146.268H84.5842V156.784H86.6082C86.6742 156.784 87.0262 156.762 87.0482 156.344V135.818H84.5842V144.046H82.3182V135.818H79.8762V156.278H81.8782ZM96.5894 136.126H94.0154V140.328C94.0154 142.836 91.2654 145.058 88.5594 146.356L90.2094 147.94C92.5194 146.708 94.3234 145.124 95.3794 143.738C96.5014 145.08 98.8554 146.73 100.593 147.478L101.979 145.916C99.0754 144.464 96.5894 142.814 96.5894 140.35V136.126ZM107.083 135.84H104.597V139.91H99.3174V142.044H104.597V148.05H106.643C106.885 148.05 107.083 147.852 107.083 147.61V135.84ZM107.017 150.492C107.017 149.722 106.401 149.172 105.675 149.172H92.8054V151.218H104.311C104.465 151.218 104.531 151.284 104.531 151.438V156.784H106.577C106.819 156.784 107.017 156.586 107.017 156.344V150.492Z" fill="#2B347B"/>
<path d="M42.248 212.762C42.49 212.762 42.688 212.564 42.688 212.322V191.84H40.928V212.762H42.248ZM35.406 206.184C35.406 206.338 35.34 206.404 35.186 206.404H28.894C28.74 206.404 28.674 206.338 28.674 206.184V199.98H35.406V206.184ZM37.144 192.874H35.406V198.506H28.674V192.874H26.936V206.558C26.936 207.328 27.508 207.878 28.278 207.878H35.802C36.528 207.878 37.144 207.328 37.144 206.558V192.874ZM49.5231 194.414H55.7051L55.6831 195.668C55.5951 198.704 50.9311 201.586 47.8951 202.576C48.2691 202.994 48.6651 203.346 49.0391 203.764C51.4151 202.95 55.3531 200.618 56.6951 198.088C58.1691 200.332 61.7111 202.862 64.3071 203.698C64.6811 203.28 65.0111 202.906 65.4291 202.488C62.6791 201.718 57.6191 198.396 57.5311 195.602L57.4871 194.414H63.7351V192.94H49.5231V194.414ZM55.7051 202.84V208.494H46.7071V209.946H65.9571C66.1551 209.946 66.3971 209.836 66.3971 209.506V208.494H57.4651V202.84H55.7051ZM68.8982 195.976H74.0682V199.518C74.0682 202.158 70.8782 205.502 68.3702 206.888C68.7442 207.284 69.1622 207.658 69.5802 208.032C71.4722 207.064 74.2882 204.226 74.9922 202.356C75.6962 204.05 78.1382 206.36 80.2282 207.636C80.6022 207.218 80.9762 206.844 81.3502 206.426C79.0622 205.128 75.8502 202.114 75.8502 199.496V195.976H80.9982V194.546H75.8502V191.84H74.0682V194.546H68.8982V195.976ZM85.4422 191.84H83.7262V212.762H85.0022C85.2442 212.762 85.4422 212.564 85.4422 212.322V191.84ZM92.1674 197.956C92.1674 195.844 93.8174 193.952 96.3914 193.952C99.0094 193.952 100.615 195.734 100.615 197.956C100.615 200.354 98.8994 202.004 96.3914 202.004C93.8614 202.004 92.1674 200.332 92.1674 197.956ZM90.5174 197.956C90.5174 201.212 92.9814 203.478 96.3914 203.478C99.8454 203.478 102.243 201.256 102.243 197.956C102.243 194.766 99.8454 192.478 96.3914 192.478C92.9374 192.478 90.5174 194.854 90.5174 197.956ZM106.907 212.762C107.149 212.762 107.347 212.564 107.347 212.322V191.84H105.609V212.762H106.907ZM89.8794 208.252H97.1834C100.109 208.186 102.265 208.054 103.739 207.702C103.981 207.658 104.091 207.504 104.091 207.262V206.206C102.155 206.558 99.1194 206.8 96.6114 206.8H89.8794V208.252ZM121.266 193.952C121.266 193.27 120.782 192.632 119.924 192.632H112.202V194.062H119.286C119.44 194.062 119.506 194.128 119.506 194.282V197.274C119.506 200.816 115.348 202.51 111.74 203.39C111.872 203.522 112.642 204.424 112.774 204.556C115.59 203.852 118.802 202.598 120.342 200.288V201.652H126.37V207.02H127.668C127.91 207.02 128.108 206.844 128.108 206.58V191.84H126.37V194.678H121.266V193.952ZM128.878 211.222H116.734C116.58 211.222 116.514 211.156 116.514 211.002V205.7H114.776V211.354C114.776 212.124 115.348 212.674 116.118 212.674H128.482C128.724 212.674 128.878 212.498 128.878 212.256V211.222ZM121.266 196.13H126.37V200.222H120.386C120.936 199.364 121.266 198.396 121.266 197.186V196.13ZM149.596 191.884H147.88V198.638H142.028V200.09H147.88V212.762H149.156C149.398 212.762 149.596 212.564 149.596 212.322V191.884ZM138.794 192.896H137.012V199.54C137.012 201.762 134.174 205.128 131.336 206.91L132.502 207.988C134.394 207.042 137.166 203.918 138.002 202.312C138.926 203.94 141.874 206.844 143.7 207.658L144.756 206.426C142.358 205.304 138.794 201.696 138.794 199.474V192.896Z" fill="#5B5B5B"/>
<path d="M43.876 67.548H49.084V70.208C49.084 72.672 46.144 75.584 42.112 77.292L44.1 79.336C46.396 78.44 49.224 76.172 50.792 74.212C52.192 75.976 54.824 77.768 56.98 78.664L58.968 76.564C56.392 75.444 52.36 73.148 52.36 70.208V67.548H57.68V64.972H43.876V67.548ZM50.232 85.748C50.232 83.312 53.368 82.64 56.196 82.64C58.968 82.64 62.104 83.312 62.104 85.748C62.104 88.212 58.968 88.772 56.196 88.772C53.368 88.772 50.232 88.212 50.232 85.748ZM65.184 85.748C65.184 81.016 60.116 80.036 56.168 80.036C52.78 80.036 47.124 81.072 47.124 85.748C47.124 90.452 52.192 91.376 56.168 91.376C60.116 91.376 65.184 90.48 65.184 85.748ZM64.596 79.672C64.736 79.672 65.128 79.588 65.156 79.112V64.16H62.02V69.788H56.196V72.476H62.02V79.672H64.596ZM68.4513 79.924V82.584H79.4833V90.816H82.1153C82.4232 90.816 82.6753 90.564 82.6753 90.256V82.584H93.0913C93.3993 82.584 93.6513 82.332 93.6513 82.024V79.924H68.4513ZM87.2393 74.072C87.2393 74.268 87.1553 74.352 86.9593 74.352H75.1433C74.9473 74.352 74.8633 74.268 74.8633 74.072V70.656H87.2393V74.072ZM90.4033 64.524H87.2393V67.968H74.8633V64.524H71.7272V75.276C71.7272 76.2 72.4273 76.956 73.4353 76.956H88.6953C89.6193 76.956 90.4033 76.256 90.4033 75.276V64.524ZM107.167 76.508C111.983 76.508 116.883 74.716 116.883 70.488C116.883 66.148 111.983 64.412 107.167 64.412C102.155 64.412 97.2825 66.176 97.2825 70.488C97.2825 74.66 102.099 76.508 107.167 76.508ZM107.195 67.044C110.303 67.044 113.579 68.052 113.579 70.488C113.579 72.84 110.303 73.848 107.167 73.848C103.863 73.848 100.587 72.84 100.587 70.488C100.587 68.136 103.835 67.044 107.195 67.044ZM94.4825 81.576H100.419V90.816H103.051C103.359 90.816 103.611 90.564 103.611 90.256V81.576H110.555V90.816H113.159C113.467 90.816 113.719 90.564 113.719 90.256V81.576H119.123C119.431 81.576 119.683 81.324 119.683 81.016V78.86H94.4825V81.576ZM121.382 76.592H126.73V81.66H129.39C129.698 81.66 129.95 81.408 129.95 81.1V76.592C132.918 76.592 136.866 76.452 138.91 75.696C139.162 75.612 139.302 75.444 139.302 75.192V72.896C138.434 73.12 137.23 73.316 135.97 73.456C136.446 71.776 136.838 69.676 136.838 68.108V66.624C136.838 65.644 136.054 64.944 135.13 64.944H123.062V67.604H133.394C133.59 67.604 133.674 67.688 133.674 67.884C133.674 69.788 133.394 71.944 132.862 73.764C131.938 73.82 131.07 73.848 130.286 73.848H121.382V76.592ZM140.506 64.16V78.188H132.722V80.932H140.506V83.76H143.138C143.446 83.76 143.698 83.508 143.698 83.2V64.16H140.506ZM144.37 88.128H129.082C128.97 88.128 128.83 88.044 128.83 87.848V82.528H125.666V89.136C125.666 90.116 126.478 90.844 127.374 90.844H143.81C144.118 90.844 144.37 90.592 144.37 90.284V88.128ZM150.129 79.084C150.129 76.984 151.333 74.884 153.489 74.884C155.645 74.884 156.849 76.984 156.849 79.084C156.849 81.492 155.505 83.228 153.489 83.228C151.557 83.228 150.129 81.492 150.129 79.084ZM147.133 79.084C147.133 82.976 149.793 85.86 153.489 85.86C157.297 85.86 159.873 82.864 159.873 79.084C159.873 75.136 157.381 72.28 153.489 72.28C149.737 72.28 147.133 75.136 147.133 79.084ZM160.405 70.768V68.164H155.029V64.384H151.809V68.164H146.405V70.768H160.405ZM164.213 90.172C164.325 90.172 164.745 90.144 164.773 89.612V77.432H167.657V90.816H170.233C170.317 90.816 170.765 90.788 170.793 90.256V64.132H167.657V74.604H164.773V64.132H161.665V90.172H164.213ZM181.816 64.524H178.54V69.872C178.54 73.064 175.04 75.892 171.596 77.544L173.696 79.56C176.636 77.992 178.932 75.976 180.276 74.212C181.704 75.92 184.7 78.02 186.912 78.972L188.676 76.984C184.98 75.136 181.816 73.036 181.816 69.9V64.524ZM195.172 64.16H192.008V69.34H185.288V72.056H192.008V79.7H194.612C194.92 79.7 195.172 79.448 195.172 79.14V64.16ZM195.088 82.808C195.088 81.828 194.304 81.128 193.38 81.128H177V83.732H191.644C191.84 83.732 191.924 83.816 191.924 84.012V90.816H194.528C194.836 90.816 195.088 90.564 195.088 90.256V82.808Z" fill="#FFECBC"/>
<rect y="136" width="4" height="22" fill="#2B347B"/>
<defs>
<linearGradient id="paint0_linear_61_364" x1="120" y1="112" x2="120" y2="709" gradientUnits="userSpaceOnUse">
<stop stop-color="#F7F7F7"/>
<stop offset="0.127303" stop-color="#FDFDFD"/>
</linearGradient>
<linearGradient id="paint1_linear_61_364" x1="191.5" y1="0" x2="191.5" y2="97" gradientUnits="userSpaceOnUse">
<stop stop-color="#2F4799"/>
<stop offset="1" stop-color="#2F4799" stop-opacity="0"/>
</linearGradient>
</defs>
</svg>
