<svg width="76" height="25" viewBox="0 0 76 25" fill="none" xmlns="http://www.w3.org/2000/svg">
<path d="M3.09785 14.904C2.98585 14.904 2.93785 14.856 2.93785 14.744V6.584C2.93785 6.472 2.98585 6.424 3.09785 6.424H9.22585V5.368H2.66585C2.10585 5.368 1.68985 5.768 1.68985 6.328V15C1.68985 15.896 2.42585 15.96 3.24185 15.96C5.33785 15.96 8.85785 15.88 10.4739 15.576V14.568C8.21785 14.84 5.80185 14.904 3.09785 14.904ZM13.2739 4.552H12.0259V9.784H7.49785V10.84H12.0259V19.736H12.9539C13.1299 19.736 13.2739 19.592 13.2739 19.416V4.552ZM28.0049 5.144H26.7409V7.944H18.7089V5.144H17.4449V12.232C17.4449 12.792 17.8609 13.192 18.4209 13.192H22.1009V16.632H15.5569V17.688H29.5569C29.7329 17.688 29.8769 17.544 29.8769 17.368V16.632H23.3809V13.192H27.0289C27.5569 13.192 28.0049 12.792 28.0049 12.232V5.144ZM26.7409 11.976C26.7409 12.088 26.6929 12.136 26.5809 12.136H18.8689C18.7569 12.136 18.7089 12.088 18.7089 11.976V9H26.7409V11.976ZM42.2879 19.736H43.2159C43.3919 19.736 43.5359 19.592 43.5359 19.416V4.52H42.2879V19.736ZM39.0399 6.312C39.0399 5.752 38.6239 5.352 38.0639 5.352H31.7599V6.408H37.5999C37.7119 6.408 37.7599 6.456 37.7599 6.568V10.632C37.7599 13.96 34.8159 15.528 31.4879 16.424L32.1759 17.336C35.3119 16.616 39.0399 14.648 39.0399 10.68V6.312Z" fill="black"/>
<circle cx="63.8" cy="12.5" r="12.2" fill="#2B347B"/>
<path d="M63.5203 20.2636H64.9959V13.2431H70.8982V11.7568H64.9959V4.73633H63.5203V11.7568H57.589V13.2431H63.5203V20.2636Z" fill="white"/>
</svg>
