<svg width="26" height="13" viewBox="0 0 26 13" fill="none" xmlns="http://www.w3.org/2000/svg">
<path d="M0 5C0 2.23858 2.23858 0 5 0H26V8C26 10.7614 23.7614 13 21 13H0V5Z" fill="#EC533E"/>
<path d="M4.65918 9.5V4.31445H5.4502V5.05176C5.83105 4.4821 6.38118 4.19727 7.10059 4.19727C7.41309 4.19727 7.69954 4.25423 7.95996 4.36816C8.22363 4.47884 8.42057 4.62533 8.55078 4.80762C8.68099 4.98991 8.77214 5.20638 8.82422 5.45703C8.85677 5.61979 8.87305 5.90462 8.87305 6.31152V9.5H7.99414V6.3457C7.99414 5.98763 7.95996 5.7207 7.8916 5.54492C7.82324 5.36589 7.70117 5.22428 7.52539 5.12012C7.35286 5.0127 7.14941 4.95898 6.91504 4.95898C6.54069 4.95898 6.2168 5.0778 5.94336 5.31543C5.67318 5.55306 5.53809 6.00391 5.53809 6.66797V9.5H4.65918ZM13.7754 7.83008L14.6836 7.94238C14.5404 8.47298 14.2751 8.88477 13.8877 9.17773C13.5003 9.4707 13.0055 9.61719 12.4033 9.61719C11.6449 9.61719 11.0426 9.38444 10.5967 8.91895C10.154 8.4502 9.93262 7.79427 9.93262 6.95117C9.93262 6.07878 10.1572 5.40169 10.6064 4.91992C11.0557 4.43815 11.6383 4.19727 12.3545 4.19727C13.0479 4.19727 13.6143 4.43327 14.0537 4.90527C14.4932 5.37728 14.7129 6.04134 14.7129 6.89746C14.7129 6.94954 14.7113 7.02767 14.708 7.13184H10.8408C10.8734 7.7015 11.0345 8.1377 11.3242 8.44043C11.6139 8.74316 11.9753 8.89453 12.4082 8.89453C12.7305 8.89453 13.0055 8.8099 13.2334 8.64062C13.4613 8.47135 13.6419 8.20117 13.7754 7.83008ZM10.8896 6.40918H13.7852C13.7461 5.97298 13.6354 5.64583 13.4531 5.42773C13.1732 5.08919 12.8102 4.91992 12.3643 4.91992C11.9606 4.91992 11.6204 5.05501 11.3438 5.3252C11.0703 5.59538 10.9189 5.95671 10.8896 6.40918ZM16.749 9.5L15.1621 4.31445H16.0703L16.8955 7.30762L17.2031 8.4209C17.2161 8.36556 17.3057 8.00911 17.4717 7.35156L18.2969 4.31445H19.2002L19.9766 7.32227L20.2354 8.31348L20.5332 7.3125L21.4219 4.31445H22.2764L20.6553 9.5H19.7422L18.917 6.39453L18.7168 5.51074L17.667 9.5H16.749Z" fill="white"/>
</svg>
