<svg width="185" height="28" viewBox="0 0 185 28" fill="none" xmlns="http://www.w3.org/2000/svg">
<g clip-path="url(#clip0_41_101)">
<path d="M158.832 16.4341H135.72L134.719 14.8804H158.832C159.083 14.8804 159.139 15.1829 159.139 15.6535C159.139 16.1241 159.083 16.4341 158.832 16.4341ZM147.205 12.8261C141.21 12.8261 136.661 11.2985 136.661 8.10874C136.661 4.91902 141.21 3.36151 147.205 3.36151C153.2 3.36151 157.749 4.88914 157.749 8.07886C157.749 11.2686 153.2 12.8074 147.205 12.8074V12.8261ZM157.992 24.4607H138.327C138.107 24.4602 137.89 24.4164 137.688 24.3318C137.485 24.2473 137.301 24.1235 137.146 23.9678C136.991 23.812 136.869 23.6272 136.786 23.424C136.703 23.2209 136.66 23.0033 136.661 22.7837V17.8012H139.436C139.655 17.8068 139.864 17.8964 140.019 18.0514C140.174 18.2064 140.264 18.4149 140.269 18.6341V22.074C140.275 22.2931 140.364 22.5017 140.519 22.6567C140.674 22.8117 140.883 22.9013 141.102 22.9069H157.992C158.242 22.9069 158.298 23.2132 158.298 23.6838C158.298 24.1544 158.25 24.4607 157.992 24.4607ZM147.198 4.92649C143.257 4.92649 140.374 5.8976 140.374 8.09006C140.374 10.2825 143.257 11.2536 147.198 11.2536C151.138 11.2536 154.025 10.2825 154.025 8.09006C154.025 5.8976 151.146 4.92649 147.205 4.92649H147.198Z" fill="#005CB9"/>
<path d="M183.827 18.2008H179.588C180.563 18.7573 181.123 19.5305 181.123 20.5987C181.123 22.9443 178.329 23.9602 174.534 23.9602C170.74 23.9602 167.946 22.9406 167.946 20.5987C167.946 18.2568 170.736 17.2073 174.534 17.2073H184.795V4.20563C184.792 3.98456 184.703 3.77317 184.548 3.61579C184.393 3.45842 184.183 3.36729 183.962 3.36151H181.325V7.81367H179.383V4.20563C179.38 3.98202 179.289 3.76844 179.131 3.61066C178.972 3.45288 178.758 3.36345 178.535 3.36151H175.92V14.7534H179.386V9.4795H181.328V15.8291H174.534C168.558 15.8291 164.076 17.4687 164.076 20.6622C164.076 23.8556 168.558 25.5177 174.534 25.5177C180.51 25.5177 184.993 23.8743 184.993 20.6622C184.995 20.1909 184.891 19.7251 184.689 19.2992C184.488 18.8732 184.193 18.4979 183.827 18.2008V18.2008Z" fill="#005CB9"/>
<path d="M174.553 9.84931C174.555 8.9358 174.262 8.04612 173.716 7.31322H170.217C170.801 8.01466 171.096 8.91204 171.042 9.82316C171.042 11.474 170.314 13.237 168.271 13.237C166.583 13.237 165.462 11.5786 165.462 9.82316C165.462 7.95564 166.482 6.30102 168.256 6.30102H174.979C175.184 6.30102 175.229 5.90884 175.229 5.49052C175.229 5.0722 175.184 4.74351 174.979 4.74351H170.023V3.44372C170.023 3.25613 169.953 3.07515 169.827 2.93675C169.7 2.79835 169.526 2.71266 169.339 2.69672H166.317V4.75098H160.924L161.727 6.30102H163.77C163.228 6.71787 162.791 7.25591 162.493 7.87207C162.196 8.48823 162.048 9.16538 162.059 9.84931C162.059 12.5834 164.517 14.7758 168.26 14.7758C172.002 14.7758 174.553 12.5834 174.553 9.84931Z" fill="#005CB9"/>
<path d="M99.8524 16.6881C100.366 16.9835 100.791 17.4099 101.085 17.9238C101.379 18.4378 101.531 19.0206 101.526 19.6126C101.526 22.4289 98.4929 23.7212 94.7392 23.7212C90.9854 23.7212 87.9601 22.4326 87.9601 19.6126C87.9601 16.7927 90.9481 15.5041 94.7392 15.5041H94.6943H105.974C106.053 15.4993 106.127 15.4646 106.181 15.407C106.236 15.3493 106.266 15.2732 106.265 15.1941C106.313 14.8772 106.313 14.5549 106.265 14.2379C106.257 14.1659 106.223 14.0993 106.17 14.0505C106.116 14.0017 106.047 13.9741 105.974 13.9727H96.4984V11.0445H105.515C105.593 11.0408 105.668 11.0076 105.723 10.9515C105.779 10.8955 105.811 10.8207 105.814 10.7419C105.858 10.4235 105.858 10.1004 105.814 9.78204C105.804 9.70911 105.767 9.64233 105.712 9.5942C105.656 9.54608 105.585 9.5199 105.511 9.52058H88.4232C88.1969 9.52363 87.9785 9.43763 87.815 9.28113C87.6515 9.12463 87.5561 8.91015 87.5492 8.68394V4.5119C87.5443 4.28471 87.4496 4.06871 87.2858 3.91121C87.122 3.7537 86.9024 3.66752 86.6752 3.67152H83.9897V9.46829C84.0024 9.89661 84.1838 10.3026 84.4944 10.5978C84.805 10.893 85.2197 11.0535 85.6481 11.0445H92.9389V13.9727H82.4808L83.4892 15.5041H86.608C85.9379 15.9154 85.3843 16.4914 84.9998 17.1772C84.6154 17.8631 84.413 18.6359 84.4118 19.4222C84.4118 23.4373 89.0358 25.2638 94.728 25.2638C100.42 25.2638 105.063 23.4448 105.063 19.4222C105.078 18.4308 104.756 17.4638 104.148 16.6806L99.8524 16.6881Z" fill="#005CB9"/>
<path d="M119.435 7.32067C119.624 7.53063 119.788 7.76117 119.924 8.00791C120.243 8.57225 120.411 9.20878 120.414 9.85675C120.43 10.3525 120.346 10.8463 120.167 11.3089C119.988 11.7715 119.718 12.1935 119.373 12.5497C119.028 12.9059 118.615 13.1892 118.158 13.3826C117.701 13.5761 117.21 13.6757 116.714 13.6757C116.218 13.6757 115.727 13.5761 115.271 13.3826C114.814 13.1892 114.401 12.9059 114.056 12.5497C113.711 12.1935 113.441 11.7715 113.262 11.3089C113.083 10.8463 112.999 10.3525 113.015 9.85675C113.009 9.37152 113.099 8.88988 113.279 8.43941C113.46 7.98894 113.727 7.57849 114.066 7.23155C114.406 6.88462 114.81 6.60801 115.256 6.41757C115.703 6.22713 116.182 6.12659 116.668 6.12172H124.631C124.71 6.11526 124.784 6.07959 124.839 6.02163C124.893 5.96366 124.924 5.88753 124.926 5.80798C124.975 5.48236 124.975 5.15128 124.926 4.82566C124.918 4.75204 124.883 4.68392 124.828 4.63481C124.773 4.58569 124.701 4.55916 124.627 4.56047H118.543V3.71262C118.537 3.48212 118.44 3.26328 118.273 3.10377C118.107 2.94427 117.884 2.85702 117.654 2.86103H114.893V4.54927H107.961C108.103 4.75096 108.955 6.04328 108.996 6.11051H111.61C110.269 7.06668 109.448 8.39262 109.448 9.84555C109.448 12.7626 112.376 15.1119 116.716 15.1119C119.637 15.1119 121.781 14.0512 123.032 12.4563H128.067V18.1709H114.688V16.5873C114.686 16.4717 114.66 16.3577 114.614 16.2519C114.567 16.1461 114.5 16.0505 114.416 15.9707C114.333 15.8909 114.234 15.8284 114.126 15.7867C114.018 15.7451 113.903 15.7253 113.788 15.7282H111.039V22.8248C111.053 23.2643 111.239 23.6807 111.558 23.9836C111.877 24.2864 112.302 24.4511 112.742 24.4421H131.735V4.13842C131.732 4.02265 131.706 3.90859 131.659 3.80275C131.612 3.69692 131.545 3.60138 131.461 3.5216C131.377 3.44182 131.278 3.37937 131.17 3.3378C131.062 3.29624 130.947 3.27638 130.831 3.27936H128.063V7.32067H119.435ZM128.063 22.8995H115.181C115.116 22.9005 115.052 22.8885 114.992 22.8644C114.932 22.8402 114.877 22.8042 114.831 22.7586C114.786 22.7131 114.749 22.6587 114.725 22.5989C114.7 22.5391 114.687 22.4749 114.688 22.4102V19.7434H128.063V22.8995ZM128.063 10.9063H123.831C123.926 10.5645 123.974 10.2114 123.973 9.85675C123.972 9.52822 123.932 9.20097 123.854 8.88191H128.063V10.9063Z" fill="#005CB9"/>
<path d="M77.4871 3.80975H74.2899V12.0604H61.2172V3.80975H58.02C57.273 3.80975 56.6493 4.55676 56.6493 5.43823V22.8808C56.6493 23.7772 57.2618 24.513 58.02 24.513H61.2172V15.6461H74.2899V24.513H77.4871C78.2341 24.513 78.8615 23.766 78.8615 22.8808V5.43823C78.8615 4.53809 78.2527 3.80975 77.4871 3.80975Z" fill="#005CB9"/>
<path d="M51.3268 3.80975H48.1296V19.6612L38.5157 6.99947C36.9208 5.15063 35.8227 3.80975 33.2679 3.80975H30.011V22.8808C30.011 23.7772 30.6235 24.513 31.393 24.513H34.5864V8.5906L44.2527 21.1665C45.8886 23.0564 47.3415 24.528 49.7096 24.528H52.6976V5.43823C52.6976 4.53809 52.085 3.80975 51.3268 3.80975Z" fill="#005CB9"/>
<path d="M16.281 0L10.9474 2.67802L5.61377 0L10.9474 10.1406L16.281 0Z" fill="#FABE00"/>
<path d="M18.1485 7.84354L18.0664 7.77258L21.8724 6.17398V0.814209L15.2576 3.63416C15.2576 3.63416 11.6794 10.4207 11.5786 10.5739C12.9865 10.7396 14.2779 11.4372 15.1884 12.5237C16.099 13.6103 16.5599 15.0037 16.4769 16.419C16.3939 17.8342 15.7732 19.1642 14.7418 20.1368C13.7104 21.1094 12.3464 21.6512 10.9287 21.6512C9.51105 21.6512 8.14698 21.1094 7.11561 20.1368C6.08424 19.1642 5.46354 17.8342 5.38051 16.419C5.29748 15.0037 5.7584 13.6103 6.66896 12.5237C7.57952 11.4372 8.87088 10.7396 10.2788 10.5739L6.63715 3.63416L0.0298705 0.814209V6.16651L3.83587 7.76511L3.7537 7.83607C2.07447 9.30127 0.882412 11.2441 0.336836 13.4049C-0.208741 15.5656 -0.0818498 17.8415 0.700552 19.9282C1.48295 22.0149 2.88359 23.8132 4.7153 25.0826C6.547 26.3521 8.72252 27.0322 10.9511 27.0322C13.1797 27.0322 15.3552 26.3521 17.1869 25.0826C19.0186 23.8132 20.4193 22.0149 21.2017 19.9282C21.9841 17.8415 22.111 15.5656 21.5654 13.4049C21.0198 11.2441 19.8278 9.30127 18.1485 7.83607V7.84354Z" fill="#FABE00"/>
</g>
<defs>
<clipPath id="clip0_41_101">
<rect width="185" height="27.0491" fill="white"/>
</clipPath>
</defs>
</svg>
