<svg width="252" height="34" viewBox="0 0 252 34" fill="none" xmlns="http://www.w3.org/2000/svg">
<path d="M19.72 19.384V32.848H22.882C23.256 32.848 23.562 32.542 23.562 32.168V19.384H30.464C30.838 19.384 31.144 19.078 31.144 18.704L31.11 16.086H25.534C26.248 14.182 26.656 11.632 26.656 9.55798V3.33598C26.656 2.21398 25.772 1.29598 24.582 1.29598H4.31801V4.52598H22.44C22.678 4.52598 22.78 4.62798 22.78 4.86598V9.72798C22.78 11.836 22.338 14.352 21.794 16.086H0.51001V19.384H7.71801V32.848H10.914C11.288 32.848 11.594 32.542 11.594 32.168V19.384H19.72Z" fill="#2B347B"/>
<path d="M48.0654 5.30798V2.21398H32.7314V5.30798H38.5114V13.672C38.5114 16.426 35.1114 21.254 31.2014 23.974L33.8874 26.422C36.5734 24.518 39.2934 21.186 40.6534 18.908C41.7074 20.948 44.5634 23.906 46.9774 25.674L49.2554 23.022C46.3314 21.016 42.4214 16.732 42.4214 13.876V5.30798H48.0654ZM53.7434 32.066C53.9134 32.066 54.3894 31.964 54.4234 31.386V0.47998H50.5814V11.054H45.1414V14.318H50.5814V32.066H53.7434ZM60.5434 32.848C60.7134 32.848 61.1894 32.746 61.2234 32.168V0.47998H57.3814V32.848H60.5434Z" fill="#2B347B"/>
<path d="M69.4068 21.764C69.1688 21.764 69.0668 21.662 69.0668 21.424V5.61398C69.0668 5.37598 69.1688 5.27398 69.4068 5.27398H78.3828V2.14598H67.3328C66.1428 2.14598 65.2588 2.99598 65.2588 4.18598V22.818C65.2588 23.906 66.1428 24.892 67.3328 24.858C73.6568 24.858 76.7168 24.518 80.4568 24.144V20.982C74.9488 21.696 72.2288 21.866 69.4068 21.764ZM93.3428 0.47998H89.5008V11.326H85.6588V0.47998H81.8168V32.066H84.9788C85.3528 32.066 85.6588 31.76 85.6588 31.386V14.556H89.5008V32.848H92.6628C93.0368 32.848 93.3428 32.542 93.3428 32.168V0.47998Z" fill="#2B347B"/>
<path d="M100.37 7.07598C100.37 11.632 105.47 13.298 111.726 13.298C118.254 13.298 122.946 11.19 122.946 7.07598C122.946 2.62198 117.438 0.64998 111.726 0.64998C105.776 0.64998 100.37 2.58798 100.37 7.07598ZM104.28 7.07598C104.28 4.79798 107.578 3.70998 111.76 3.70998C115.534 3.70998 119.036 4.79798 119.036 7.07598C119.036 9.14998 115.568 10.238 111.726 10.238C107.51 10.238 104.28 9.14998 104.28 7.07598ZM100.404 27.204C100.404 31.692 106.184 33.528 111.76 33.528C117.608 33.528 122.912 31.352 122.912 27.204C122.912 22.784 117.166 20.778 111.76 20.778C106.184 20.778 100.404 22.716 100.404 27.204ZM104.348 27.204C104.348 25.13 107.85 24.008 111.794 24.008C115.5 24.008 118.968 25.13 118.968 27.204C118.968 29.244 115.5 30.332 111.76 30.332C107.85 30.332 104.348 29.244 104.348 27.204ZM96.3241 15.542V18.704H126.278C126.652 18.704 126.958 18.398 126.958 18.024V15.542H96.3241Z" fill="#2B347B"/>
<path d="M130.076 5.34198H136.944V12.278C136.944 15.542 132.524 20.812 128.24 23.43L130.96 25.912C133.51 24.382 137.216 20.574 139.018 17.888C140.65 20.234 144.254 23.804 146.77 25.334L149.354 22.818C145.512 20.438 140.888 15.848 140.888 12.414V5.34198H147.994V2.11198H130.076V5.34198ZM155.746 0.47998H151.904V32.848H155.066C155.44 32.848 155.746 32.542 155.746 32.168V0.47998Z" fill="#2B347B"/>
<path d="M162.671 6.59998C162.671 10.816 167.057 12.72 171.273 12.72C175.523 12.72 179.909 10.816 179.909 6.59998C179.909 2.41798 175.523 0.47998 171.273 0.47998C167.057 0.47998 162.671 2.41798 162.671 6.59998ZM166.411 6.59998C166.411 4.38998 168.859 3.47198 171.273 3.47198C173.823 3.47198 176.169 4.32198 176.169 6.59998C176.169 8.80998 173.823 9.72798 171.273 9.72798C168.859 9.72798 166.411 8.80998 166.411 6.59998ZM184.499 19.622H175.081V22.852H184.499V25.98H187.695C188.069 25.98 188.375 25.674 188.375 25.3V0.47998H184.499V19.622ZM161.277 17.48H167.737V22.784H171.001C171.375 22.784 171.681 22.478 171.681 22.104V17.48C175.285 17.48 180.113 17.344 182.561 16.426C182.867 16.324 183.037 16.12 183.037 15.814V13.026C180.419 13.672 175.455 14.148 171.239 14.148H161.277V17.48ZM188.851 29.584H170.321C170.185 29.584 170.015 29.482 170.015 29.244V24.212H166.139V30.808C166.139 31.998 167.125 32.882 168.213 32.882H188.171C188.545 32.882 188.851 32.576 188.851 32.202V29.584Z" fill="#2B347B"/>
<path d="M205.602 19.044V25.402H192.206V28.666H222.126C222.296 28.666 222.772 28.564 222.806 27.986V25.402H209.512V19.044H220.732V15.882H215.768C215.938 15.372 215.938 14.964 215.938 14.454V5.37598H220.018V2.14598H194.96V5.37598H198.938V14.42C198.938 14.93 199.006 15.44 199.176 15.882H194.348V19.044H205.602ZM203.086 15.882C202.848 15.882 202.746 15.78 202.746 15.542V5.37598H212.164V15.542C212.164 15.78 212.062 15.882 211.824 15.882H203.086Z" fill="#2B347B"/>
<path d="M250.438 17.446C250.608 17.446 251.084 17.344 251.118 16.766V0.47998H247.276V6.25998H241.394V9.45598H247.276V17.446H250.438ZM229.936 13.604C229.698 13.57 229.596 13.434 229.596 13.264V10.17H240.204V7.24598H229.596V4.52598C229.596 4.28798 229.698 4.18598 229.936 4.18598H240.544V1.26198H227.896C226.808 1.26198 225.822 2.04398 225.822 3.30198V14.658C225.822 15.848 226.774 16.698 227.896 16.698C232.894 16.698 240.272 16.29 244.794 15.474V12.516C239.456 13.502 231.636 13.774 229.936 13.604ZM251.764 30.026H233.846C233.608 30.026 233.506 29.924 233.506 29.686V27.51H248.976C250.166 27.51 251.05 26.864 251.05 25.606V19.18H229.63V22.206H247.14V24.314C247.14 24.552 247.038 24.654 246.8 24.654H229.562V31.08C229.562 32.406 230.31 33.12 231.636 33.12H251.084C251.458 33.12 251.764 32.814 251.764 32.44V30.026Z" fill="#2B347B"/>
</svg>
