<svg width="442" height="84" viewBox="0 0 442 84" fill="none" xmlns="http://www.w3.org/2000/svg">
<rect width="442" height="84" fill="#2B347B"/>
<path d="M247 84L331 0H442V84H247Z" fill="white"/>
<path d="M82 82L0 0V82H82Z" fill="url(#paint0_linear_56_962)"/>
<path d="M74.9118 45.728V56.816H77.5158C77.8238 56.816 78.0758 56.564 78.0758 56.256V45.728H83.7598C84.0678 45.728 84.3198 45.476 84.3198 45.168L84.2918 43.012H79.6998C80.2878 41.444 80.6238 39.344 80.6238 37.636V32.512C80.6238 31.588 79.8958 30.832 78.9158 30.832H62.2278V33.492H77.1518C77.3478 33.492 77.4318 33.576 77.4318 33.772V37.776C77.4318 39.512 77.0678 41.584 76.6198 43.012H59.0918V45.728H65.0278V56.816H67.6598C67.9678 56.816 68.2198 56.564 68.2198 56.256V45.728H74.9118ZM99.0951 34.136V31.588H86.4671V34.136H91.2271V41.024C91.2271 43.292 88.4271 47.268 85.2071 49.508L87.4191 51.524C89.6311 49.956 91.8711 47.212 92.9911 45.336C93.8591 47.016 96.2111 49.452 98.1991 50.908L100.075 48.724C97.6671 47.072 94.4471 43.544 94.4471 41.192V34.136H99.0951ZM103.771 56.172C103.911 56.172 104.303 56.088 104.331 55.612V30.16H101.167V38.868H96.6871V41.556H101.167V56.172H103.771ZM109.371 56.816C109.511 56.816 109.903 56.732 109.931 56.256V30.16H106.767V56.816H109.371ZM117.51 47.688C117.314 47.688 117.23 47.604 117.23 47.408V34.388C117.23 34.192 117.314 34.108 117.51 34.108H124.902V31.532H115.802C114.822 31.532 114.094 32.232 114.094 33.212V48.556C114.094 49.452 114.822 50.264 115.802 50.236C121.01 50.236 123.53 49.956 126.61 49.648V47.044C122.074 47.632 119.834 47.772 117.51 47.688ZM137.222 30.16H134.058V39.092H130.894V30.16H127.73V56.172H130.334C130.642 56.172 130.894 55.92 130.894 55.612V41.752H134.058V56.816H136.662C136.97 56.816 137.222 56.564 137.222 56.256V30.16ZM143.85 35.592C143.85 39.344 148.05 40.716 153.202 40.716C158.578 40.716 162.442 38.98 162.442 35.592C162.442 31.924 157.906 30.3 153.202 30.3C148.302 30.3 143.85 31.896 143.85 35.592ZM147.07 35.592C147.07 33.716 149.786 32.82 153.23 32.82C156.338 32.82 159.222 33.716 159.222 35.592C159.222 37.3 156.366 38.196 153.202 38.196C149.73 38.196 147.07 37.3 147.07 35.592ZM143.878 52.168C143.878 55.864 148.638 57.376 153.23 57.376C158.046 57.376 162.414 55.584 162.414 52.168C162.414 48.528 157.682 46.876 153.23 46.876C148.638 46.876 143.878 48.472 143.878 52.168ZM147.126 52.168C147.126 50.46 150.01 49.536 153.258 49.536C156.31 49.536 159.166 50.46 159.166 52.168C159.166 53.848 156.31 54.744 153.23 54.744C150.01 54.744 147.126 53.848 147.126 52.168ZM140.518 42.564V45.168H165.186C165.494 45.168 165.746 44.916 165.746 44.608V42.564H140.518ZM186.668 54.464C188.236 54.464 189.692 54.128 190.952 53.54L193.948 56.62L195.236 55.668C195.544 55.444 195.572 55.108 195.264 54.8L192.828 52.252C194.312 50.908 195.208 48.892 195.208 46.316V39.792C195.208 34.752 192.184 31.308 186.668 31.308C180.844 31.308 177.876 35.312 177.876 39.792V46.344C177.876 50.684 180.956 54.464 186.668 54.464ZM186.696 33.268C190.7 33.268 193.052 35.732 193.052 39.764V46.204C193.052 50.124 190.476 52.448 186.696 52.448C182.748 52.448 180.06 50.46 180.06 46.204V39.764C180.06 35.62 182.664 33.268 186.696 33.268ZM207.886 40.772C206.178 39.148 204.806 38 204.806 36.124C204.806 34.248 206.514 33.184 208.558 33.184C210.826 33.184 212.17 34.332 212.17 36.012C212.17 37.692 210.434 38.98 207.886 40.772ZM213.626 49.9C212.366 51.916 209.986 52.868 207.718 52.868C204.834 52.868 202.538 51.608 202.538 49.004C202.538 47.016 204.778 45.56 207.55 43.46H207.606L213.626 49.9ZM219.506 53.82C219.814 53.82 219.814 53.54 219.674 53.4L216.258 49.816C217.014 48.36 217.798 45.84 217.938 44.356L215.894 44.16C215.754 45.28 215.25 47.072 214.718 48.192L209.23 42.284C212.45 39.82 214.27 38.448 214.27 35.928C214.27 33.184 211.666 31.42 208.446 31.42C205.534 31.42 202.594 33.016 202.594 36.012C202.594 38.14 204.134 40.128 206.262 41.948C202.874 44.412 200.326 46.148 200.326 49.284C200.326 52.42 202.93 54.884 207.494 54.884C210.714 54.884 213.178 53.736 215.194 51.608L217.35 53.82H219.506ZM232.772 33.296C232.856 33.184 232.94 33.184 233.024 33.296L238.148 45.7H227.928L232.772 33.296ZM243.692 54.156C243.888 54.156 243.944 54.072 243.86 53.876L234.564 31.672H231.204L222.328 54.156H224.372C224.512 54.156 224.596 54.072 224.68 53.932L227.312 47.576H238.904L241.704 54.156H243.692Z" fill="white"/>
<path d="M342.701 41.812H340.615V37.066H339.495V50.394H340.335C340.489 50.394 340.615 50.268 340.615 50.114V42.736H342.701V41.812ZM336.079 46.25C336.079 46.348 336.037 46.39 335.939 46.39C334.595 46.39 333.251 46.404 331.907 46.404C331.809 46.404 331.767 46.362 331.767 46.264V42.204H336.079V46.25ZM337.171 37.78H336.079V41.266H331.767V37.78H330.661V46.488C330.661 46.978 331.025 47.328 331.515 47.328H336.317C336.779 47.328 337.171 46.978 337.171 46.488V37.78ZM350.788 47.692V44.92H354.89V43.996H346.91C346.812 43.996 346.77 43.954 346.77 43.856V41.714H353.826C354.316 41.714 354.68 41.378 354.68 40.874V37.752H345.636V38.69H353.518V40.678C353.518 40.776 353.476 40.818 353.378 40.818H345.636V44.08C345.636 44.57 346 44.92 346.49 44.92H349.668V47.692H343.942V48.588H356.192C356.346 48.588 356.472 48.462 356.472 48.308V47.692H350.788ZM369.964 41.966H367.906V37.136H366.814V50.394H367.626C367.78 50.394 367.906 50.268 367.906 50.114V42.89H369.964V41.966ZM358.456 48.294C361.326 47.552 364.406 45.872 364.406 42.666V38.69C364.406 38.2 364.014 37.85 363.552 37.85H357.924V38.774H363.146C363.244 38.774 363.286 38.816 363.286 38.914V42.806C363.286 45.662 359.884 46.992 357.826 47.496L358.456 48.294ZM381.468 50.394H382.28C382.434 50.394 382.56 50.268 382.56 50.114V37.08H381.468V50.394ZM378.626 38.648C378.626 38.158 378.262 37.808 377.772 37.808H372.256V38.732H377.366C377.464 38.732 377.506 38.774 377.506 38.872V42.428C377.506 45.34 374.93 46.712 372.018 47.496L372.62 48.294C375.364 47.664 378.626 45.942 378.626 42.47V38.648Z" fill="#2B347B"/>
<path d="M393 23L413 43.5L393 64" stroke="#2B347B" stroke-width="0.5"/>
<rect width="442" height="84" fill="white"/>
<path d="M237 84L321 0H442V84H237Z" fill="#2B347B"/>
<path d="M82 82L0 0V82H82Z" fill="url(#paint1_linear_56_962)"/>
<path d="M82.5128 45.728V56.816H85.1168C85.4248 56.816 85.6768 56.564 85.6768 56.256V45.728H91.3608C91.6688 45.728 91.9208 45.476 91.9208 45.168L91.8928 43.012H87.3008C87.8888 41.444 88.2248 39.344 88.2248 37.636V32.512C88.2248 31.588 87.4968 30.832 86.5168 30.832H69.8288V33.492H84.7528C84.9488 33.492 85.0328 33.576 85.0328 33.772V37.776C85.0328 39.512 84.6688 41.584 84.2208 43.012H66.6928V45.728H72.6288V56.816H75.2608C75.5688 56.816 75.8208 56.564 75.8208 56.256V45.728H82.5128ZM106.696 34.136V31.588H94.0681V34.136H98.8281V41.024C98.8281 43.292 96.0281 47.268 92.8081 49.508L95.0201 51.524C97.2321 49.956 99.4721 47.212 100.592 45.336C101.46 47.016 103.812 49.452 105.8 50.908L107.676 48.724C105.268 47.072 102.048 43.544 102.048 41.192V34.136H106.696ZM111.372 56.172C111.512 56.172 111.904 56.088 111.932 55.612V30.16H108.768V38.868H104.288V41.556H108.768V56.172H111.372ZM116.972 56.816C117.112 56.816 117.504 56.732 117.532 56.256V30.16H114.368V56.816H116.972ZM121.863 34.388H129.675C129.871 34.388 129.955 34.472 129.955 34.668V40.604C129.955 45.588 126.763 48.668 121.135 50.768L123.011 52.728C129.367 50.628 133.119 46.288 133.119 40.66V33.408C133.119 32.428 132.335 31.728 131.411 31.728H121.863V34.388ZM135.443 56.172H138.019C138.327 56.172 138.579 55.92 138.579 55.612V42.116H141.547V56.816H144.095C144.403 56.816 144.655 56.564 144.655 56.256V30.16H141.547V39.428H138.579V30.16H135.443V56.172ZM157.387 30.524H154.139V36.908C154.139 40.1 150.611 42.9 147.139 44.552L149.239 46.568C152.263 45 154.503 43.012 155.847 41.22C157.247 42.928 160.271 45.056 162.483 45.952L164.275 43.992C160.551 42.116 157.387 40.044 157.387 36.964V30.524ZM170.687 30.16H167.467V35.648H160.831V38.308H167.467V49.508H170.127C170.435 49.508 170.687 49.256 170.687 48.948V30.16ZM171.359 54.156H156.407C156.295 54.156 156.155 54.072 156.155 53.876V48.08H152.935V55.136C152.935 56.116 153.747 56.844 154.643 56.844H170.799C171.107 56.844 171.359 56.592 171.359 56.284V54.156ZM196.733 33.576V31.728H184.217V33.576H189.397V40.94C189.397 43.796 186.429 47.66 183.321 49.816C183.853 50.292 184.301 50.768 184.833 51.216C187.157 49.62 189.649 46.596 190.629 44.552C191.497 46.372 193.961 49.144 196.117 50.544C196.565 50.012 197.041 49.536 197.489 49.004C194.997 47.352 191.637 43.88 191.637 40.996V33.576H196.733ZM201.213 56.172C201.437 56.172 201.745 56.032 201.773 55.612V30.16H199.561V39.316H194.605V41.164H199.561V56.172H201.213ZM206.841 56.788C207.093 56.788 207.401 56.648 207.401 56.228V30.16H205.189V56.788H206.841ZM225.872 37.72C225.872 33.352 222.764 30.664 218.732 30.664C214.616 30.664 211.536 33.352 211.536 37.72C211.536 42.088 214.616 44.776 218.732 44.776C222.764 44.776 225.872 42.088 225.872 37.72ZM213.692 37.72C213.692 34.668 215.708 32.568 218.704 32.568C221.728 32.568 223.744 34.668 223.744 37.72C223.744 40.772 221.728 42.9 218.704 42.9C215.652 42.9 213.692 40.772 213.692 37.72ZM231.808 39.232H236.12V37.384H231.808V30.216H229.624V49.48H231.248C231.556 49.48 231.808 49.228 231.808 48.92V39.232ZM232.872 54.8H217.836C217.64 54.8 217.556 54.716 217.556 54.52V48.192H215.288V54.996C215.288 55.976 216.072 56.676 216.996 56.676H232.34C232.704 56.676 232.872 56.508 232.872 56.144V54.8Z" fill="#2B347B"/>
<path d="M342.701 41.812H340.615V37.066H339.495V50.394H340.335C340.489 50.394 340.615 50.268 340.615 50.114V42.736H342.701V41.812ZM336.079 46.25C336.079 46.348 336.037 46.39 335.939 46.39C334.595 46.39 333.251 46.404 331.907 46.404C331.809 46.404 331.767 46.362 331.767 46.264V42.204H336.079V46.25ZM337.171 37.78H336.079V41.266H331.767V37.78H330.661V46.488C330.661 46.978 331.025 47.328 331.515 47.328H336.317C336.779 47.328 337.171 46.978 337.171 46.488V37.78ZM350.788 47.692V44.92H354.89V43.996H346.91C346.812 43.996 346.77 43.954 346.77 43.856V41.714H353.826C354.316 41.714 354.68 41.378 354.68 40.874V37.752H345.636V38.69H353.518V40.678C353.518 40.776 353.476 40.818 353.378 40.818H345.636V44.08C345.636 44.57 346 44.92 346.49 44.92H349.668V47.692H343.942V48.588H356.192C356.346 48.588 356.472 48.462 356.472 48.308V47.692H350.788ZM369.964 41.966H367.906V37.136H366.814V50.394H367.626C367.78 50.394 367.906 50.268 367.906 50.114V42.89H369.964V41.966ZM358.456 48.294C361.326 47.552 364.406 45.872 364.406 42.666V38.69C364.406 38.2 364.014 37.85 363.552 37.85H357.924V38.774H363.146C363.244 38.774 363.286 38.816 363.286 38.914V42.806C363.286 45.662 359.884 46.992 357.826 47.496L358.456 48.294ZM381.468 50.394H382.28C382.434 50.394 382.56 50.268 382.56 50.114V37.08H381.468V50.394ZM378.626 38.648C378.626 38.158 378.262 37.808 377.772 37.808H372.256V38.732H377.366C377.464 38.732 377.506 38.774 377.506 38.872V42.428C377.506 45.34 374.93 46.712 372.018 47.496L372.62 48.294C375.364 47.664 378.626 45.942 378.626 42.47V38.648Z" fill="white"/>
<path d="M393 23L413 43.5L393 64" stroke="white" stroke-width="0.5"/>
<defs>
<linearGradient id="paint0_linear_56_962" x1="41" y1="0" x2="41" y2="82" gradientUnits="userSpaceOnUse">
<stop stop-color="#2B449B"/>
<stop offset="1" stop-color="#2B449B" stop-opacity="0"/>
</linearGradient>
<linearGradient id="paint1_linear_56_962" x1="41" y1="0" x2="41" y2="82" gradientUnits="userSpaceOnUse">
<stop stop-color="#F2F2F2"/>
<stop offset="1" stop-color="#F2F2F2" stop-opacity="0"/>
</linearGradient>
</defs>
</svg>
