<svg width="1200" height="140" viewBox="0 0 1200 140" fill="none" xmlns="http://www.w3.org/2000/svg">
<path d="M584.422 256.48C653.54 140.779 1075.2 196.641 1140.28 306.605C1205.36 416.57 1111.22 631.053 937.072 650.793C762.925 670.533 515.303 372.182 584.422 256.48Z" fill="#FAC931" fill-opacity="0.1"/>
<path d="M631.719 280.63C689.058 175.514 1065.33 210.454 1126.92 305.813C1188.52 401.172 1112.4 594.851 958.487 618.427C804.574 642.002 574.38 385.746 631.719 280.63Z" fill="#FAC931" fill-opacity="0.2"/>
<mask id="mask0_56_837" style="mask-type:alpha" maskUnits="userSpaceOnUse" x="-120" y="0" width="1440" height="140">
<rect x="-120" width="1440" height="140" fill="#FFECBC"/>
</mask>
<g mask="url(#mask0_56_837)">
<path d="M36.0956 -19.9431C115.33 -122.719 525.114 -64.9315 569.882 39.2227C614.651 143.377 435.792 394.8 316.266 390.676C196.74 386.552 -43.1387 82.8332 36.0956 -19.9431Z" fill="#FFD344" fill-opacity="0.3"/>
<path d="M43.8645 -6.25358C99.5049 -82.0797 406.673 -39.0521 443.453 37.8988C480.233 114.85 355.273 300.357 266.097 297.208C176.922 294.059 -11.7759 69.5726 43.8645 -6.25358Z" fill="#FCD454" fill-opacity="0.5"/>
<path d="M60.4543 -12.0733C108.589 -66.638 350.386 -3.50698 375.616 60.7221C400.846 124.951 291.953 259.503 221.271 248.549C150.59 237.595 12.3194 42.4915 60.4543 -12.0733Z" fill="#FAC931" fill-opacity="0.5"/>
</g>
</svg>
